<?xml version="1.0" encoding="utf-8"?>
<!-- Generator: Adobe Illustrator 16.0.0, SVG Export Plug-In . SVG Version: 6.00 Build 0)  -->
<!DOCTYPE svg PUBLIC "-//W3C//DTD SVG 1.1//EN" "http://www.w3.org/Graphics/SVG/1.1/DTD/svg11.dtd">
<svg version="1.1" id="Layer_1" xmlns="http://www.w3.org/2000/svg" xmlns:xlink="http://www.w3.org/1999/xlink" x="0px" y="0px"
	 width="312px" height="152px" viewBox="0 0 312 152" enable-background="new 0 0 312 152" xml:space="preserve">
<g>
	<polygon fill-rule="evenodd" clip-rule="evenodd" fill="#010101" points="210.711,128.34 217.484,128.34 219.814,134.266 
		220.1,134.266 222.43,128.34 229.289,128.34 223.49,139.281 229.413,151.55 222.68,151.55 220.1,144.942 219.814,144.942 
		217.236,151.55 210.545,151.55 216.467,139.281 	"/>
	<path fill-rule="evenodd" clip-rule="evenodd" fill="#010101" d="M202.607,144.209h-3.423l1.162-8.133
		c0.162-1.037,0.311-2.077,0.373-3.12h0.312c0.046,0.523,0.091,1.045,0.151,1.564C201.641,137.749,202.134,140.981,202.607,144.209z
		 M191.241,151.55h6.937l0.581-3.045h4.23l0.584,3.045h6.937l-5.506-23.21h-8.255L191.241,151.55z"/>
	<path fill-rule="evenodd" clip-rule="evenodd" fill="#010101" d="M166.45,128.34h7.842l2.505,7.987
		c0.319,1.011,0.566,2.03,0.746,3.058h0.315c0.109-1.028,0.381-2.064,0.705-3.091l2.544-7.954h7.845v23.21h-6.019
		c0.004-3.771-0.016-7.538,0.014-11.311c0.031-0.85,0.115-1.703,0.232-2.553h-0.438l-3.413,13.863h-3.258l-3.413-13.863h-0.438
		c0.152,1.138,0.248,2.27,0.248,3.408v10.455h-6.019V128.34z"/>
	<path fill-rule="evenodd" clip-rule="evenodd" fill="#010101" d="M156.251,144.209h-3.422l1.162-8.133
		c0.163-1.037,0.312-2.077,0.374-3.12h0.311c0.045,0.523,0.092,1.045,0.152,1.564C155.284,137.749,155.777,140.981,156.251,144.209z
		 M144.886,151.55h6.936l0.583-3.045h4.23l0.581,3.045h6.935l-5.503-23.21h-8.255L144.886,151.55z"/>
	<path fill-rule="evenodd" clip-rule="evenodd" fill="#010101" d="M132.428,138.188v-5.622c0.156-0.01,0.315-0.016,0.474-0.025
		c0.893,0,1.807-0.076,2.672,0.42c0.266,0.18,0.417,0.386,0.534,0.604c0.126,0.274,0.205,0.555,0.243,0.841
		c0.074,0.809,0.099,1.616-0.08,2.425c-0.1,0.346-0.255,0.735-0.685,0.995C134.528,138.363,133.479,138.216,132.428,138.188z
		 M125.575,151.55h6.934v-9.426c0.554-0.039,1.107-0.04,1.659,0.038c0.431,0.076,0.906,0.232,1.276,0.591
		c0.142,0.147,0.244,0.327,0.348,0.512c0.145,0.324,0.193,0.649,0.23,0.973c-0.025,1.37-0.005,2.738,0.075,4.105
		c0.099,1.074,0.161,2.184,1.021,3.207h6.642c-0.274-0.53-0.462-1.08-0.582-1.61c-0.39-1.974-0.428-3.934-0.512-5.9
		c-0.075-0.518-0.203-1.034-0.394-1.548c-0.15-0.311-0.3-0.621-0.501-0.894c-0.202-0.27-0.455-0.503-0.71-0.735
		c-0.542-0.418-1.104-0.637-1.64-0.774c0.778-0.251,1.537-0.562,2.303-1.273c0.191-0.216,0.385-0.431,0.539-0.671
		c0.153-0.238,0.267-0.505,0.379-0.771c0.094-0.269,0.165-0.538,0.211-0.81c0.19-1.22,0.092-2.428-0.145-3.64
		c-0.11-0.395-0.219-0.791-0.39-1.159c-0.171-0.367-0.402-0.707-0.632-1.047c-0.257-0.297-0.515-0.597-0.817-0.841
		c-0.299-0.245-0.644-0.438-0.987-0.63c-0.246-0.111-0.49-0.224-0.742-0.31c-1.651-0.498-3.262-0.562-4.881-0.608
		c-2.895,0.021-5.788,0.007-8.683,0.011V151.55z"/>
	<path fill-rule="evenodd" clip-rule="evenodd" fill="#010101" d="M103.816,128.34h6.978c0.003,5.568-0.017,11.136,0.012,16.704
		c0.015,0.465,0.07,0.907,0.24,1.381c0.035,0.079,0.081,0.154,0.126,0.229c0.207,0.281,0.451,0.413,0.716,0.49
		c0.533,0.109,1.04,0.121,1.601-0.071c0.094-0.041,0.18-0.099,0.267-0.156c0.74-0.707,0.564-1.561,0.63-2.351
		c0.003-5.409,0.004-10.818,0.003-16.227h7.017c-0.005,5.499,0.013,10.999-0.012,16.502c-0.099,1.605-0.216,3.204-1.59,4.842
		c-0.313,0.37-0.812,0.774-1.224,1.027c-1.863,1.107-3.782,1.205-5.678,1.289c-2.105-0.043-4.239-0.041-6.371-1.332
		c-0.277-0.186-0.547-0.396-0.811-0.636c-0.262-0.282-0.523-0.562-0.736-0.876c-0.525-0.81-0.846-1.689-0.985-2.548
		c-0.121-0.744-0.181-1.492-0.184-2.241V128.34z"/>
	<path fill-rule="evenodd" clip-rule="evenodd" fill="#010101" d="M89.615,147.287v-14.718c0.159-0.001,0.316-0.001,0.475,0
		c0.766,0.028,1.543-0.035,2.286,0.553c0.528,0.548,0.519,1.05,0.572,1.56c0.03,3.351,0.009,6.692,0.014,10.041
		c-0.01,0.56-0.009,1.125-0.298,1.671c-0.165,0.276-0.353,0.43-0.554,0.553C91.265,147.357,90.445,147.271,89.615,147.287z
		 M82.597,151.55h7.069c1.323,0.003,2.649-0.061,3.97-0.267c1.491-0.3,3.017-0.631,4.462-2.074c0.652-0.676,1.045-1.377,1.327-2.115
		c0.849-2.408,0.813-4.78,0.719-7.166c0.082-2.164,0.091-4.331-0.474-6.482c-0.183-0.532-0.365-1.062-0.643-1.54
		c-0.277-0.478-0.647-0.901-1.019-1.322c-0.648-0.653-1.363-1.044-2.01-1.33c-1.707-0.695-3.403-0.836-5.083-0.895
		c-2.774-0.042-5.545-0.014-8.319-0.019V151.55z"/>
</g>
<g>
	<g>
		<path d="M140.126,26.76l1.566-12.293c0.046-0.333,0.154-0.61,0.323-0.825c0.167-0.215,0.347-0.37,0.539-0.466
			c0.191-0.095,0.457-0.167,0.792-0.215h6.974c0.096,0,0.215,0.024,0.359,0.071c0.287,0.096,0.503,0.215,0.647,0.359
			c0.238,0.239,0.311,0.574,0.215,1.003l-1.398,10.974c3.14,0.053,6.748,0.504,10.858,1.558l1.755-14.252
			c0.432-3.155-0.19-5.665-1.867-7.529c-0.674-0.764-1.439-1.362-2.302-1.792c-0.862-0.43-1.666-0.753-2.408-0.967
			c-0.743-0.216-1.391-0.335-1.941-0.359c-0.552-0.024-0.852-0.036-0.899-0.036h-10.423c-1.104,0.096-2.062,0.24-2.877,0.43
			c-0.815,0.191-1.703,0.503-2.66,0.933c-0.959,0.43-1.882,1.04-2.767,1.829c-0.887,0.789-1.666,1.792-2.336,3.011
			c-0.673,1.219-1.127,2.688-1.367,4.409l-1.504,12.208l4.176,5.427C134.529,29.428,136.66,27.894,140.126,26.76z"/>
	</g>
	<g>
		<path d="M173.787,48.03l7.218-4.245l0.651-5.22c0.047-0.287,0.168-0.454,0.359-0.501c0.19-0.048,0.311-0.072,0.36-0.072h2.371
			c0.096,0,0.216,0.024,0.36,0.072c0.239,0.096,0.432,0.286,0.575,0.572l0.605,2.042l9.368-5.509l-1.705-5.71
			c-0.099-0.238-0.145-0.525-0.145-0.86c0-0.238,0.022-0.549,0.071-0.932c0.048-0.382,0.191-0.764,0.432-1.147l5.357-10.199
			c-2.527-2.675-6.072-4.443-8.573-5.445l-7.64,14.569c-0.048,0.048-0.072,0.096-0.072,0.144c0,0.048-0.025,0.096-0.072,0.143
			v-0.143l1.149-9.107l-12.47,11.75l-0.038,0.298c-0.145,0.908-0.36,1.602-0.647,2.079c-0.288,0.479-0.586,0.836-0.898,1.076
			c-0.293,0.225-0.688,0.38-1.172,0.478c3.099,2.891,4.828,7.107,4.828,12.246C174.062,45.701,173.969,46.9,173.787,48.03z"/>
	</g>
	<g>
		<path d="M171.246,48.222c0,0,1.993-7.811-3.847-15.542l-3.847,1.618C163.553,34.298,171.322,38.062,171.246,48.222z"/>
	</g>
	<g>
		<polygon points="222.1,40.451 210.672,43.955 209.854,50.34 221.096,48.434 		"/>
	</g>
	<g>
		<path d="M209.033,2.286c0.191-0.333,0.215-0.645,0.072-0.932c-0.098-0.19-0.242-0.298-0.433-0.323
			c-0.191-0.023-0.312-0.036-0.359-0.036h-8.986c-0.193,0-0.384,0.049-0.575,0.144c-0.434,0.192-0.769,0.478-1.007,0.86
			l-4.181,7.973c2.514,1.005,5.993,2.746,8.597,5.4L209.033,2.286z"/>
	</g>
	<g>
		<path d="M184.26,2.215c0-0.431-0.07-0.718-0.215-0.861c-0.144-0.19-0.312-0.298-0.503-0.323c-0.192-0.023-0.312-0.036-0.358-0.036
			h-8.7c-0.193,0-0.431,0.085-0.72,0.251c-0.287,0.168-0.457,0.466-0.503,0.896l-3.073,24.533l12.471-11.751L184.26,2.215z"/>
	</g>
	<g>
		<polygon points="145.719,76.776 152.66,76.776 152.66,72.509 		"/>
	</g>
	<g>
		<path d="M159.7,30.371l0.18-1.446c-4.126-1.063-7.738-1.499-10.867-1.528l-0.125,0.972c-0.046,0.287-0.156,0.455-0.322,0.502
			c-0.169,0.048-0.277,0.072-0.323,0.072h-8.7c-0.162,0-0.262-0.042-0.32-0.111c-3.23,1.087-5.195,2.505-6.028,3.202l5.17,6.721
			c4.345-5.758,8.935-8.862,16.777-8.862C156.766,29.892,158.279,30.067,159.7,30.371z"/>
	</g>
	<g>
		<path d="M115.891,45.181c-0.047-0.119-0.119-0.227-0.215-0.323c-0.144-0.143-0.3-0.239-0.468-0.287
			c-0.168-0.047-0.275-0.071-0.324-0.071H100.69l14.815,4.308l0.385-3.09C115.939,45.48,115.939,45.301,115.891,45.181z"/>
	</g>
	<g>
		<polygon points="125.942,96.102 134.184,85.841 134.184,77.605 127.732,82.036 		"/>
	</g>
	<g>
		<path d="M135.804,54.394l0.498-3.976l-10.241-6.072l-0.915,7.265l10.605,3.083C135.775,54.603,135.792,54.504,135.804,54.394z"/>
	</g>
	<g>
		<path d="M140.011,71.218c-0.264-0.502-0.57-0.978-0.935-1.417c-0.72-0.764-1.509-1.362-2.374-1.792
			c-0.444-0.222-0.872-0.412-1.285-0.577l-26.067,8.429c-0.096,0.451-0.191,0.903-0.256,1.396l-2.057,16.157
			c1.775,2.604,4.833,5.656,10.026,7.832l2.816-22.125c0.096-0.717,0.385-1.147,0.862-1.29c0.48-0.143,0.743-0.215,0.792-0.215
			h6.902c0.095,0,0.214,0.024,0.358,0.072c0.289,0.096,0.503,0.214,0.647,0.357c0.191,0.191,0.287,0.527,0.287,1.004l6.451-4.432
			L140.011,71.218z"/>
	</g>
	<g>
		<path d="M216.973,55.327c0.287-0.144,0.455-0.455,0.503-0.933l0.495-3.932l-11.245,1.906l-0.249,1.954
			c-0.049,0.384,0.024,0.67,0.215,0.861c0.144,0.191,0.312,0.299,0.504,0.323c0.19,0.024,0.311,0.036,0.359,0.036h8.698
			C216.444,55.542,216.685,55.469,216.973,55.327z"/>
	</g>
	<g>
		<path d="M128.006,63.624l25.17-1.312l-9.71,8.37C143.467,70.682,142.984,65.697,128.006,63.624z"/>
	</g>
	<g>
		<polygon points="159.314,88.544 166.764,90.229 171.217,82.901 154.222,82.901 		"/>
	</g>
	<g>
		<polygon points="153.224,82.901 150.86,81.784 150.844,88.544 157.317,88.544 		"/>
	</g>
	<g>
		<path d="M111.537,68.008c-1.414,0.67-2.757,1.721-4.026,3.154c-0.819,0.927-1.424,2.13-1.855,3.555l24.128-7.802
			c-0.517-0.125-0.993-0.214-1.389-0.233c-0.526-0.023-0.815-0.036-0.862-0.036h-10.424c-0.049,0-0.636,0.061-1.761,0.18
			C114.221,66.945,112.95,67.339,111.537,68.008z"/>
	</g>
	<g>
		<path d="M229.912,55.506c0.191,0.024,0.311,0.036,0.359,0.036h8.7c0.191,0,0.431-0.072,0.718-0.215
			c0.288-0.144,0.456-0.455,0.503-0.933l0.978-7.865l-11.242,1.907l-0.734,5.886c-0.049,0.384,0.022,0.67,0.216,0.861
			C229.554,55.374,229.72,55.482,229.912,55.506z"/>
	</g>
	<g>
		<path d="M225.8,2.215c0-0.431-0.072-0.718-0.217-0.861c-0.143-0.19-0.312-0.298-0.503-0.323c-0.191-0.023-0.312-0.036-0.359-0.036
			h-8.699c-0.191,0-0.432,0.085-0.719,0.251c-0.288,0.168-0.455,0.466-0.503,0.896l-2.989,23.525l11.927-7.014L225.8,2.215z"/>
	</g>
	<g>
		<polygon points="233.053,46.407 244.294,44.501 245.695,33.216 234.262,36.722 		"/>
	</g>
	<g>
		<path d="M207.877,33.71c-0.312,0.215-0.706,0.371-1.186,0.466v0.574c0.144,0,0.288,0.024,0.431,0.071
			c0.191,0.096,0.457,0.287,0.792,0.574c0.478,0.573,0.694,1.458,0.647,2.652l-0.747,5.82l11.427-3.504l0.248-1.957
			c0.095-0.907,0.298-1.6,0.61-2.079c0.312-0.477,0.621-0.836,0.936-1.075c0.311-0.24,0.729-0.406,1.259-0.502v-0.574
			c-0.145,0-0.289-0.023-0.432-0.072c-0.098-0.047-0.229-0.108-0.396-0.179c-0.17-0.072-0.3-0.203-0.396-0.395
			c-0.624-0.573-0.815-1.551-0.576-2.939l1.091-8.696l-11.93,7.017l-0.232,1.823c-0.145,0.861-0.358,1.519-0.646,1.972
			C208.489,33.161,208.189,33.494,207.877,33.71z"/>
	</g>
	<g>
		<path d="M276.547,34.398c0.526,0.717,0.694,1.697,0.503,2.939l-0.182,1.64l11.304-1.917l2.164-17.533l-11.484,3.522
			c-0.21,1.672-0.428,3.438-0.651,5.326l-0.217,1.649c-0.145,0.765-0.358,1.362-0.646,1.792c-0.287,0.43-0.587,0.743-0.897,0.932
			c-0.312,0.191-0.709,0.335-1.188,0.431v0.573c0.095,0,0.239,0.025,0.433,0.071C275.972,33.921,276.258,34.111,276.547,34.398z"/>
	</g>
	<g>
		<path d="M248.516,2.071c-0.046-0.095-0.143-0.297-0.287-0.61c-0.145-0.31-0.407-0.466-0.789-0.466h-8.7
			c-0.193,0-0.431,0.085-0.72,0.251c-0.287,0.168-0.457,0.466-0.503,0.896l-1.156,9.088l12.648-7.439L248.516,2.071z"/>
	</g>
	<g>
		<path d="M208.166,66.941c0-0.43-0.072-0.718-0.217-0.86c-0.144-0.191-0.312-0.299-0.504-0.323
			c-0.19-0.023-0.312-0.036-0.358-0.036h-8.699c-0.193,0-0.432,0.084-0.72,0.25c-0.287,0.168-0.457,0.466-0.504,0.897l-1.098,8.639
			l10.506,4.143L208.166,66.941z"/>
	</g>
	<g>
		<path d="M166.772,59.812l4.943-0.859l-4.914-1.42c-1.248,2.066-3.969,4.558-3.969,4.558l12.036,0.806L166.772,59.812z"/>
	</g>
	<g>
		<path d="M289.071,13.606c0.095-0.716,0.384-1.147,0.864-1.291c0.477-0.143,0.742-0.214,0.789-0.214h6.975
			c0.096,0,0.216,0.024,0.358,0.071c0.289,0.097,0.505,0.215,0.647,0.358c0.191,0.287,0.263,0.622,0.217,1.003l-0.248,1.783
			l11.47-3.518c0.313-3.017-0.236-5.428-1.66-7.228c-0.529-0.668-1.127-1.219-1.798-1.648c-0.672-0.431-1.342-0.765-2.013-1.005
			c-0.673-0.238-1.296-0.417-1.87-0.538c-0.573-0.119-1.03-0.179-1.365-0.179c-0.096,0-0.18-0.01-0.252-0.036
			c-0.072-0.023-0.156-0.036-0.252-0.036h-0.216h-10.424h-0.215c-0.098,0-0.182,0.013-0.252,0.036
			c-0.072,0.025-0.158,0.036-0.251,0.036h-0.072c-0.529,0.049-1.33,0.192-2.408,0.43c-1.079,0.24-2.194,0.706-3.344,1.398
			c-1.149,0.693-2.229,1.649-3.234,2.868c-1.007,1.22-1.703,2.833-2.085,4.84c0,0.048-0.038,0.334-0.109,0.861
			c-0.072,0.526-0.168,1.208-0.287,2.043c-0.12,0.836-0.239,1.782-0.358,2.832c-0.121,1.052-0.254,2.127-0.396,3.227
			c-0.095,0.728-0.193,1.487-0.29,2.265l11.482-3.521L289.071,13.606z"/>
	</g>
	<g>
		<polygon points="184.581,43.655 186.574,50.38 196.681,47.281 193.953,38.145 		"/>
	</g>
	<g>
		<path d="M163.305,64.726h-2.021l2.897,2.826l0.201-1.606c0-0.432-0.072-0.718-0.216-0.861c-0.143-0.191-0.312-0.298-0.504-0.323
			C163.473,64.738,163.352,64.726,163.305,64.726z"/>
	</g>
	<g>
		<path d="M198.028,55.506c0.263-0.024,0.491-0.155,0.683-0.395c0.046-0.095,0.096-0.202,0.145-0.322
			c0.046-0.119,0.023-0.275-0.072-0.467l-0.172-0.576l-10.045,1.703c0.147,0.057,0.259,0.093,0.296,0.093h8.698
			C197.607,55.542,197.765,55.53,198.028,55.506z"/>
	</g>
	<g>
		<path d="M190.82,53.569l10.5-1.781l-1.359-4.548l-10.108,3.099l0.927,3.131C190.793,53.506,190.807,53.533,190.82,53.569z"/>
	</g>
	<g>
		<path d="M178.854,47.024l-7.318,4.304c-0.347,1.477-0.866,2.836-1.552,4.138l8.126-2.491L178.854,47.024z"/>
	</g>
	<g>
		<path d="M180.426,54.331c0.289-0.144,0.456-0.455,0.503-0.933l0.043-0.336l-4.838,1.483h3.574
			C179.899,54.546,180.139,54.474,180.426,54.331z"/>
	</g>
	<g>
		<path d="M187.316,66.798c-0.05-0.095-0.145-0.298-0.289-0.61c-0.143-0.311-0.407-0.466-0.79-0.466h-8.7
			c-0.19,0-0.432,0.084-0.718,0.25c-0.289,0.168-0.456,0.466-0.503,0.897l-0.104,0.812l12.805,5.048L187.316,66.798z"/>
	</g>
	<g>
		<path d="M230.703,35.395c0.306,0.337,0.48,0.772,0.554,1.284l11.578-3.549l0.306-2.467l0.633,2.179l20.807-6.38l2.789-22.254
			c0-0.431-0.073-0.718-0.218-0.861c-0.141-0.19-0.311-0.298-0.502-0.323c-0.192-0.023-0.312-0.036-0.359-0.036h-8.697
			c-0.193,0-0.434,0.084-0.72,0.251c-0.289,0.168-0.457,0.466-0.504,0.896l-3.019,23.732l-6.054-21.093l-13.095,7.7l-2.133,16.763
			c-0.144,0.717-0.361,1.28-0.646,1.686c-0.287,0.406-0.576,0.693-0.862,0.859c-0.289,0.168-0.673,0.3-1.151,0.395v0.574
			c0.096,0,0.24,0.024,0.432,0.071C230.127,34.917,230.416,35.107,230.703,35.395z"/>
	</g>
	<g>
		<polygon points="172.556,73.782 172.556,78.4 174.869,72.509 167.563,68.851 169.233,73.683 		"/>
	</g>
	<g>
		<path d="M162.262,97.655c-0.168-0.071-0.301-0.202-0.396-0.396c-0.622-0.573-0.815-1.552-0.575-2.938l0.513-4.093h-11.046
			l-0.539,4.236c-0.142,0.86-0.359,1.519-0.646,1.971c-0.288,0.456-0.589,0.789-0.899,1.005c-0.312,0.215-0.708,0.371-1.188,0.466
			v0.573c0.145,0,0.289,0.024,0.433,0.072c0.191,0.096,0.455,0.286,0.79,0.573c0.479,0.573,0.694,1.458,0.647,2.652l-2.084,16.275
			c-0.049,0.383,0.023,0.67,0.214,0.86c0.145,0.191,0.312,0.299,0.503,0.323s0.312,0.035,0.361,0.035h8.698
			c0.191,0,0.434-0.071,0.72-0.214c0.287-0.145,0.455-0.455,0.503-0.933l2.013-15.988c0.096-0.907,0.299-1.601,0.612-2.08
			c0.311-0.477,0.622-0.835,0.935-1.075c0.31-0.238,0.729-0.405,1.258-0.502v-0.573c-0.144,0-0.288-0.023-0.431-0.071
			C162.56,97.787,162.429,97.727,162.262,97.655z"/>
	</g>
	<g>
		<path d="M88.896,91.238c-0.048,0.383-0.156,0.67-0.323,0.86c-0.169,0.191-0.349,0.323-0.54,0.395
			c-0.192,0.071-0.456,0.132-0.791,0.18h-7.836c-0.192,0-0.313-0.048-0.36-0.145c-0.096-0.095-0.144-0.215-0.144-0.357l0.876-6.748
			L68.33,89.126l-0.643,5.124c-0.144,0.908-0.36,1.602-0.646,2.079c-0.288,0.479-0.588,0.836-0.899,1.075
			c-0.312,0.24-0.731,0.407-1.258,0.502v0.573c0.144,0,0.288,0.024,0.432,0.072c0.19,0.096,0.455,0.286,0.791,0.573
			c0.526,0.573,0.719,1.554,0.575,2.939l-2.013,15.988c-0.048,0.383,0.024,0.67,0.216,0.86c0.144,0.191,0.311,0.299,0.503,0.323
			c0.191,0.024,0.311,0.035,0.359,0.035h8.699c0.191,0,0.431-0.071,0.719-0.214c0.288-0.145,0.455-0.455,0.503-0.933l1.726-13.837
			c0.047-0.287,0.167-0.455,0.359-0.502c0.191-0.049,0.311-0.072,0.36-0.072h9.562c1.102-0.095,2.06-0.239,2.876-0.431
			c0.814-0.189,1.712-0.502,2.695-0.932c0.982-0.43,1.917-1.052,2.804-1.864c0.887-0.812,1.654-1.816,2.301-3.012
			c0.647-1.194,1.088-2.677,1.33-4.445l1.818-14.63l-11.465,3.707L88.896,91.238z"/>
	</g>
	<g>
		<path d="M136.826,48.819l8.072,5.727h3.124L137.286,44.49C137.286,44.49,136.793,48.677,136.826,48.819z"/>
	</g>
	<g>
		<path d="M207.431,98.256c-0.529-0.525-0.72-1.505-0.575-2.938l1.586-12.655l-10.509-4.143l-1.79,14.073l-4.782-16.664
			l-13.281-5.235l-1.273,10.005l28.38,27.688l0.663-5.255h0.072c0.096-0.907,0.286-1.601,0.575-2.079
			c0.286-0.477,0.599-0.835,0.935-1.075c0.335-0.239,0.622-0.382,0.861-0.431c0.24-0.046,0.385-0.071,0.431-0.071v-0.573
			c-0.142,0-0.286-0.023-0.431-0.072C207.957,98.734,207.67,98.543,207.431,98.256z"/>
	</g>
	<g>
		<path d="M114.131,106.797l0.576-4.524c-5.145-2.1-8.267-5.008-10.1-7.396c-0.111,0.571-0.279,1.034-0.505,1.381
			c-0.312,0.478-0.622,0.836-0.934,1.075s-0.731,0.406-1.258,0.502v0.573c0.096,0,0.24,0.024,0.431,0.071
			c0.289,0.097,0.576,0.287,0.862,0.573c0.529,0.67,0.694,1.649,0.503,2.939l-0.79,6.453c-0.385,3.252,0.239,5.784,1.868,7.601
			c0.462,0.521,0.952,0.95,1.463,1.304l7.951-9.9C114.135,107.249,114.103,107.035,114.131,106.797z"/>
	</g>
	<g>
		<polygon points="143.467,85.557 146.382,87.764 150.86,84.041 		"/>
	</g>
	<g>
		<path d="M140.362,98.186c-0.527-0.526-0.718-1.507-0.575-2.94l1.32-10.352h-3.485l-8.924,11.11l-1.492,11.717
			c-0.096,0.765-0.384,1.207-0.862,1.326c-0.48,0.12-0.745,0.18-0.792,0.18h-6.975c-0.095,0-0.214-0.024-0.358-0.071
			c-0.025-0.009-0.041-0.019-0.064-0.025l-7.818,9.732c0.004,0.002,0.007,0.006,0.011,0.008c0.837,0.405,1.641,0.716,2.407,0.932
			c0.766,0.215,1.414,0.335,1.942,0.358c0.526,0.024,0.813,0.036,0.862,0.036h10.424c0.049,0,0.636-0.06,1.763-0.18
			c1.125-0.118,2.395-0.513,3.809-1.184c1.414-0.669,2.756-1.72,4.027-3.154c1.27-1.433,2.071-3.465,2.408-6.095l0.862-6.523
			c0.095-0.907,0.288-1.601,0.575-2.079c0.287-0.478,0.599-0.836,0.934-1.075c0.335-0.239,0.623-0.383,0.864-0.431
			c0.238-0.048,0.383-0.071,0.431-0.071V98.83c-0.048,0-0.205-0.022-0.468-0.072C140.926,98.712,140.651,98.521,140.362,98.186z"/>
	</g>
	<g>
		<path d="M162.104,67.552c-0.148,0.125-0.287,0.244-0.438,0.37l-6.094,5.095l-0.203,1.599h11.019l0.376-2.995l-4.169-4.069H162.104
			z"/>
	</g>
	<g>
		<path d="M290.652,38.693c0,0.239,0.072,0.49,0.217,0.752c0.145,0.264,0.431,0.443,0.862,0.538h4.027l-0.361,3.154
			c-0.143,0.67-0.455,1.1-0.934,1.291c-0.192,0.143-0.432,0.191-0.719,0.143h-6.974c-0.098,0-0.217-0.023-0.36-0.071
			c-0.336-0.095-0.551-0.216-0.646-0.359c-0.242-0.238-0.312-0.574-0.217-1.004l0.5-4.049l-11.291,1.914l-0.425,3.855
			c-0.384,3.059,0.168,5.474,1.653,7.242c0.526,0.67,1.126,1.219,1.798,1.649c0.671,0.43,1.33,0.764,1.979,1.003
			c0.646,0.239,1.258,0.419,1.833,0.538c0.575,0.12,1.053,0.204,1.437,0.251h0.72h19.914c0.24,0,0.491-0.072,0.755-0.215
			c0.264-0.144,0.443-0.431,0.538-0.86c0.434-3.775,0.864-7.289,1.296-10.54c0.19-1.386,0.37-2.784,0.537-4.194
			c0.168-1.409,0.325-2.735,0.468-3.979c0.011-0.093,0.021-0.174,0.032-0.267L290.701,38.3L290.652,38.693z"/>
	</g>
	<g>
		<path d="M309.617,28.125c-0.241-0.119-0.455-0.179-0.646-0.179l-13.948,0.071c-0.479-0.095-0.804-0.011-0.971,0.251
			c-0.168,0.263-0.275,0.514-0.323,0.753l-0.902,7.25l16.584-2.812c0.084-0.725,0.167-1.417,0.243-2.037
			c0.119-0.979,0.227-1.732,0.324-2.258c0.047-0.143,0.047-0.239,0-0.287C309.978,28.496,309.856,28.245,309.617,28.125z"/>
	</g>
	<g>
		<path d="M300.56,16.394v0.081c0.093,0.335,0.252,0.55,0.466,0.646c0.217,0.096,0.42,0.168,0.61,0.215h8.701
			c0.19-0.047,0.43-0.144,0.719-0.287c0.286-0.143,0.454-0.43,0.504-0.861l0.44-3.302L300.56,16.394z"/>
	</g>
	<g>
		<path d="M245.513,65.901c-0.072-0.024-0.156-0.06-0.252-0.107c-0.095-0.047-0.191-0.072-0.287-0.072h-29.547
			c-0.242,0-0.493,0.072-0.755,0.215c-0.266,0.144-0.445,0.455-0.54,0.933l-1.079,8.603c-0.047,0.383,0.023,0.67,0.217,0.861
			c0.143,0.191,0.31,0.298,0.504,0.323c0.19,0.024,0.309,0.036,0.358,0.036h8.628c0.19,0,0.333,0.047,0.43,0.143
			c0.048,0.048,0.073,0.192,0.073,0.43l-1.077,8.54l10.489,4.136l1.587-12.604c0.047-0.287,0.154-0.466,0.324-0.538
			c0.167-0.072,0.298-0.107,0.395-0.107h8.698c0.191,0,0.432-0.072,0.72-0.216c0.287-0.143,0.455-0.454,0.504-0.932l1.078-8.604
			c0.047-0.382-0.025-0.669-0.217-0.86C245.668,65.985,245.584,65.926,245.513,65.901z"/>
	</g>
	<g>
		<path d="M234.821,98.256c-0.528-0.525-0.72-1.505-0.575-2.938l0.296-2.364l-10.486-4.136l-0.81,6.428
			c-0.097,0.908-0.3,1.602-0.612,2.08c-0.312,0.479-0.621,0.836-0.934,1.075s-0.731,0.407-1.258,0.502v0.573
			c0.096,0,0.24,0.025,0.432,0.071c0.287,0.096,0.574,0.286,0.861,0.573c0.529,0.671,0.72,1.65,0.575,2.94l-2.013,15.987
			c-0.049,0.383,0.024,0.671,0.217,0.861c0.144,0.191,0.298,0.299,0.466,0.323s0.277,0.035,0.323,0.035h8.701
			c0.239,0,0.491-0.071,0.755-0.215c0.263-0.144,0.442-0.454,0.537-0.932l2.016-15.989c0.095-0.907,0.286-1.601,0.573-2.079
			c0.289-0.477,0.6-0.835,0.936-1.075c0.333-0.239,0.622-0.382,0.862-0.431c0.239-0.046,0.384-0.071,0.431-0.071v-0.573
			c-0.047,0-0.215-0.023-0.503-0.072C235.324,98.783,235.06,98.592,234.821,98.256z"/>
	</g>
	<g>
		<path d="M251.042,54.466c0.046,0.096,0.145,0.298,0.286,0.609c0.144,0.311,0.408,0.466,0.792,0.466h8.698
			c0.191,0,0.431-0.072,0.72-0.215c0.286-0.144,0.453-0.455,0.503-0.933l1.445-11.48l-15.055,2.553L251.042,54.466z"/>
	</g>
	<g>
		<path d="M267.632,32.534c-0.528-0.525-0.718-1.505-0.575-2.939l0.382-3.046l-20.393,6.254l3.104,10.706l15.461-2.623l0.438-3.476
			h0.073c0.095-0.907,0.288-1.601,0.575-2.079c0.286-0.478,0.598-0.836,0.934-1.076c0.336-0.239,0.622-0.382,0.864-0.431
			c0.237-0.046,0.382-0.071,0.432-0.071V33.18c-0.145,0-0.289-0.024-0.432-0.072C268.158,33.013,267.872,32.821,267.632,32.534z"/>
	</g>
	<g>
		<path d="M171.865,93.971c-0.145,0.717-0.358,1.28-0.646,1.685c-0.287,0.407-0.576,0.694-0.862,0.86
			c-0.289,0.168-0.673,0.3-1.15,0.395v0.574c0.096,0,0.239,0.023,0.432,0.071c0.288,0.096,0.574,0.286,0.862,0.573
			c0.479,0.527,0.672,1.267,0.576,2.224l-2.087,16.704c-0.046,0.383,0.025,0.67,0.217,0.86c0.145,0.191,0.312,0.3,0.503,0.324
			c0.191,0.023,0.312,0.035,0.358,0.035h8.701c0.19,0,0.431-0.072,0.719-0.215c0.286-0.145,0.454-0.455,0.504-0.933l2.946-23.731
			l6.902,23.804c0.046,0.097,0.145,0.298,0.288,0.609c0.143,0.312,0.406,0.466,0.79,0.466h8.699c0.19,0,0.432-0.072,0.719-0.215
			c0.288-0.145,0.454-0.455,0.502-0.933l1.195-9.493l-28.381-27.689L171.865,93.971z"/>
	</g>
	<g>
		<path d="M76.706,78.333c0.047-0.287,0.155-0.466,0.324-0.538c0.167-0.072,0.275-0.106,0.323-0.106h7.836
			c0.096,0,0.215,0.023,0.359,0.07c0.288,0.097,0.503,0.215,0.647,0.359c0.239,0.239,0.312,0.573,0.216,1.003l-0.236,1.896
			l11.461-3.706c0.406-3.015-0.218-5.474-1.879-7.366c-0.671-0.764-1.438-1.373-2.3-1.828c-0.863-0.455-1.666-0.777-2.408-0.969
			c-0.745-0.19-1.391-0.311-1.941-0.358c-0.552-0.047-0.852-0.071-0.899-0.071H68.222c-0.192,0-0.431,0.084-0.718,0.25
			c-0.288,0.168-0.457,0.466-0.503,0.897l-2.528,20.169l11.454-3.704L76.706,78.333z"/>
	</g>
	<g>
		<path d="M125.244,34.398c0.527,0.574,0.72,1.554,0.575,2.939l-0.62,4.935l10.239,6.071l0.983-7.888l-0.606-0.529
			c0.312-0.459,0.622-0.903,0.934-1.336l-9.515-12.37l-0.407,3.303c-0.143,0.908-0.359,1.602-0.646,2.08
			c-0.289,0.478-0.589,0.836-0.899,1.075c-0.312,0.239-0.731,0.407-1.258,0.502v0.573c0.143,0,0.287,0.025,0.431,0.071
			C124.645,33.921,124.908,34.111,125.244,34.398z"/>
	</g>
	<g>
		<path d="M120.52,14.667c0.264-0.144,0.443-0.431,0.541-0.86l1.079-8.676c0-0.431-0.072-0.717-0.217-0.86
			c-0.144-0.191-0.312-0.297-0.503-0.323c-0.193-0.023-0.312-0.036-0.358-0.036h-9.266l8.384,10.898
			C120.291,14.774,120.403,14.73,120.52,14.667z"/>
	</g>
	<g>
		<path d="M97.997,13.535c0.049-0.287,0.156-0.466,0.324-0.538c0.168-0.071,0.275-0.106,0.324-0.106h18.334L108.54,1.919H89.514
			c-0.192,0-0.431,0.084-0.719,0.251c-0.288,0.168-0.456,0.467-0.503,0.896L86.271,19.19l10.206,6.053L97.997,13.535z"/>
	</g>
	<g>
		<path d="M161.04,47.312c0.281-4.435-1.763-5.046-1.763-5.046l-1.617,12.28C157.66,54.546,160.758,51.744,161.04,47.312z"/>
	</g>
	<g>
		<path d="M155.701,61.076l-9.888-2.875l-0.215,1.71c-0.048,0.383,0.024,0.669,0.215,0.86c0.144,0.192,0.312,0.3,0.503,0.323
			c0.191,0.025,0.312,0.037,0.361,0.037h8.699C155.471,61.13,155.58,61.111,155.701,61.076z"/>
	</g>
	<g>
		<path d="M158.534,40.617c-1.058-0.691-2.367-1.05-3.846-1.05c-0.549,0-1.074,0.049-1.582,0.146l4.356,9.414L158.534,40.617z"/>
	</g>
	<g>
		<path d="M156.655,55.39l0.559-4.445l-4.357-9.415c-2.145,0.412-3.962,1.703-5.975,3.938l-0.574,4.607l4.969,6.462h4.155
			c0.191,0,0.431-0.072,0.719-0.214C156.438,56.179,156.606,55.868,156.655,55.39z"/>
	</g>
	<g>
		<path d="M105.402,27.946h-4.364l5.135,3.045l0.236-1.898c0.048-0.333-0.023-0.597-0.215-0.789c-0.144-0.19-0.3-0.297-0.468-0.322
			C105.558,27.958,105.451,27.946,105.402,27.946z"/>
	</g>
	<g>
		<path d="M24.228,28.504c-0.097,0.716-0.384,1.136-0.863,1.254c-0.479,0.121-0.743,0.18-0.791,0.18h-7.836
			c-0.192,0-0.312-0.048-0.359-0.144c-0.096-0.095-0.12-0.215-0.072-0.358l0.966-7.741L4.638,18.603L3.019,31.515
			c-0.096,0.908-0.299,1.602-0.611,2.079c-0.312,0.479-0.624,0.836-0.934,1.076c-0.313,0.239-0.732,0.407-1.259,0.502v0.573
			c0.096,0,0.239,0.025,0.432,0.071c0.288,0.096,0.575,0.287,0.863,0.574c0.527,0.67,0.694,1.649,0.503,2.939L0.072,55.318
			C0.023,55.367,0,55.475,0,55.641c0,0.168,0.047,0.347,0.144,0.538c0.096,0.096,0.203,0.179,0.323,0.25
			c0.12,0.072,0.299,0.108,0.539,0.108h20.059h0.718c0.576-0.047,1.438-0.203,2.589-0.465c1.15-0.263,2.324-0.777,3.522-1.542
			c1.198-0.764,2.288-1.829,3.271-3.19c0.982-1.362,1.618-3.19,1.905-5.485c0-0.095,0.083-0.799,0.252-2.115
			c0.167-1.313,0.347-2.712,0.539-4.194V39.33l0.072-0.143c0.144-1.386-0.12-2.461-0.791-3.227
			c-0.144-0.144-0.359-0.311-0.646-0.502c0.431-0.19,0.898-0.574,1.402-1.147c0.503-0.574,0.826-1.481,0.97-2.725l0.499-4.049
			l-10.633-3.091L24.228,28.504z M22.287,44.062c-0.097,0.717-0.384,1.147-0.862,1.29c-0.48,0.144-0.744,0.215-0.791,0.215h-7.836
			c-0.192,0-0.312-0.047-0.359-0.143c-0.096-0.095-0.12-0.239-0.072-0.43l0.432-3.441c0.047-0.287,0.155-0.454,0.324-0.501
			c0.167-0.048,0.274-0.072,0.323-0.072h8.052c0.335,0,0.599,0.096,0.791,0.287c0.191,0.287,0.263,0.622,0.216,1.003L22.287,44.062z
			"/>
	</g>
	<g>
		<path d="M84.402,35.322c0.526,0.574,0.718,1.554,0.574,2.94l-0.201,1.61l10.61,3.084l0.304-2.472
			c0.047-0.287,0.167-0.454,0.359-0.502c0.191-0.047,0.312-0.072,0.36-0.072h8.7c0.191,0,0.431-0.083,0.717-0.25
			c0.289-0.167,0.457-0.466,0.505-0.897l0.708-5.697l-6.957-4.125h-2.379c-0.193,0-0.312-0.072-0.36-0.215
			c-0.097-0.047-0.144-0.167-0.144-0.358l0.137-1.054l-10.201-6.049l-1.151,9.182c-0.144,0.909-0.36,1.602-0.647,2.079
			c-0.288,0.479-0.587,0.837-0.899,1.076c-0.312,0.24-0.731,0.407-1.258,0.502v0.574c0.144,0,0.288,0.024,0.432,0.072
			C83.802,34.846,84.066,35.037,84.402,35.322z"/>
	</g>
	<g>
		<path d="M72.18,56.537c0.191,0,0.432-0.083,0.719-0.251c0.288-0.167,0.455-0.466,0.503-0.896l1.006-8.029
			c0.144-1.004,0.275-1.996,0.395-2.976c0.12-0.979,0.228-1.852,0.324-2.617c0.095-0.759,0.214-1.615,0.356-2.564L44.73,30.261
			l-0.157,1.254c-0.097,0.908-0.3,1.602-0.611,2.079c-0.312,0.479-0.624,0.836-0.935,1.076c-0.312,0.239-0.731,0.407-1.258,0.502
			v0.573c0.096,0,0.239,0.025,0.431,0.071c0.288,0.096,0.576,0.287,0.863,0.574c0.526,0.67,0.694,1.649,0.503,2.939l-1.941,15.988
			c-0.049,0.049-0.072,0.157-0.072,0.323c0,0.168,0.047,0.347,0.144,0.538c0.095,0.096,0.203,0.179,0.323,0.25
			c0.12,0.072,0.299,0.108,0.539,0.108h8.628c0.527,0,0.886-0.131,1.078-0.395c0.191-0.261,0.288-0.512,0.288-0.753l1.797-13.837
			c0.047-0.287,0.155-0.454,0.324-0.501c0.167-0.048,0.275-0.072,0.323-0.072h8.052c0.335,0,0.599,0.096,0.791,0.287
			c0.191,0.287,0.263,0.622,0.216,1.003l-1.654,13.12c-0.049,0.096-0.049,0.192,0,0.287c0,0.143,0.095,0.311,0.287,0.502
			c0.24,0.24,0.55,0.358,0.935,0.358h8.483H72.18z"/>
	</g>
	<g>
		<path d="M31.785,3.39c-0.863-0.454-1.666-0.777-2.409-0.969c-0.743-0.189-1.378-0.311-1.904-0.358
			c-0.528-0.048-0.816-0.072-0.863-0.072H6.55c-0.192,0-0.42,0.084-0.683,0.251C5.604,2.411,5.423,2.708,5.328,3.139L3.765,15.611
			l10.634,3.092l0.635-5.096c0.046-0.287,0.155-0.465,0.323-0.538c0.167-0.072,0.299-0.107,0.396-0.107h7.765
			c0.096,0,0.216,0.024,0.36,0.071c0.288,0.096,0.503,0.215,0.646,0.359c0.24,0.239,0.312,0.574,0.215,1.003l-0.879,7.059
			l10.632,3.092l1.462-11.871c0.432-3.058-0.168-5.545-1.797-7.457C33.438,4.454,32.647,3.845,31.785,3.39z"/>
	</g>
	<g>
		<path d="M83.683,56.429c0.191,0.025,0.312,0.036,0.359,0.036h29.549c0.191,0,0.431-0.072,0.718-0.215
			c0.289-0.144,0.456-0.431,0.502-0.861l0.57-4.585l-18.258-5.309h-1.362c-0.192,0-0.336-0.048-0.432-0.144
			c-0.048-0.046-0.072-0.167-0.072-0.358l0.005-0.04L84.65,41.869l-1.686,13.449c-0.048,0.335,0.023,0.599,0.216,0.789
			C83.323,56.298,83.491,56.406,83.683,56.429z"/>
	</g>
	<g>
		<path d="M74.696,34.964c-0.144-0.144-0.359-0.31-0.647-0.501c0.431-0.191,0.898-0.574,1.402-1.147
			c0.503-0.574,0.827-1.481,0.971-2.725l1.8-14.61L56.311,2.987h-7.208c-0.192,0-0.42,0.084-0.683,0.251
			c-0.264,0.168-0.444,0.466-0.54,0.896l-3.024,24.129l30.658,8.916C75.465,36.271,75.193,35.532,74.696,34.964z M67.291,15.391
			l-1.509,12.117c-0.097,0.717-0.384,1.135-0.863,1.254c-0.479,0.121-0.743,0.18-0.791,0.18h-7.836
			c-0.192,0-0.312-0.048-0.359-0.144c-0.097-0.095-0.12-0.214-0.072-0.357l1.726-13.838c0.046-0.287,0.155-0.466,0.323-0.538
			c0.168-0.072,0.299-0.106,0.396-0.106h7.765c0.095,0,0.216,0.024,0.359,0.07c0.288,0.096,0.503,0.215,0.647,0.359
			C67.315,14.626,67.387,14.961,67.291,15.391z"/>
	</g>
	<g>
		<path d="M76.509,10.683c0.432-3.058-0.168-5.544-1.797-7.457c-0.719-0.764-1.51-1.373-2.373-1.828
			c-0.863-0.454-1.666-0.777-2.409-0.969c-0.743-0.189-1.378-0.31-1.905-0.357C67.499,0.024,67.21,0,67.164,0H56.267l20.091,11.913
			L76.509,10.683z"/>
	</g>
</g>
<g>
	<rect x="1.382" y="138.107" width="73.589" height="3.689"/>
	<rect x="236.93" y="138.107" width="73.59" height="3.689"/>
</g>
</svg>
