<?xml version="1.0" encoding="utf-8"?>
<!-- Generator: Adobe Illustrator 16.2.1, SVG Export Plug-In . SVG Version: 6.00 Build 0)  -->
<!DOCTYPE svg PUBLIC "-//W3C//DTD SVG 1.1//EN" "http://www.w3.org/Graphics/SVG/1.1/DTD/svg11.dtd">
<svg version="1.1" id="Layer_1" xmlns="http://www.w3.org/2000/svg" xmlns:xlink="http://www.w3.org/1999/xlink" x="0px" y="0px"
	 width="148px" height="56px" viewBox="0 0 148 56" enable-background="new 0 0 148 56" xml:space="preserve">
<g>
	<g>
		<path fill="#FFFFFF" d="M67.29,12.444l0.727-5.716c0.022-0.156,0.071-0.284,0.15-0.384c0.078-0.1,0.16-0.172,0.25-0.217
			c0.088-0.044,0.211-0.078,0.367-0.099h3.235c0.043,0,0.099,0.011,0.166,0.033c0.134,0.045,0.234,0.1,0.3,0.167
			c0.111,0.111,0.144,0.267,0.1,0.466l-0.648,5.104c1.456,0.024,3.129,0.234,5.036,0.724l0.814-6.627
			c0.197-1.467-0.09-2.634-0.866-3.501c-0.313-0.355-0.669-0.634-1.069-0.834c-0.398-0.2-0.771-0.35-1.115-0.449
			c-0.346-0.101-0.646-0.156-0.9-0.167c-0.254-0.011-0.395-0.017-0.415-0.017h-4.835c-0.512,0.044-0.957,0.111-1.334,0.2
			C66.871,1.216,66.46,1.36,66.016,1.56c-0.444,0.2-0.872,0.484-1.284,0.851c-0.411,0.367-0.772,0.833-1.083,1.4
			c-0.312,0.566-0.523,1.25-0.634,2.051l-0.698,5.677l1.937,2.524C64.694,13.686,65.683,12.972,67.29,12.444z"/>
	</g>
	<g>
		<path fill="#FFFFFF" d="M82.9,22.336l3.349-1.975l0.301-2.428c0.022-0.134,0.079-0.21,0.168-0.233
			c0.087-0.021,0.144-0.033,0.166-0.033h1.101c0.045,0,0.102,0.012,0.168,0.033c0.109,0.044,0.201,0.132,0.268,0.266l0.28,0.95
			l4.344-2.562l-0.79-2.656c-0.046-0.111-0.068-0.244-0.068-0.4c0-0.11,0.014-0.255,0.033-0.433c0.022-0.178,0.09-0.356,0.201-0.534
			l2.484-4.743c-1.174-1.244-2.815-2.066-3.978-2.532l-3.542,6.776c-0.021,0.022-0.033,0.044-0.033,0.066s-0.013,0.045-0.033,0.066
			v-0.066l0.533-4.235l-5.785,5.464l-0.016,0.139c-0.068,0.422-0.168,0.745-0.301,0.966c-0.135,0.223-0.271,0.389-0.417,0.5
			c-0.136,0.104-0.317,0.177-0.543,0.223c1.437,1.344,2.237,3.305,2.237,5.694C83.027,21.253,82.984,21.811,82.9,22.336z"/>
	</g>
	<g>
		<path fill="#FFFFFF" d="M81.723,22.426c0,0,0.924-3.632-1.783-7.228l-1.783,0.752C78.154,15.951,81.758,17.701,81.723,22.426z"/>
	</g>
	<g>
		<polygon fill="#FFFFFF" points="105.309,18.811 100.007,20.441 99.627,23.41 104.842,22.523 		"/>
	</g>
	<g>
		<path fill="#FFFFFF" d="M99.248,1.063c0.089-0.155,0.1-0.299,0.033-0.433c-0.047-0.089-0.112-0.139-0.201-0.15
			c-0.09-0.011-0.146-0.017-0.166-0.017h-4.168c-0.089,0-0.18,0.023-0.268,0.067c-0.201,0.089-0.356,0.222-0.467,0.4l-1.939,3.708
			c1.166,0.467,2.779,1.277,3.986,2.511L99.248,1.063z"/>
	</g>
	<g>
		<path fill="#FFFFFF" d="M87.759,1.03c0-0.2-0.032-0.333-0.102-0.399c-0.066-0.089-0.144-0.139-0.231-0.15
			c-0.089-0.011-0.146-0.017-0.168-0.017h-4.033c-0.088,0-0.201,0.04-0.334,0.117c-0.132,0.078-0.211,0.217-0.233,0.417
			L81.23,12.406l5.785-5.465L87.759,1.03z"/>
	</g>
	<g>
		<polygon fill="#FFFFFF" points="69.884,35.704 73.104,35.704 73.104,33.719 		"/>
	</g>
	<g>
		<path fill="#FFFFFF" d="M76.368,14.124l0.084-0.673c-1.915-0.495-3.59-0.697-5.04-0.711l-0.059,0.453
			c-0.021,0.133-0.071,0.212-0.149,0.234c-0.079,0.021-0.128,0.033-0.15,0.033H67.02c-0.075,0-0.121-0.019-0.149-0.051
			c-1.497,0.505-2.409,1.165-2.795,1.488l2.398,3.125c2.016-2.677,4.143-4.121,7.78-4.121
			C75.008,13.901,75.708,13.982,76.368,14.124z"/>
	</g>
	<g>
		<path fill="#FFFFFF" d="M56.051,21.011c-0.021-0.056-0.055-0.106-0.1-0.15c-0.067-0.066-0.14-0.111-0.217-0.134
			c-0.078-0.021-0.127-0.033-0.15-0.033h-6.583l6.872,2.004l0.178-1.438C56.073,21.15,56.073,21.067,56.051,21.011z"/>
	</g>
	<g>
		<polygon fill="#FFFFFF" points="60.712,44.689 64.534,39.919 64.534,36.09 61.542,38.148 		"/>
	</g>
	<g>
		<path fill="#FFFFFF" d="M65.286,25.295l0.23-1.848l-4.749-2.824l-0.424,3.378l4.918,1.434
			C65.272,25.393,65.281,25.346,65.286,25.295z"/>
	</g>
	<g>
		<path fill="#FFFFFF" d="M67.236,33.119c-0.122-0.233-0.264-0.454-0.433-0.659c-0.334-0.354-0.7-0.633-1.101-0.834
			c-0.207-0.103-0.404-0.19-0.597-0.269l-12.088,3.92c-0.045,0.212-0.089,0.42-0.119,0.649l-0.954,7.515
			c0.823,1.211,2.241,2.629,4.65,3.643L57.9,36.795c0.044-0.333,0.178-0.534,0.399-0.602c0.223-0.065,0.345-0.1,0.368-0.1h3.201
			c0.044,0,0.099,0.012,0.167,0.033c0.134,0.045,0.233,0.1,0.3,0.167c0.088,0.089,0.133,0.244,0.133,0.467L65.46,34.7L67.236,33.119
			z"/>
	</g>
	<g>
		<path fill="#FFFFFF" d="M102.93,25.729c0.133-0.067,0.213-0.211,0.234-0.434l0.229-1.828l-5.215,0.886l-0.117,0.909
			c-0.022,0.178,0.01,0.312,0.1,0.399c0.066,0.089,0.146,0.14,0.234,0.15c0.088,0.011,0.146,0.017,0.168,0.017h4.033
			C102.686,25.829,102.795,25.795,102.93,25.729z"/>
	</g>
	<g>
		<path fill="#FFFFFF" d="M61.669,29.587l11.674-0.608L68.84,32.87C68.839,32.87,68.616,30.552,61.669,29.587z"/>
	</g>
	<g>
		<polygon fill="#FFFFFF" points="76.189,41.177 79.645,41.96 81.71,38.552 73.827,38.552 		"/>
	</g>
	<g>
		<polygon fill="#FFFFFF" points="73.366,38.552 72.268,38.032 72.261,41.177 75.264,41.177 		"/>
	</g>
	<g>
		<path fill="#FFFFFF" d="M54.032,31.626c-0.656,0.312-1.279,0.801-1.868,1.467c-0.38,0.433-0.66,0.99-0.86,1.653l11.19-3.628
			c-0.24-0.06-0.461-0.101-0.644-0.108c-0.245-0.011-0.378-0.018-0.4-0.018h-4.834c-0.023,0-0.295,0.029-0.817,0.084
			C55.276,31.132,54.687,31.314,54.032,31.626z"/>
	</g>
	<g>
		<path fill="#FFFFFF" d="M108.932,25.812c0.09,0.011,0.144,0.017,0.166,0.017h4.035c0.09,0,0.198-0.033,0.331-0.099
			c0.136-0.068,0.214-0.211,0.234-0.435l0.452-3.657l-5.211,0.887l-0.342,2.737c-0.022,0.178,0.01,0.312,0.1,0.399
			C108.764,25.751,108.843,25.802,108.932,25.812z"/>
	</g>
	<g>
		<path fill="#FFFFFF" d="M107.023,1.03c0-0.2-0.035-0.333-0.102-0.399c-0.066-0.089-0.146-0.139-0.232-0.15
			c-0.088-0.011-0.145-0.017-0.168-0.017h-4.032c-0.089,0-0.201,0.04-0.333,0.117c-0.135,0.078-0.213,0.217-0.234,0.417
			l-1.385,10.94l5.529-3.262L107.023,1.03z"/>
	</g>
	<g>
		<polygon fill="#FFFFFF" points="110.389,21.582 115.6,20.695 116.252,15.446 110.948,17.077 		"/>
	</g>
	<g>
		<path fill="#FFFFFF" d="M98.71,15.677c-0.146,0.1-0.325,0.172-0.55,0.217v0.267c0.066,0,0.135,0.01,0.201,0.033
			c0.09,0.043,0.212,0.132,0.367,0.266c0.222,0.266,0.319,0.678,0.299,1.233L98.684,20.4l5.299-1.629l0.115-0.91
			c0.045-0.421,0.137-0.745,0.281-0.966c0.146-0.223,0.29-0.39,0.436-0.5c0.144-0.111,0.34-0.188,0.584-0.233v-0.267
			c-0.066,0-0.135-0.01-0.201-0.033c-0.043-0.023-0.104-0.051-0.184-0.084c-0.08-0.033-0.139-0.094-0.185-0.184
			c-0.287-0.267-0.376-0.722-0.267-1.367l0.506-4.043l-5.533,3.262l-0.105,0.849c-0.066,0.4-0.166,0.706-0.302,0.917
			C98.995,15.421,98.855,15.576,98.71,15.677z"/>
	</g>
	<g>
		<path fill="#FFFFFF" d="M130.559,15.997c0.246,0.333,0.321,0.789,0.231,1.367l-0.084,0.763l5.243-0.891l1.003-8.154l-5.324,1.638
			c-0.099,0.778-0.198,1.599-0.303,2.477l-0.101,0.767c-0.067,0.356-0.168,0.634-0.3,0.833c-0.136,0.201-0.272,0.346-0.418,0.434
			c-0.146,0.089-0.327,0.155-0.55,0.2v0.268c0.043,0,0.111,0.011,0.201,0.033C130.291,15.775,130.424,15.863,130.559,15.997z"/>
	</g>
	<g>
		<path fill="#FFFFFF" d="M117.559,0.964c-0.021-0.045-0.065-0.139-0.133-0.284c-0.066-0.144-0.188-0.216-0.367-0.216h-4.035
			c-0.09,0-0.198,0.04-0.334,0.117c-0.131,0.078-0.211,0.217-0.23,0.417l-0.537,4.227l5.866-3.46L117.559,0.964z"/>
	</g>
	<g>
		<path fill="#FFFFFF" d="M98.846,31.13c0-0.2-0.033-0.334-0.103-0.399c-0.065-0.09-0.146-0.14-0.231-0.149
			c-0.089-0.011-0.146-0.017-0.168-0.017h-4.033c-0.088,0-0.201,0.039-0.332,0.117c-0.137,0.076-0.215,0.215-0.234,0.416
			l-0.51,4.018l4.873,1.927L98.846,31.13z"/>
	</g>
	<g>
		<path fill="#FFFFFF" d="M79.646,27.814l2.295-0.399l-2.279-0.66c-0.58,0.961-1.842,2.12-1.842,2.12l5.582,0.374L79.646,27.814z"/>
	</g>
	<g>
		<path fill="#FFFFFF" d="M136.366,6.328c0.044-0.334,0.179-0.534,0.399-0.601c0.223-0.066,0.346-0.1,0.366-0.1h3.234
			c0.045,0,0.102,0.011,0.168,0.034c0.132,0.044,0.233,0.099,0.3,0.166c0.087,0.133,0.122,0.29,0.1,0.466l-0.113,0.83l5.318-1.635
			c0.146-1.403-0.109-2.524-0.77-3.362c-0.247-0.311-0.523-0.567-0.835-0.767c-0.312-0.2-0.621-0.355-0.933-0.467
			c-0.312-0.111-0.602-0.194-0.869-0.25c-0.265-0.056-0.479-0.083-0.633-0.083c-0.043,0-0.082-0.004-0.115-0.017
			c-0.035-0.011-0.073-0.017-0.116-0.017h-0.103h-4.832h-0.101c-0.046,0-0.084,0.006-0.117,0.017
			c-0.032,0.012-0.073,0.017-0.116,0.017h-0.033c-0.244,0.022-0.616,0.089-1.117,0.2c-0.499,0.111-1.02,0.329-1.551,0.651
			c-0.532,0.323-1.035,0.767-1.5,1.333c-0.467,0.566-0.789,1.317-0.967,2.25c0,0.022-0.02,0.156-0.053,0.4
			c-0.033,0.245-0.076,0.562-0.132,0.95c-0.058,0.389-0.112,0.829-0.166,1.317c-0.056,0.489-0.117,0.989-0.183,1.5
			c-0.047,0.339-0.092,0.692-0.137,1.054l5.324-1.637L136.366,6.328z"/>
	</g>
	<g>
		<polygon fill="#FFFFFF" points="87.907,20.301 88.831,23.429 93.52,21.988 92.253,17.739 		"/>
	</g>
	<g>
		<path fill="#FFFFFF" d="M78.04,30.102h-0.937l1.345,1.313l0.091-0.747c0-0.201-0.032-0.334-0.1-0.4
			c-0.065-0.09-0.146-0.139-0.233-0.15C78.117,30.105,78.061,30.102,78.04,30.102z"/>
	</g>
	<g>
		<path fill="#FFFFFF" d="M94.143,25.812c0.123-0.01,0.229-0.071,0.318-0.183c0.021-0.045,0.043-0.094,0.066-0.149
			c0.021-0.056,0.01-0.128-0.033-0.217l-0.079-0.269l-4.659,0.792c0.068,0.027,0.119,0.043,0.137,0.043h4.033
			C93.949,25.829,94.021,25.823,94.143,25.812z"/>
	</g>
	<g>
		<path fill="#FFFFFF" d="M90.8,24.912l4.87-0.829l-0.631-2.114l-4.688,1.441l0.43,1.457C90.787,24.883,90.794,24.896,90.8,24.912z"
			/>
	</g>
	<g>
		<path fill="#FFFFFF" d="M85.251,21.869l-3.394,2c-0.16,0.688-0.402,1.32-0.721,1.925l3.771-1.158L85.251,21.869z"/>
	</g>
	<g>
		<path fill="#FFFFFF" d="M85.979,25.266c0.135-0.066,0.211-0.211,0.234-0.433l0.021-0.157l-2.246,0.69h1.656
			C85.734,25.366,85.848,25.332,85.979,25.266z"/>
	</g>
	<g>
		<path fill="#FFFFFF" d="M89.175,31.062c-0.022-0.045-0.065-0.139-0.132-0.283s-0.191-0.217-0.367-0.217h-4.035
			c-0.09,0-0.199,0.039-0.334,0.117c-0.133,0.077-0.211,0.217-0.23,0.416l-0.049,0.379l5.938,2.348L89.175,31.062z"/>
	</g>
	<g>
		<path fill="#FFFFFF" d="M109.298,16.46c0.142,0.156,0.222,0.359,0.259,0.597l5.366-1.65l0.144-1.148l0.293,1.013l9.648-2.966
			l1.294-10.349c0-0.2-0.032-0.333-0.1-0.4c-0.066-0.088-0.146-0.139-0.234-0.15c-0.089-0.011-0.145-0.017-0.165-0.017h-4.035
			c-0.09,0-0.199,0.039-0.334,0.116c-0.133,0.079-0.211,0.217-0.231,0.417l-1.4,11.036l-2.808-9.81l-6.073,3.582l-0.987,7.795
			c-0.068,0.333-0.168,0.596-0.301,0.784c-0.135,0.188-0.268,0.322-0.4,0.4c-0.135,0.078-0.312,0.139-0.533,0.184v0.267
			c0.046,0,0.111,0.01,0.201,0.033C109.031,16.237,109.163,16.326,109.298,16.46z"/>
	</g>
	<g>
		<polygon fill="#FFFFFF" points="82.331,34.312 82.331,36.459 83.402,33.719 80.014,32.02 80.79,34.266 		"/>
	</g>
	<g>
		<path fill="#FFFFFF" d="M77.557,45.414c-0.078-0.033-0.14-0.096-0.184-0.184c-0.29-0.269-0.379-0.724-0.268-1.367l0.236-1.903
			H72.22l-0.25,1.97c-0.066,0.4-0.167,0.707-0.299,0.916c-0.135,0.213-0.274,0.367-0.417,0.469c-0.146,0.101-0.329,0.172-0.55,0.218
			v0.266c0.066,0,0.132,0.013,0.2,0.033c0.089,0.045,0.211,0.134,0.367,0.267c0.223,0.268,0.322,0.678,0.3,1.234l-0.968,7.566
			c-0.021,0.179,0.012,0.312,0.101,0.401c0.066,0.089,0.144,0.14,0.233,0.149c0.088,0.012,0.144,0.017,0.167,0.017h4.035
			c0.088,0,0.2-0.032,0.332-0.101c0.133-0.065,0.213-0.211,0.234-0.434l0.934-7.436c0.045-0.422,0.139-0.744,0.284-0.967
			c0.144-0.223,0.287-0.389,0.433-0.5c0.146-0.111,0.34-0.188,0.584-0.233v-0.267c-0.066,0-0.133-0.012-0.198-0.033
			C77.693,45.475,77.633,45.447,77.557,45.414z"/>
	</g>
	<g>
		<path fill="#FFFFFF" d="M43.531,42.43c-0.023,0.18-0.072,0.312-0.15,0.399c-0.078,0.09-0.162,0.149-0.25,0.185
			c-0.089,0.032-0.212,0.062-0.366,0.084H39.13c-0.089,0-0.146-0.022-0.167-0.068c-0.044-0.045-0.066-0.1-0.066-0.166l0.406-3.137
			l-5.31,1.722l-0.298,2.383c-0.066,0.423-0.167,0.745-0.3,0.966c-0.133,0.225-0.272,0.391-0.417,0.501
			c-0.145,0.112-0.339,0.188-0.583,0.234v0.266c0.066,0,0.133,0.013,0.2,0.033c0.088,0.045,0.211,0.134,0.367,0.267
			c0.245,0.268,0.333,0.723,0.266,1.367L32.295,54.9c-0.022,0.178,0.012,0.312,0.101,0.4c0.066,0.09,0.144,0.139,0.233,0.149
			c0.088,0.012,0.144,0.017,0.167,0.017h4.034c0.089,0,0.2-0.033,0.333-0.101c0.133-0.065,0.211-0.21,0.233-0.433l0.8-6.437
			c0.022-0.132,0.078-0.211,0.167-0.231c0.088-0.022,0.145-0.033,0.167-0.033h4.435c0.51-0.045,0.955-0.112,1.333-0.2
			c0.378-0.089,0.794-0.234,1.25-0.435c0.456-0.199,0.889-0.488,1.301-0.867c0.411-0.377,0.766-0.845,1.067-1.399
			c0.3-0.556,0.504-1.245,0.617-2.067l0.843-6.804l-5.317,1.724L43.531,42.43z"/>
	</g>
	<g>
		<path fill="#FFFFFF" d="M65.76,22.702l3.744,2.665h1.449l-4.979-4.676C65.974,20.69,65.744,22.637,65.76,22.702z"/>
	</g>
	<g>
		<path fill="#FFFFFF" d="M98.504,45.691c-0.244-0.242-0.333-0.697-0.268-1.365l0.736-5.885L94.1,36.516l-0.83,6.543l-2.218-7.748
			l-6.159-2.436l-0.591,4.652l13.161,12.877l0.309-2.444h0.033c0.043-0.421,0.133-0.743,0.268-0.966
			c0.133-0.225,0.277-0.389,0.433-0.501c0.155-0.111,0.288-0.179,0.399-0.199c0.111-0.022,0.179-0.033,0.199-0.033v-0.268
			c-0.066,0-0.133-0.013-0.199-0.033C98.749,45.915,98.616,45.826,98.504,45.691z"/>
	</g>
	<g>
		<path fill="#FFFFFF" d="M55.235,49.665l0.267-2.104c-2.386-0.976-3.834-2.328-4.684-3.439c-0.051,0.268-0.129,0.48-0.234,0.645
			c-0.145,0.223-0.289,0.389-0.433,0.5c-0.145,0.111-0.339,0.188-0.583,0.232v0.268c0.044,0,0.111,0.012,0.2,0.032
			c0.133,0.045,0.266,0.134,0.399,0.267c0.245,0.312,0.322,0.769,0.233,1.367l-0.367,3c-0.178,1.514,0.111,2.69,0.867,3.534
			c0.214,0.243,0.441,0.442,0.679,0.607l3.687-4.604C55.236,49.875,55.221,49.775,55.235,49.665z"/>
	</g>
	<g>
		<polygon fill="#FFFFFF" points="68.839,39.787 70.191,40.812 72.268,39.083 		"/>
	</g>
	<g>
		<path fill="#FFFFFF" d="M67.399,45.659c-0.244-0.244-0.333-0.7-0.266-1.365l0.612-4.815h-1.617l-4.139,5.166l-0.691,5.449
			c-0.045,0.356-0.178,0.562-0.4,0.617c-0.223,0.057-0.346,0.083-0.368,0.083h-3.233c-0.044,0-0.1-0.01-0.167-0.033
			c-0.011-0.004-0.019-0.008-0.03-0.012l-3.626,4.526c0.002,0,0.003,0.002,0.006,0.004c0.388,0.188,0.76,0.332,1.115,0.434
			c0.356,0.1,0.656,0.155,0.901,0.166c0.245,0.014,0.377,0.018,0.4,0.018h4.834c0.023,0,0.295-0.027,0.818-0.084
			c0.521-0.056,1.111-0.238,1.767-0.549c0.655-0.312,1.278-0.802,1.867-1.469c0.589-0.666,0.961-1.609,1.117-2.834l0.4-3.034
			c0.044-0.423,0.134-0.743,0.267-0.968c0.133-0.221,0.278-0.387,0.433-0.499c0.156-0.11,0.289-0.178,0.401-0.199
			c0.111-0.022,0.177-0.034,0.2-0.034V45.96c-0.023,0-0.095-0.012-0.217-0.034C67.661,45.904,67.534,45.816,67.399,45.659z"/>
	</g>
	<g>
		<path fill="#FFFFFF" d="M77.482,31.415c-0.068,0.058-0.133,0.112-0.203,0.172l-2.826,2.369l-0.094,0.743h5.109l0.177-1.393
			l-1.937-1.893L77.482,31.415L77.482,31.415z"/>
	</g>
	<g>
		<path fill="#FFFFFF" d="M137.1,17.994c0,0.11,0.033,0.228,0.101,0.35c0.067,0.122,0.2,0.205,0.399,0.25h1.868l-0.168,1.468
			c-0.065,0.311-0.211,0.51-0.433,0.6c-0.09,0.066-0.199,0.089-0.334,0.066H135.3c-0.046,0-0.1-0.01-0.168-0.033
			c-0.155-0.045-0.255-0.101-0.298-0.167c-0.111-0.111-0.146-0.267-0.102-0.466l0.23-1.883l-5.234,0.89l-0.196,1.792
			c-0.179,1.423,0.077,2.546,0.767,3.367c0.245,0.312,0.521,0.567,0.833,0.768c0.312,0.2,0.618,0.355,0.916,0.466
			c0.302,0.112,0.586,0.196,0.851,0.251c0.269,0.055,0.49,0.094,0.668,0.116h0.334h9.234c0.111,0,0.229-0.033,0.352-0.099
			c0.123-0.068,0.203-0.201,0.25-0.4c0.201-1.757,0.398-3.39,0.601-4.901c0.09-0.645,0.171-1.295,0.25-1.951
			c0.076-0.655,0.149-1.273,0.216-1.851c0.006-0.043,0.012-0.082,0.016-0.124l-7.693,1.308L137.1,17.994z"/>
	</g>
	<g>
		<path fill="#FFFFFF" d="M145.895,13.08c-0.111-0.055-0.211-0.083-0.297-0.083l-6.471,0.032c-0.223-0.044-0.372-0.004-0.451,0.117
			c-0.076,0.122-0.127,0.239-0.15,0.35l-0.416,3.373l7.688-1.309c0.041-0.336,0.079-0.658,0.114-0.947
			c0.057-0.455,0.104-0.805,0.15-1.05c0.021-0.067,0.021-0.111,0-0.133C146.062,13.251,146.007,13.135,145.895,13.08z"/>
	</g>
	<g>
		<path fill="#FFFFFF" d="M141.693,7.624v0.038c0.045,0.156,0.117,0.256,0.217,0.3c0.102,0.044,0.195,0.078,0.285,0.099h4.033
			c0.088-0.021,0.201-0.066,0.332-0.133c0.133-0.067,0.211-0.2,0.234-0.4L147,5.993L141.693,7.624z"/>
	</g>
	<g>
		<path fill="#FFFFFF" d="M116.165,30.646c-0.033-0.011-0.071-0.026-0.117-0.049c-0.043-0.022-0.086-0.033-0.132-0.033h-13.704
			c-0.112,0-0.229,0.033-0.349,0.101c-0.125,0.065-0.206,0.211-0.252,0.433l-0.5,4.002c-0.022,0.178,0.011,0.312,0.1,0.399
			c0.066,0.089,0.146,0.14,0.234,0.149c0.09,0.012,0.143,0.017,0.166,0.017h4.002c0.09,0,0.156,0.022,0.199,0.065
			c0.021,0.023,0.033,0.09,0.033,0.201l-0.5,3.973l4.865,1.923l0.736-5.861c0.021-0.134,0.07-0.217,0.15-0.249
			c0.075-0.035,0.137-0.052,0.182-0.052h4.033c0.09,0,0.201-0.032,0.334-0.099c0.136-0.067,0.211-0.213,0.234-0.436l0.499-4.001
			c0.022-0.177-0.011-0.312-0.101-0.399C116.238,30.688,116.198,30.658,116.165,30.646z"/>
	</g>
	<g>
		<path fill="#FFFFFF" d="M111.208,45.691c-0.245-0.242-0.334-0.697-0.269-1.365l0.139-1.1l-4.863-1.922l-0.374,2.988
			c-0.046,0.421-0.141,0.743-0.284,0.966c-0.146,0.224-0.289,0.39-0.435,0.5c-0.146,0.111-0.338,0.188-0.583,0.233v0.268
			c0.044,0,0.111,0.012,0.199,0.033c0.135,0.044,0.267,0.133,0.398,0.266c0.247,0.312,0.334,0.769,0.268,1.367l-0.932,7.436
			c-0.022,0.179,0.01,0.312,0.1,0.4c0.066,0.088,0.138,0.139,0.217,0.149c0.076,0.011,0.127,0.019,0.15,0.019h4.033
			c0.11,0,0.229-0.035,0.351-0.102s0.206-0.211,0.25-0.436l0.935-7.435c0.043-0.421,0.133-0.743,0.266-0.966
			c0.135-0.225,0.279-0.389,0.436-0.501c0.154-0.111,0.287-0.179,0.398-0.199c0.113-0.022,0.18-0.033,0.199-0.033v-0.268
			c-0.021,0-0.1-0.013-0.231-0.033C111.439,45.938,111.316,45.85,111.208,45.691z"/>
	</g>
	<g>
		<path fill="#FFFFFF" d="M118.729,25.33c0.022,0.044,0.065,0.137,0.133,0.283c0.068,0.145,0.19,0.216,0.369,0.216h4.033
			c0.09,0,0.198-0.033,0.334-0.099c0.131-0.068,0.211-0.211,0.233-0.435l0.669-5.338l-6.98,1.187L118.729,25.33z"/>
	</g>
	<g>
		<path fill="#FFFFFF" d="M126.424,15.129c-0.244-0.244-0.334-0.7-0.268-1.367l0.179-1.416l-9.459,2.908l1.44,4.979l7.17-1.22
			l0.203-1.617h0.033c0.043-0.421,0.135-0.744,0.269-0.966c0.132-0.222,0.276-0.39,0.433-0.5c0.156-0.11,0.288-0.177,0.399-0.2
			c0.112-0.022,0.179-0.033,0.2-0.033V15.43c-0.065,0-0.135-0.01-0.2-0.033C126.668,15.352,126.536,15.263,126.424,15.129z"/>
	</g>
	<g>
		<path fill="#FFFFFF" d="M82.01,43.7c-0.066,0.334-0.164,0.595-0.3,0.784c-0.133,0.188-0.269,0.322-0.399,0.398
			c-0.133,0.078-0.312,0.141-0.533,0.184v0.268c0.045,0,0.109,0.012,0.199,0.033c0.135,0.044,0.268,0.133,0.399,0.267
			c0.222,0.245,0.313,0.591,0.269,1.034l-0.969,7.77c-0.021,0.178,0.014,0.312,0.102,0.398c0.066,0.089,0.144,0.139,0.232,0.15
			c0.09,0.012,0.145,0.017,0.168,0.017h4.033c0.089,0,0.201-0.032,0.333-0.101c0.136-0.066,0.212-0.211,0.233-0.434l1.367-11.037
			l3.201,11.07c0.021,0.044,0.065,0.139,0.133,0.283c0.065,0.146,0.188,0.217,0.367,0.217h4.034c0.087,0,0.198-0.033,0.334-0.1
			c0.132-0.067,0.208-0.211,0.231-0.435L96,50.053L82.838,37.178L82.01,43.7z"/>
	</g>
	<g>
		<path fill="#FFFFFF" d="M37.877,36.43c0.022-0.135,0.073-0.218,0.15-0.252c0.078-0.033,0.128-0.05,0.15-0.05h3.635
			c0.044,0,0.1,0.013,0.167,0.033c0.133,0.044,0.233,0.1,0.299,0.167c0.111,0.109,0.145,0.268,0.101,0.467l-0.11,0.881l5.315-1.724
			c0.188-1.401-0.102-2.545-0.872-3.425c-0.311-0.356-0.667-0.639-1.067-0.852c-0.4-0.211-0.772-0.361-1.117-0.449
			c-0.345-0.09-0.645-0.146-0.9-0.168c-0.256-0.021-0.395-0.033-0.417-0.033h-9.269c-0.089,0-0.2,0.041-0.334,0.117
			c-0.133,0.078-0.211,0.217-0.233,0.416l-1.172,9.381l5.312-1.724L37.877,36.43z"/>
	</g>
	<g>
		<path fill="#FFFFFF" d="M60.388,15.997c0.245,0.267,0.333,0.723,0.267,1.367l-0.288,2.295l4.749,2.822l0.456-3.667l-0.281-0.247
			c0.145-0.214,0.288-0.42,0.434-0.622l-4.414-5.751l-0.189,1.536c-0.066,0.422-0.166,0.746-0.299,0.967
			c-0.133,0.223-0.273,0.389-0.417,0.5c-0.146,0.111-0.339,0.188-0.584,0.233v0.268c0.066,0,0.134,0.011,0.2,0.033
			C60.111,15.775,60.233,15.863,60.388,15.997z"/>
	</g>
	<g>
		<path fill="#FFFFFF" d="M58.197,6.821c0.123-0.067,0.206-0.201,0.251-0.4l0.5-4.035c0-0.2-0.033-0.333-0.101-0.4
			c-0.067-0.089-0.145-0.139-0.233-0.15c-0.089-0.011-0.145-0.017-0.167-0.017H54.15l3.888,5.067
			C58.091,6.871,58.144,6.851,58.197,6.821z"/>
	</g>
	<g>
		<path fill="#FFFFFF" d="M47.752,6.294c0.022-0.133,0.072-0.216,0.15-0.25c0.078-0.033,0.127-0.05,0.15-0.05h8.503l-3.914-5.101
			h-8.824c-0.089,0-0.2,0.039-0.333,0.117c-0.133,0.078-0.212,0.217-0.233,0.417l-0.937,7.498l4.733,2.815L47.752,6.294z"/>
	</g>
	<g>
		<path fill="#FFFFFF" d="M76.988,22.001c0.13-2.062-0.817-2.346-0.817-2.346l-0.748,5.711
			C75.423,25.366,76.857,24.063,76.988,22.001z"/>
	</g>
	<g>
		<path fill="#FFFFFF" d="M74.514,28.403l-4.585-1.337l-0.1,0.794c-0.022,0.178,0.01,0.312,0.1,0.4
			c0.066,0.09,0.145,0.14,0.233,0.15c0.089,0.013,0.145,0.018,0.168,0.018h4.033C74.407,28.428,74.458,28.419,74.514,28.403z"/>
	</g>
	<g>
		<path fill="#FFFFFF" d="M75.827,18.889c-0.491-0.322-1.097-0.489-1.784-0.489c-0.255,0-0.497,0.023-0.733,0.067l2.022,4.378
			L75.827,18.889z"/>
	</g>
	<g>
		<path fill="#FFFFFF" d="M74.955,25.758l0.26-2.067l-2.02-4.378c-0.996,0.192-1.839,0.792-2.772,1.832l-0.266,2.143l2.304,3.004
			h1.928c0.09,0,0.199-0.033,0.333-0.099C74.855,26.125,74.934,25.981,74.955,25.758z"/>
	</g>
	<g>
		<path fill="#FFFFFF" d="M51.187,12.997h-2.024l2.382,1.415l0.109-0.882c0.022-0.155-0.011-0.278-0.099-0.367
			c-0.067-0.088-0.139-0.138-0.217-0.15C51.259,13.002,51.209,12.997,51.187,12.997z"/>
	</g>
	<g>
		<path fill="#FFFFFF" d="M13.541,13.255c-0.044,0.333-0.178,0.528-0.4,0.583c-0.222,0.056-0.345,0.084-0.367,0.084H9.14
			c-0.089,0-0.146-0.022-0.167-0.067c-0.045-0.044-0.056-0.099-0.033-0.166l0.447-3.6L4.455,8.651l-0.75,6.004
			c-0.044,0.423-0.139,0.745-0.284,0.968c-0.145,0.221-0.289,0.388-0.433,0.499c-0.145,0.112-0.339,0.189-0.583,0.234v0.266
			c0.044,0,0.111,0.012,0.2,0.033c0.133,0.045,0.266,0.134,0.4,0.268c0.245,0.312,0.322,0.766,0.233,1.366l-0.9,7.437
			c-0.022,0.021-0.033,0.072-0.033,0.149c0,0.079,0.021,0.163,0.066,0.25c0.044,0.045,0.095,0.083,0.15,0.117
			c0.056,0.033,0.139,0.05,0.25,0.05h9.302h0.333c0.267-0.021,0.667-0.094,1.201-0.216c0.533-0.123,1.078-0.362,1.634-0.718
			c0.556-0.354,1.061-0.849,1.517-1.483c0.456-0.633,0.75-1.483,0.883-2.55c0-0.044,0.038-0.372,0.117-0.984
			c0.078-0.611,0.161-1.262,0.25-1.951v-0.101l0.033-0.066c0.067-0.644-0.056-1.145-0.367-1.5c-0.066-0.067-0.167-0.145-0.3-0.234
			c0.201-0.088,0.417-0.266,0.65-0.534c0.234-0.266,0.384-0.688,0.451-1.267l0.231-1.882l-4.931-1.438L13.541,13.255z M12.64,20.49
			c-0.044,0.334-0.177,0.534-0.399,0.6c-0.222,0.068-0.345,0.101-0.368,0.101H8.24c-0.089,0-0.145-0.021-0.167-0.066
			c-0.045-0.044-0.056-0.111-0.034-0.2l0.2-1.602c0.021-0.133,0.071-0.21,0.15-0.233c0.078-0.021,0.128-0.033,0.149-0.033h3.734
			c0.156,0,0.278,0.044,0.367,0.133c0.089,0.133,0.122,0.289,0.1,0.466L12.64,20.49z"/>
	</g>
	<g>
		<path fill="#FFFFFF" d="M41.447,16.427c0.245,0.266,0.333,0.722,0.267,1.366l-0.093,0.75l4.92,1.435l0.141-1.151
			c0.022-0.132,0.077-0.21,0.166-0.233c0.089-0.022,0.145-0.033,0.167-0.033h4.035c0.088,0,0.2-0.038,0.332-0.117
			c0.134-0.078,0.212-0.216,0.234-0.417l0.329-2.65l-3.226-1.917h-1.104c-0.089,0-0.145-0.033-0.167-0.101
			c-0.044-0.021-0.066-0.077-0.066-0.166l0.064-0.49L42.715,9.89l-0.534,4.27c-0.066,0.423-0.167,0.745-0.3,0.968
			c-0.133,0.222-0.272,0.388-0.417,0.499c-0.145,0.112-0.339,0.189-0.583,0.234v0.266c0.066,0,0.133,0.011,0.2,0.034
			C41.169,16.205,41.292,16.293,41.447,16.427z"/>
	</g>
	<g>
		<path fill="#FFFFFF" d="M35.779,26.292c0.089,0,0.2-0.038,0.333-0.117c0.133-0.076,0.211-0.216,0.233-0.417l0.467-3.734
			c0.066-0.467,0.127-0.928,0.184-1.384c0.055-0.456,0.105-0.86,0.149-1.217c0.044-0.353,0.1-0.751,0.166-1.193l-14.263-4.158
			l-0.072,0.583c-0.045,0.423-0.139,0.745-0.283,0.968c-0.145,0.221-0.29,0.388-0.434,0.499c-0.145,0.112-0.339,0.189-0.583,0.234
			v0.266c0.044,0,0.11,0.012,0.2,0.033c0.133,0.045,0.267,0.134,0.4,0.268c0.244,0.312,0.322,0.766,0.233,1.366l-0.901,7.437
			c-0.021,0.021-0.033,0.072-0.033,0.149c0,0.079,0.021,0.163,0.067,0.25c0.044,0.045,0.094,0.083,0.149,0.117
			c0.056,0.033,0.139,0.05,0.251,0.05h4c0.245,0,0.411-0.061,0.5-0.184c0.088-0.122,0.133-0.238,0.133-0.35l0.834-6.435
			c0.021-0.133,0.071-0.21,0.15-0.233c0.078-0.021,0.127-0.033,0.149-0.033h3.734c0.156,0,0.278,0.044,0.367,0.133
			c0.089,0.133,0.122,0.289,0.1,0.466l-0.767,6.102c-0.022,0.045-0.022,0.089,0,0.134c0,0.066,0.044,0.145,0.134,0.233
			c0.111,0.112,0.254,0.167,0.433,0.167h3.936H35.779z"/>
	</g>
	<g>
		<path fill="#FFFFFF" d="M17.045,1.577c-0.4-0.211-0.772-0.361-1.117-0.45c-0.345-0.088-0.639-0.145-0.884-0.167
			c-0.244-0.022-0.378-0.033-0.399-0.033H5.342c-0.089,0-0.195,0.039-0.317,0.116C4.903,1.122,4.82,1.26,4.776,1.46l-0.725,5.8
			l4.931,1.438l0.295-2.37c0.021-0.134,0.072-0.217,0.149-0.25c0.077-0.033,0.139-0.05,0.184-0.05h3.602
			c0.044,0,0.1,0.011,0.167,0.033c0.133,0.045,0.233,0.1,0.3,0.167c0.111,0.111,0.145,0.267,0.1,0.466L13.37,9.977l4.932,1.438
			l0.678-5.52c0.201-1.422-0.078-2.578-0.833-3.468C17.812,2.071,17.446,1.789,17.045,1.577z"/>
	</g>
	<g>
		<path fill="#FFFFFF" d="M41.114,26.242c0.089,0.012,0.145,0.017,0.167,0.017h13.704c0.089,0,0.2-0.033,0.333-0.101
			c0.134-0.066,0.212-0.2,0.234-0.4l0.263-2.132l-8.467-2.468h-0.631c-0.089,0-0.156-0.022-0.2-0.068
			c-0.023-0.021-0.034-0.076-0.034-0.165l0.001-0.02l-4.921-1.435l-0.782,6.255c-0.022,0.155,0.011,0.279,0.101,0.367
			C40.947,26.181,41.024,26.231,41.114,26.242z"/>
	</g>
	<g>
		<path fill="#FFFFFF" d="M36.946,16.26c-0.067-0.066-0.167-0.144-0.3-0.233c0.2-0.089,0.416-0.267,0.65-0.533
			c0.233-0.268,0.383-0.69,0.45-1.268l0.835-6.794L28.42,1.39h-3.343c-0.089,0-0.195,0.039-0.317,0.116
			c-0.123,0.079-0.206,0.217-0.25,0.417l-1.403,11.221l14.219,4.146C37.302,16.869,37.177,16.523,36.946,16.26z M33.512,7.157
			l-0.7,5.635c-0.045,0.333-0.178,0.528-0.4,0.584c-0.223,0.056-0.345,0.083-0.367,0.083h-3.634c-0.089,0-0.145-0.021-0.167-0.067
			c-0.045-0.043-0.056-0.1-0.033-0.166l0.8-6.436c0.021-0.133,0.072-0.216,0.149-0.25c0.078-0.034,0.139-0.05,0.183-0.05h3.602
			c0.044,0,0.1,0.012,0.167,0.033c0.133,0.045,0.233,0.1,0.3,0.167C33.523,6.802,33.557,6.958,33.512,7.157z"/>
	</g>
	<g>
		<path fill="#FFFFFF" d="M37.787,4.968c0.2-1.422-0.078-2.579-0.834-3.467c-0.333-0.356-0.7-0.639-1.1-0.851
			c-0.4-0.211-0.773-0.361-1.117-0.451c-0.345-0.088-0.64-0.144-0.884-0.166C33.608,0.011,33.475,0,33.452,0h-5.053l9.318,5.541
			L37.787,4.968z"/>
	</g>
</g>
</svg>
