<?xml version="1.0" encoding="utf-8"?>
<!-- Generator: Adobe Illustrator 16.0.0, SVG Export Plug-In . SVG Version: 6.00 Build 0)  -->
<!DOCTYPE svg PUBLIC "-//W3C//DTD SVG 1.1//EN" "http://www.w3.org/Graphics/SVG/1.1/DTD/svg11.dtd">
<svg version="1.1" id="Layer_1" xmlns="http://www.w3.org/2000/svg" xmlns:xlink="http://www.w3.org/1999/xlink" x="0px" y="0px"
	 width="35px" height="40px" viewBox="0 0 35 40" enable-background="new 0 0 35 40" xml:space="preserve">
<path fill="#FFFFFF" d="M17.516,2.917"/>
<path fill="#FFFFFF" d="M32.29,2.704c-0.027,0.006-2.883,0.584-6.105,0.584c-3.407,0-5.98-0.659-7.244-1.854l-1.419-1.342
	L16.127,1.44C14.859,2.631,12.29,3.288,8.89,3.288c-3.244,0-6.077-0.578-6.105-0.584L0.096,2.148l0.241,2.735l0.021,0.243
	c0.169,1.908,0.237,4.147,0.308,6.517c0.068,2.263,0.139,4.604,0.304,6.889c0.206,2.805,0.506,4.976,0.949,6.833
	c0.58,2.432,1.402,4.285,2.514,5.667l0.012,0.014l0.012,0.015c4.232,5.07,9.988,7.94,12.441,8.749l0.639,0.211l0.64-0.211
	C20.63,39,26.385,36.13,30.617,31.06l0.013-0.015l0.011-0.014c2.485-3.088,3.156-8.301,3.464-12.498
	c0.164-2.287,0.235-4.627,0.305-6.891c0.069-2.37,0.138-4.609,0.307-6.515l0.021-0.245l0.24-2.735L32.29,2.704z M5.388,7.163h2.393
	v0.145C7.518,7.401,7.339,7.645,7.339,7.923v2.097h4.658V7.998c0-0.356-0.172-0.617-0.463-0.714V7.163h2.404v0.122
	c-0.305,0.103-0.442,0.387-0.442,0.638v5.865c0,0.35,0.167,0.606,0.453,0.704v0.122h-2.394v-0.104
	c0.278-0.105,0.442-0.345,0.442-0.657v-2.787H7.339v2.549c0,0.47,0.071,0.734,0.463,0.909v0.088H5.399v-0.082
	c0.286-0.072,0.442-0.282,0.442-0.604V7.944c0-0.289-0.183-0.54-0.453-0.637V7.163z M24.836,31.046c-0.771,0-1.488-0.239-1.848-0.38
	l-0.071-0.028l-0.242,0.311h-0.131l-0.655-2.424h0.252c0.555,0.852,1.629,1.465,2.578,1.465c0.853,0,1.233-0.496,1.233-0.985
	c0-0.221-0.039-0.46-0.318-0.73c-0.305-0.308-0.804-0.548-1.332-0.801c-0.579-0.278-1.18-0.564-1.58-0.968
	c-0.347-0.345-0.553-0.879-0.553-1.426c0-0.953,0.701-1.913,2.269-1.913c0.916,0,1.378,0.226,1.75,0.406l0.12,0.061l0.302-0.348
	h0.12l0.258,2.328h-0.246c-0.279-0.475-0.993-1.444-2.174-1.444c-0.697,0-1.062,0.425-1.062,0.846c0,0.14,0.039,0.342,0.223,0.514
	c0.225,0.227,0.654,0.433,1.154,0.67c0.636,0.301,1.357,0.645,1.834,1.121c0.302,0.303,0.627,0.845,0.627,1.458
	C27.344,29.625,27.018,31.046,24.836,31.046z M32.682,4.947c-0.338,3.807-0.279,8.8-0.615,13.438
	c-0.046,0.625-0.099,1.244-0.16,1.854h-9.723v1.726h-1.891c-0.311,0.933-1.062,1.802-2.777,1.869v14.028
	c-2.451-0.813-7.674-3.539-11.492-8.111c-1.688-2.098-2.452-5.561-2.849-9.438h11.1c0.117-0.5,0.368-0.934,0.735-1.269
	c-0.149-0.267-0.229-0.572-0.229-0.905c0-1.171,0.922-2.022,2.193-2.022c0.19,0,0.358,0.018,0.515,0.049l0.029-0.041h0.018V2.917
	l0,0l0,0c2.02,1.909,5.519,2.413,8.648,2.413c3.489,0,6.519-0.626,6.519-0.626L32.682,4.947z M16.975,17.044
	c0.278,0,0.468,0.05,0.815,0.171l0.073,0.026l0.134-0.189h0.122l0.133,1.291h-0.106c-0.11-0.212-0.364-0.581-0.792-0.59
	c-0.283,0-0.587,0.166-0.587,0.53c0,0.461,0.515,0.644,0.995,0.667v0.755c-0.799,0.049-1.238,0.467-1.238,1.182
	c0,0.612,0.435,1.057,1.032,1.057c0.58,0,0.903-0.389,0.967-0.771l0.02-0.121h-0.404c-0.249,0-0.418,0.059-0.554,0.194h-0.05
	l0.249-1.007h2.74c0.312,0,0.515-0.117,0.634-0.365h0.098v1.162h-1.71l-0.013,0.09c-0.154,1.219-0.861,1.786-2.227,1.786
	c-1.895,0-2.177-1.223-2.177-1.951c0-0.839,0.507-1.461,1.36-1.663l0.336-0.08l-0.326-0.116c-0.523-0.188-0.789-0.513-0.789-0.964
	C15.71,17.382,16.345,17.044,16.975,17.044z"/>
</svg>
