<?xml version="1.0" encoding="utf-8"?>
<!-- Generator: Adobe Illustrator 16.0.0, SVG Export Plug-In . SVG Version: 6.00 Build 0)  -->
<!DOCTYPE svg PUBLIC "-//W3C//DTD SVG 1.1//EN" "http://www.w3.org/Graphics/SVG/1.1/DTD/svg11.dtd">
<svg version="1.1" id="Layer_1" xmlns="http://www.w3.org/2000/svg" xmlns:xlink="http://www.w3.org/1999/xlink" x="0px" y="0px"
	 width="49px" height="56px" viewBox="0 0 49 56" enable-background="new 0 0 49 56" xml:space="preserve">
<path d="M24.45,4.192"/>
<path d="M45.08,3.774c-0.039,0.008-4.026,0.815-8.525,0.815C31.797,4.589,28.204,3.67,26.44,2l-1.982-1.874L22.511,2.01
	c-1.771,1.663-5.358,2.579-10.106,2.579c-4.529,0-8.485-0.807-8.524-0.815L0.125,2.998l0.336,3.82l0.03,0.338
	c0.236,2.664,0.331,5.792,0.43,9.101c0.096,3.16,0.194,6.427,0.424,9.619c0.287,3.917,0.708,6.948,1.326,9.542
	c0.809,3.395,1.958,5.982,3.51,7.912l0.016,0.02l0.017,0.02c5.911,7.08,13.947,11.088,17.371,12.217l0.895,0.295l0.894-0.295
	c3.424-1.129,11.46-5.137,17.37-12.217l0.018-0.02l0.017-0.02c3.47-4.312,4.406-11.592,4.834-17.452
	c0.232-3.194,0.33-6.461,0.426-9.621c0.099-3.309,0.193-6.437,0.43-9.099l0.03-0.34l0.337-3.82L45.08,3.774z M7.515,10.001h3.342
	v0.201c-0.369,0.132-0.618,0.472-0.618,0.86v2.929h6.503v-2.823c0-0.497-0.239-0.862-0.646-0.998v-0.169h3.357v0.17
	c-0.425,0.144-0.617,0.54-0.617,0.891v8.19c0,0.488,0.233,0.846,0.632,0.982v0.169h-3.342V20.26
	c0.388-0.147,0.617-0.482,0.617-0.917V15.45H10.24v3.561c0,0.657,0.1,1.026,0.648,1.27v0.123H7.53v-0.114
	c0.399-0.099,0.617-0.394,0.617-0.841v-8.355c0-0.404-0.255-0.754-0.632-0.89V10.001z M34.674,43.352
	c-1.079,0-2.08-0.334-2.582-0.533l-0.101-0.039l-0.339,0.436h-0.181l-0.916-3.387h0.351c0.775,1.191,2.277,2.047,3.603,2.047
	c1.189,0,1.722-0.691,1.722-1.377c0-0.307-0.054-0.643-0.446-1.02c-0.424-0.43-1.121-0.764-1.858-1.119
	c-0.809-0.387-1.646-0.787-2.207-1.35c-0.483-0.482-0.771-1.227-0.771-1.992c0-1.328,0.979-2.672,3.169-2.672
	c1.277,0,1.924,0.316,2.442,0.57l0.168,0.082l0.421-0.486h0.168l0.359,3.252H37.33c-0.388-0.662-1.385-2.018-3.033-2.018
	c-0.974,0-1.483,0.596-1.483,1.182c0,0.195,0.055,0.479,0.312,0.719c0.312,0.316,0.914,0.604,1.61,0.934
	c0.889,0.422,1.896,0.9,2.561,1.564c0.424,0.426,0.876,1.184,0.876,2.039C38.173,41.365,37.719,43.352,34.674,43.352z M45.627,6.907
	c-0.472,5.316-0.391,12.288-0.858,18.763c-0.063,0.874-0.138,1.738-0.223,2.589H30.968v2.409h-2.639
	c-0.433,1.303-1.487,2.518-3.879,2.609v19.59c-3.42-1.137-10.716-4.941-16.045-11.326c-2.358-2.93-3.425-7.766-3.979-13.179h15.5
	c0.164-0.699,0.514-1.306,1.025-1.773c-0.208-0.373-0.318-0.799-0.318-1.263c0-1.636,1.288-2.824,3.062-2.824
	c0.267,0,0.5,0.025,0.719,0.068l0.04-0.057h0.027V4.073v0v0c2.82,2.666,7.707,3.368,12.075,3.368c4.872,0,9.103-0.874,9.103-0.874
	L45.627,6.907z M23.694,23.798c0.388,0,0.653,0.07,1.139,0.24l0.101,0.035l0.188-0.265h0.17l0.187,1.803H25.33
	c-0.154-0.295-0.509-0.811-1.105-0.824c-0.396,0-0.82,0.231-0.82,0.741c0,0.644,0.718,0.898,1.388,0.931v1.054
	c-1.115,0.069-1.728,0.651-1.728,1.65c0,0.855,0.606,1.477,1.441,1.477c0.809,0,1.261-0.543,1.35-1.08l0.028-0.164H25.32
	c-0.347,0-0.583,0.08-0.773,0.27h-0.072l0.347-1.407h3.828c0.434,0,0.717-0.164,0.885-0.509h0.137v1.621h-2.39l-0.016,0.125
	c-0.216,1.703-1.204,2.494-3.109,2.494c-2.646,0-3.041-1.705-3.041-2.723c0-1.173,0.71-2.041,1.9-2.323l0.469-0.112l-0.454-0.162
	c-0.731-0.262-1.103-0.715-1.103-1.345C21.929,24.27,22.815,23.798,23.694,23.798z"/>
</svg>
