<?xml version="1.0" encoding="utf-8"?>
<!-- Generator: Adobe Illustrator 16.2.1, SVG Export Plug-In . SVG Version: 6.00 Build 0)  -->
<!DOCTYPE svg PUBLIC "-//W3C//DTD SVG 1.1//EN" "http://www.w3.org/Graphics/SVG/1.1/DTD/svg11.dtd">
<svg version="1.1" id="Layer_1" xmlns="http://www.w3.org/2000/svg" xmlns:xlink="http://www.w3.org/1999/xlink" x="0px" y="0px"
	 width="390px" height="315.5px" viewBox="0 34.5 390 315.5" enable-background="new 0 34.5 390 315.5" xml:space="preserve">
<path fill="#FFFFFF" d="M278.262,329.71l7.348,15.259h-8.353l-3.2-8.219h-0.353l-3.199,8.219h-8.3l7.347-15.259l-7.14-13.608h8.4
	l2.892,7.37h0.353l2.893-7.37h8.507L278.262,329.71z M255.334,316.102l6.828,28.867h-8.604l-0.723-3.786h-5.246l-0.722,3.786h-8.604
	l6.831-28.867H255.334z M252.359,335.84c-0.586-4.016-1.197-8.036-1.766-12.049c-0.074-0.647-0.131-1.296-0.188-1.946h-0.387
	c-0.078,1.297-0.263,2.589-0.463,3.879l-1.441,10.116H252.359L252.359,335.84z M222.537,325.995
	c-0.398,1.276-0.739,2.563-0.871,3.843h-0.395c-0.222-1.277-0.527-2.545-0.928-3.802l-3.104-9.936h-9.727v28.867h7.463v-13.003
	c0-1.416-0.117-2.824-0.306-4.238h0.541l4.231,17.241h4.043l4.234-17.241h0.541c-0.146,1.058-0.25,2.117-0.287,3.176
	c-0.037,4.689-0.013,9.377-0.019,14.065h7.465v-28.867h-9.729L222.537,325.995z M197.835,316.102l6.827,28.867h-8.602l-0.723-3.786
	h-5.246l-0.724,3.786h-8.603l6.831-28.867H197.835z M194.863,335.84c-0.588-4.016-1.2-8.036-1.766-12.049
	c-0.076-0.647-0.134-1.296-0.189-1.946h-0.386c-0.077,1.297-0.262,2.589-0.463,3.879l-1.44,10.116H194.863L194.863,335.84z
	 M178.648,342.968c0.148,0.659,0.382,1.342,0.722,2.001h-8.238c-1.066-1.271-1.144-2.651-1.266-3.988
	c-0.101-1.698-0.125-3.401-0.093-5.104c-0.046-0.403-0.105-0.808-0.286-1.21c-0.129-0.229-0.256-0.455-0.432-0.637
	c-0.459-0.447-1.048-0.642-1.583-0.734c-0.685-0.099-1.371-0.098-2.057-0.049v11.724h-8.601v-28.867
	c3.591-0.005,7.178,0.015,10.769-0.012c2.009,0.059,4.007,0.136,6.055,0.755c0.313,0.107,0.616,0.248,0.92,0.386
	c0.426,0.236,0.853,0.479,1.224,0.783c0.375,0.306,0.694,0.678,1.014,1.047c0.285,0.423,0.572,0.846,0.784,1.302
	c0.213,0.458,0.348,0.952,0.484,1.442c0.294,1.506,0.416,3.01,0.18,4.525c-0.057,0.337-0.145,0.674-0.261,1.007
	c-0.139,0.331-0.281,0.663-0.471,0.96c-0.19,0.298-0.431,0.564-0.667,0.833c-0.951,0.885-1.892,1.271-2.857,1.584
	c0.665,0.171,1.362,0.442,2.035,0.963c0.315,0.289,0.63,0.577,0.88,0.915c0.251,0.338,0.436,0.726,0.622,1.111
	c0.237,0.639,0.396,1.281,0.488,1.925C178.117,338.073,178.164,340.511,178.648,342.968z M170.181,323.645
	c-0.047-0.354-0.145-0.703-0.301-1.045c-0.144-0.271-0.333-0.524-0.662-0.751c-1.074-0.615-2.208-0.521-3.315-0.521
	c-0.198,0.011-0.395,0.02-0.588,0.031v6.991c1.303,0.034,2.604,0.219,3.917-0.45c0.534-0.323,0.726-0.811,0.851-1.238
	C170.303,325.656,170.272,324.652,170.181,323.645z M142.939,316.102c0.001,6.729,0,13.454-0.003,20.183
	c-0.083,0.981,0.135,2.045-0.782,2.925c-0.108,0.072-0.214,0.143-0.33,0.193c-0.696,0.238-1.325,0.226-1.987,0.089
	c-0.327-0.097-0.631-0.261-0.888-0.608c-0.056-0.096-0.113-0.188-0.156-0.286c-0.211-0.59-0.28-1.141-0.298-1.718
	c-0.035-6.926-0.011-13.851-0.015-20.776h-8.655v19.937c0.004,0.931,0.078,1.861,0.229,2.785c0.173,1.067,0.571,2.163,1.222,3.169
	c0.263,0.391,0.587,0.74,0.913,1.092c0.326,0.297,0.662,0.558,1.005,0.788c2.643,1.607,5.29,1.603,7.901,1.658
	c2.353-0.104,4.733-0.228,7.042-1.604c0.512-0.315,1.129-0.817,1.518-1.278c1.704-2.036,1.85-4.023,1.973-6.021
	c0.032-6.844,0.009-13.686,0.015-20.524h-8.704V316.102z M125.273,330.515c0.116,2.969,0.161,5.918-0.893,8.913
	c-0.349,0.917-0.837,1.789-1.646,2.63c-1.792,1.796-3.685,2.206-5.534,2.581c-1.639,0.255-3.283,0.335-4.924,0.33h-8.768v-28.867
	c3.439,0.009,6.878-0.028,10.319,0.024c2.083,0.071,4.188,0.247,6.305,1.11c0.802,0.357,1.689,0.844,2.493,1.654
	c0.461,0.525,0.92,1.053,1.264,1.646c0.345,0.593,0.569,1.254,0.797,1.916C125.385,325.129,125.374,327.823,125.273,330.515z
	 M116.345,323.99c-0.065-0.635-0.054-1.259-0.709-1.941c-0.921-0.729-1.885-0.65-2.834-0.687c-0.197-0.002-0.393-0.002-0.59,0
	v18.306c1.03-0.021,2.047,0.087,3.095-0.424c0.249-0.152,0.482-0.344,0.688-0.689c0.358-0.677,0.357-1.381,0.369-2.077
	C116.357,332.312,116.382,328.156,116.345,323.99z M161.563,187.339l5.179,6.751c1.178-1.006,3.822-2.917,8.12-4.326l1.943-15.289
	c0.058-0.415,0.191-0.758,0.401-1.025c0.208-0.268,0.431-0.459,0.668-0.579c0.237-0.119,0.566-0.208,0.982-0.267h8.65
	c0.118,0,0.266,0.03,0.445,0.087c0.356,0.121,0.624,0.268,0.803,0.447c0.295,0.297,0.385,0.713,0.267,1.248l-1.735,13.649
	c3.895,0.066,8.37,0.627,13.469,1.939l2.177-17.729c0.534-3.923-0.236-7.045-2.316-9.363c-0.834-0.951-1.785-1.695-2.854-2.229
	c-1.069-0.535-2.065-0.937-2.987-1.204c-0.921-0.268-1.724-0.416-2.407-0.446c-0.685-0.029-1.057-0.045-1.115-0.045h-12.929
	c-1.369,0.12-2.557,0.299-3.567,0.535c-1.012,0.238-2.112,0.625-3.3,1.16c-1.19,0.534-2.334,1.292-3.432,2.274
	c-1.101,0.98-2.066,2.229-2.898,3.745c-0.834,1.516-1.398,3.343-1.696,5.484L161.563,187.339z M229.85,176.979l-15.467,14.615
	l-0.047,0.369c-0.178,1.13-0.445,1.991-0.802,2.586c-0.358,0.596-0.729,1.039-1.115,1.338c-0.362,0.279-0.854,0.473-1.454,0.594
	c3.844,3.597,5.99,8.842,5.99,15.232c0,1.61-0.116,3.1-0.344,4.506l8.953-5.279l0.809-6.492c0.059-0.356,0.208-0.564,0.445-0.623
	c0.238-0.061,0.388-0.09,0.447-0.09h2.941c0.118,0,0.268,0.029,0.447,0.09c0.296,0.119,0.533,0.355,0.714,0.712l0.749,2.541
	l11.622-6.854l-2.117-7.102c-0.122-0.296-0.181-0.653-0.181-1.07c0-0.296,0.029-0.682,0.091-1.158
	c0.057-0.477,0.237-0.949,0.534-1.428l6.645-12.686c-3.135-3.327-7.527-5.526-10.634-6.772l-9.474,18.121
	c-0.062,0.06-0.092,0.119-0.092,0.179c0,0.061-0.029,0.12-0.088,0.178v-0.178L229.85,176.979z M213.461,216.457
	c0,0,2.473-9.715-4.77-19.329l-4.772,2.011C203.919,199.139,213.557,203.822,213.461,216.457z M261.35,219.093l13.94-2.372
	l1.249-9.929l-14.178,4.358L261.35,219.093z M259.882,157.765c-0.235-0.028-0.386-0.044-0.442-0.044h-11.146
	c-0.238,0-0.479,0.06-0.713,0.179c-0.538,0.238-0.953,0.594-1.25,1.069l-5.186,9.917c3.117,1.25,7.434,3.415,10.662,6.716
	l8.524-16.275c0.235-0.415,0.267-0.802,0.089-1.159C260.299,157.93,260.121,157.795,259.882,157.765z M228.714,157.765
	c-0.241-0.028-0.389-0.044-0.446-0.044h-10.791c-0.238,0-0.535,0.105-0.893,0.312c-0.354,0.209-0.564,0.58-0.624,1.115
	l-3.812,30.514l15.469-14.616l1.986-15.808c0-0.536-0.086-0.892-0.267-1.07C229.158,157.93,228.95,157.795,228.714,157.765z
	 M190.409,246.663l-8.609,5.308h8.609V246.663z M185.73,191.766c-0.058,0.355-0.194,0.565-0.399,0.623
	c-0.21,0.061-0.344,0.09-0.402,0.09h-10.791c-0.2,0-0.324-0.053-0.396-0.139c-4.005,1.354-6.444,3.118-7.477,3.98l6.413,8.361
	c5.389-7.162,11.081-11.022,20.808-11.022c2.015,0,3.891,0.219,5.657,0.597l0.221-1.801c-5.117-1.321-9.597-1.862-13.477-1.9
	L185.73,191.766z M143.956,211.916c-0.208-0.057-0.341-0.087-0.402-0.087H125.95l18.376,5.356l0.477-3.843
	c0.06-0.297,0.06-0.521,0-0.669c-0.058-0.146-0.147-0.281-0.266-0.402C144.357,212.096,144.164,211.977,143.956,211.916z
	 M157.27,276.007l10.223-12.761v-10.244l-8.002,5.512L157.27,276.007z M156.283,220.672l13.154,3.836
	c0.029-0.115,0.051-0.236,0.065-0.374l0.617-4.944l-12.701-7.551L156.283,220.672z M146.258,282.404l3.493-27.516
	c0.118-0.894,0.477-1.429,1.069-1.605c0.595-0.178,0.921-0.27,0.982-0.27h8.561c0.119,0,0.266,0.031,0.445,0.092
	c0.357,0.119,0.624,0.267,0.803,0.443c0.237,0.238,0.355,0.656,0.355,1.248l8.002-5.511l4.751-4.229
	c-0.326-0.625-0.707-1.217-1.159-1.764c-0.893-0.947-1.872-1.691-2.944-2.229c-0.551-0.276-1.081-0.515-1.594-0.719l-32.331,10.482
	c-0.118,0.562-0.237,1.125-0.317,1.738l-2.552,20.096C136.024,275.902,139.816,279.699,146.258,282.404z M270.18,225.293
	c0.354-0.18,0.562-0.564,0.622-1.159l0.614-4.89l-13.946,2.371l-0.31,2.429c-0.062,0.476,0.027,0.834,0.267,1.07
	c0.179,0.237,0.386,0.372,0.622,0.401c0.238,0.029,0.389,0.045,0.449,0.045h10.788C269.521,225.561,269.82,225.471,270.18,225.293z
	 M179.006,244.391l12.044-10.41l-31.22,1.631C178.408,238.193,179.006,244.391,179.006,244.391z M213.425,259.59h-21.079
	l6.316,7.018l9.24,2.097L213.425,259.59z M160.312,239.417c-0.653-0.028-1.011-0.046-1.069-0.046h-12.929
	c-0.061,0-0.789,0.077-2.185,0.225c-1.398,0.148-2.975,0.639-4.726,1.471c-1.754,0.834-3.42,2.142-4.995,3.924
	c-1.017,1.15-1.766,2.648-2.301,4.422l29.927-9.705C161.394,239.552,160.804,239.439,160.312,239.417z M285.334,224.044
	c-0.061,0.476,0.03,0.834,0.271,1.07c0.179,0.237,0.385,0.372,0.621,0.401c0.239,0.029,0.385,0.045,0.447,0.045h10.79
	c0.237,0,0.535-0.09,0.89-0.269c0.357-0.179,0.566-0.563,0.625-1.159l1.213-9.781l-13.944,2.369L285.334,224.044z M281.126,159.237
	c0-0.536-0.091-0.892-0.269-1.07c-0.176-0.237-0.387-0.372-0.625-0.402c-0.235-0.028-0.387-0.044-0.444-0.044h-10.79
	c-0.238,0-0.534,0.105-0.891,0.312c-0.358,0.209-0.566,0.58-0.625,1.115l-3.709,29.26l14.795-8.725L281.126,159.237z
	 M305.805,197.793l-14.182,4.361l-1.501,12.045l13.944-2.369L305.805,197.793z M260.814,194.707c-0.18,1.07-0.444,1.889-0.804,2.451
	c-0.356,0.566-0.729,0.98-1.114,1.25c-0.389,0.268-0.877,0.46-1.471,0.578v0.715c0.18,0,0.355,0.029,0.534,0.087
	c0.235,0.121,0.565,0.358,0.979,0.715c0.595,0.714,0.862,1.813,0.805,3.3l-0.926,7.236l14.173-4.355l0.307-2.435
	c0.117-1.129,0.368-1.991,0.759-2.587c0.385-0.594,0.771-1.039,1.158-1.336c0.387-0.299,0.906-0.506,1.561-0.625v-0.715
	c-0.178,0-0.357-0.028-0.534-0.09c-0.119-0.058-0.283-0.135-0.491-0.222c-0.21-0.091-0.371-0.253-0.488-0.491
	c-0.775-0.713-1.012-1.931-0.716-3.656l1.354-10.814l-14.797,8.727L260.814,194.707z M344.469,204.959l14.02-2.383l2.687-21.807
	l-14.245,4.381c-0.262,2.078-0.529,4.275-0.809,6.623l-0.27,2.053c-0.179,0.951-0.443,1.693-0.803,2.229
	c-0.354,0.534-0.729,0.924-1.113,1.158c-0.385,0.239-0.877,0.417-1.472,0.537v0.712c0.118,0,0.296,0.031,0.536,0.089
	c0.355,0.12,0.711,0.356,1.068,0.715c0.654,0.891,0.861,2.109,0.625,3.656L344.469,204.959z M309.302,159.058
	c-0.057-0.118-0.176-0.369-0.354-0.758c-0.18-0.385-0.506-0.579-0.979-0.579h-10.791c-0.239,0-0.534,0.105-0.894,0.312
	c-0.356,0.209-0.566,0.58-0.624,1.115l-1.435,11.303l15.688-9.252L309.302,159.058z M259.253,239.74
	c0-0.538-0.087-0.895-0.269-1.072c-0.178-0.234-0.387-0.37-0.623-0.4c-0.237-0.029-0.389-0.045-0.445-0.045h-10.791
	c-0.236,0-0.534,0.105-0.893,0.312c-0.354,0.209-0.564,0.58-0.623,1.115l-1.363,10.744l13.031,5.15L259.253,239.74z
	 M207.912,230.872l6.132-1.067l-6.096-1.767c-1.548,2.569-4.923,5.669-4.923,5.669l14.93,1.001L207.912,230.872z M385.741,171.159
	c0.389-3.753-0.294-6.751-2.06-8.99c-0.656-0.831-1.396-1.516-2.229-2.05c-0.834-0.536-1.664-0.951-2.498-1.249
	c-0.832-0.297-1.604-0.519-2.317-0.669c-0.713-0.147-1.277-0.222-1.693-0.222c-0.118,0-0.223-0.014-0.312-0.045
	c-0.09-0.028-0.193-0.044-0.312-0.044h-0.269h-12.93h-0.267c-0.121,0-0.227,0.016-0.312,0.044c-0.09,0.032-0.198,0.045-0.313,0.045
	h-0.088c-0.656,0.06-1.65,0.238-2.988,0.535c-1.338,0.298-2.721,0.878-4.146,1.739c-1.427,0.863-2.765,2.051-4.012,3.567
	c-1.247,1.517-2.113,3.523-2.587,6.02c0,0.06-0.046,0.417-0.136,1.071c-0.09,0.654-0.209,1.502-0.354,2.541
	c-0.149,1.04-0.299,2.216-0.446,3.521c-0.147,1.31-0.312,2.647-0.49,4.014c-0.119,0.906-0.239,1.852-0.359,2.818l14.243-4.381
	l0.741-6.017c0.117-0.892,0.476-1.427,1.069-1.605c0.593-0.178,0.921-0.267,0.979-0.267h8.65c0.117,0,0.269,0.03,0.443,0.089
	c0.359,0.12,0.627,0.267,0.805,0.445c0.237,0.356,0.327,0.774,0.271,1.249l-0.31,2.218L385.741,171.159z M230.002,210.777
	l2.473,8.363l12.534-3.854l-3.384-11.363L230.002,210.777z M204.057,237.029c-0.236-0.029-0.387-0.047-0.445-0.047h-2.506
	l3.595,3.516l0.25-1.998c0-0.535-0.091-0.895-0.269-1.068C204.504,237.193,204.294,237.059,204.057,237.029z M246.1,225.561
	c0.059,0,0.256-0.015,0.582-0.043c0.326-0.029,0.609-0.193,0.846-0.492c0.059-0.118,0.119-0.252,0.179-0.4s0.03-0.342-0.088-0.58
	l-0.214-0.719l-12.461,2.119c0.187,0.068,0.322,0.115,0.367,0.115H246.1z M237.738,223.105l13.025-2.213l-1.688-5.66l-12.536,3.856
	l1.149,3.896C237.707,223.029,237.725,223.062,237.738,223.105z M222.896,214.969l-9.074,5.35c-0.432,1.841-1.075,3.529-1.926,5.147
	l10.08-3.098L222.896,214.969z M224.848,224.057c0.358-0.181,0.566-0.566,0.625-1.162l0.053-0.418l-6.002,1.848h4.436
	C224.193,224.323,224.493,224.232,224.848,224.057z M233.395,239.561c-0.061-0.119-0.181-0.371-0.358-0.759
	c-0.177-0.386-0.504-0.579-0.979-0.579h-10.791c-0.236,0-0.535,0.105-0.89,0.312c-0.358,0.209-0.567,0.58-0.624,1.115l-0.13,1.011
	l15.883,6.276L233.395,239.561z M332.688,161.714c0-0.537-0.09-0.893-0.27-1.071c-0.178-0.237-0.389-0.371-0.625-0.402
	c-0.238-0.029-0.386-0.044-0.443-0.044h-10.791c-0.238,0-0.537,0.105-0.891,0.312c-0.359,0.209-0.566,0.58-0.625,1.115
	l-3.744,29.517l-7.508-26.236l-16.241,9.577l-2.647,20.848c-0.178,0.893-0.446,1.593-0.803,2.098
	c-0.354,0.506-0.713,0.861-1.068,1.068c-0.356,0.21-0.833,0.372-1.426,0.49v0.715c0.117,0,0.295,0.029,0.535,0.087
	c0.354,0.121,0.711,0.358,1.067,0.715c0.378,0.42,0.597,0.96,0.688,1.599l14.359-4.416l0.381-3.067l0.783,2.71l25.807-7.934
	L332.688,161.714z M217.955,246.663l-9.062-4.552l2.071,6.012l4.122,0.122v5.745L217.955,246.663z M183.992,304.378
	c0.179,0.239,0.387,0.372,0.624,0.401c0.237,0.029,0.387,0.045,0.448,0.045h10.788c0.238,0,0.539-0.09,0.893-0.268
	c0.355-0.18,0.564-0.564,0.625-1.16l2.497-19.886c0.116-1.128,0.368-1.989,0.759-2.586c0.385-0.594,0.771-1.039,1.159-1.337
	c0.384-0.298,0.903-0.505,1.56-0.624v-0.714c-0.179,0-0.357-0.027-0.535-0.089c-0.119-0.06-0.281-0.136-0.49-0.224
	c-0.207-0.09-0.373-0.254-0.49-0.49c-0.771-0.715-1.012-1.932-0.713-3.656l0.636-5.089H188.05l-0.667,5.269
	c-0.177,1.07-0.446,1.887-0.801,2.45c-0.358,0.567-0.731,0.979-1.116,1.25c-0.387,0.269-0.878,0.461-1.473,0.579v0.714
	c0.179,0,0.358,0.029,0.537,0.089c0.237,0.119,0.563,0.355,0.98,0.713c0.595,0.715,0.861,1.814,0.803,3.299l-2.586,20.244
	C183.665,303.784,183.754,304.141,183.992,304.378z M111.319,269.958c-0.06,0.476-0.193,0.834-0.4,1.069
	c-0.209,0.238-0.433,0.402-0.669,0.49c-0.239,0.09-0.566,0.164-0.98,0.224h-9.721c-0.238,0-0.387-0.06-0.445-0.179
	c-0.12-0.119-0.178-0.269-0.178-0.444l1.086-8.394l-14.2,4.605l-0.796,6.373c-0.179,1.129-0.446,1.99-0.803,2.586
	c-0.357,0.595-0.729,1.04-1.115,1.338c-0.387,0.297-0.907,0.505-1.56,0.623v0.714c0.179,0,0.356,0.029,0.535,0.088
	c0.237,0.12,0.565,0.356,0.981,0.714c0.653,0.715,0.892,1.934,0.713,3.657l-2.497,19.886c-0.06,0.476,0.029,0.832,0.268,1.068
	c0.179,0.239,0.386,0.372,0.624,0.4c0.237,0.031,0.386,0.046,0.445,0.046h10.79c0.237,0,0.535-0.091,0.892-0.267
	c0.357-0.181,0.564-0.565,0.624-1.162l2.14-17.209c0.059-0.355,0.208-0.563,0.446-0.623c0.237-0.061,0.387-0.09,0.446-0.09h11.86
	c1.367-0.119,2.556-0.298,3.567-0.535c1.01-0.235,2.125-0.625,3.344-1.16c1.218-0.533,2.378-1.307,3.478-2.317
	c1.1-1.009,2.051-2.258,2.854-3.746c0.804-1.485,1.35-3.327,1.65-5.526l2.254-18.197l-14.22,4.611L111.319,269.958z
	 M180.781,224.323h3.875l-13.316-12.507c0,0-0.612,5.205-0.571,5.382L180.781,224.323z M256.381,284.75h0.09
	c0.119-1.127,0.354-1.99,0.713-2.585c0.356-0.595,0.744-1.04,1.159-1.337c0.415-0.299,0.771-0.477,1.069-0.537
	c0.297-0.057,0.477-0.087,0.533-0.087v-0.714c-0.178,0-0.355-0.029-0.533-0.092c-0.416-0.116-0.773-0.355-1.069-0.713
	c-0.657-0.652-0.893-1.871-0.715-3.654l1.968-15.739l-13.031-5.151l-2.224,17.502l-5.93-20.725l-16.474-6.514l-1.58,12.443
	l35.201,34.438L256.381,284.75z M128.709,291.359c-0.477,4.043,0.297,7.192,2.316,9.451c0.574,0.647,1.181,1.183,1.815,1.621
	l9.862-12.312c-0.077-0.249-0.119-0.515-0.082-0.812l0.713-5.627c-6.381-2.611-10.253-6.229-12.527-9.199
	c-0.138,0.711-0.346,1.287-0.626,1.718c-0.387,0.596-0.772,1.042-1.159,1.338c-0.387,0.3-0.907,0.506-1.561,0.625v0.713
	c0.119,0,0.298,0.031,0.535,0.09c0.358,0.119,0.714,0.356,1.069,0.712c0.656,0.834,0.862,2.053,0.625,3.656L128.709,291.359z
	 M188.17,261.014l-0.013,5.594h8.028l-5.077-7.018l-2.932-1.392l-0.006,2.81l-9.164,1.885l3.617,2.742L188.17,261.014z
	 M137.927,304.323c1.039,0.506,2.035,0.893,2.986,1.159c0.95,0.269,1.753,0.416,2.409,0.444c0.652,0.032,1.008,0.046,1.069,0.046
	h12.929c0.061,0,0.789-0.074,2.188-0.223c1.396-0.148,2.97-0.639,4.724-1.473c1.754-0.832,3.418-2.139,4.995-3.924
	c1.575-1.782,2.569-4.31,2.987-7.58l1.069-8.112c0.119-1.13,0.358-1.991,0.713-2.586c0.356-0.595,0.743-1.039,1.159-1.339
	c0.417-0.295,0.772-0.475,1.072-0.533c0.295-0.061,0.474-0.092,0.535-0.092v-0.713c-0.061,0-0.254-0.029-0.581-0.09
	c-0.326-0.058-0.667-0.297-1.026-0.711c-0.653-0.654-0.89-1.875-0.713-3.658l1.637-12.873h-4.323l-11.069,13.815l-1.851,14.574
	c-0.119,0.951-0.477,1.501-1.069,1.649c-0.595,0.148-0.924,0.224-0.982,0.224h-8.65c-0.119,0-0.267-0.03-0.445-0.09
	c-0.032-0.011-0.051-0.022-0.08-0.032l-9.698,12.105C137.917,304.318,137.922,304.32,137.927,304.323z M207.902,245.559l-5.172-5.06
	h-0.609c-0.184,0.155-0.354,0.303-0.542,0.46l-7.559,6.338l-0.251,1.988h13.668L207.902,245.559z M341.324,212.271
	c-0.479,3.807,0.208,6.811,2.052,9.008c0.651,0.834,1.396,1.518,2.229,2.053c0.832,0.534,1.65,0.95,2.453,1.248
	c0.801,0.298,1.562,0.521,2.274,0.669c0.712,0.147,1.304,0.252,1.781,0.312h0.893h24.7c0.297,0,0.609-0.09,0.938-0.268
	c0.326-0.18,0.549-0.536,0.666-1.07c0.539-4.695,1.072-9.063,1.606-13.106c0.235-1.726,0.46-3.464,0.668-5.218
	c0.208-1.752,0.401-3.401,0.579-4.948c0.014-0.116,0.025-0.218,0.039-0.33l-20.576,3.498l-0.062,0.487
	c0,0.297,0.09,0.609,0.269,0.937c0.181,0.327,0.535,0.552,1.069,0.669h4.996l-0.447,3.924c-0.178,0.832-0.564,1.367-1.158,1.604
	c-0.236,0.178-0.536,0.237-0.893,0.178h-8.648c-0.121,0-0.27-0.028-0.447-0.087c-0.416-0.12-0.683-0.27-0.801-0.447
	c-0.301-0.296-0.386-0.714-0.27-1.248l0.619-5.033l-14.002,2.379L341.324,212.271z M385.134,195.562
	c0.148-1.217,0.281-2.153,0.401-2.809c0.059-0.178,0.059-0.297,0-0.357c0-0.475-0.15-0.787-0.449-0.936
	c-0.296-0.146-0.562-0.223-0.8-0.223l-17.3,0.089c-0.596-0.119-0.996-0.015-1.205,0.312c-0.208,0.327-0.342,0.641-0.401,0.938
	l-1.116,9.018l20.567-3.496C384.936,197.195,385.039,196.335,385.134,195.562z M373.854,176.871v0.1
	c0.117,0.418,0.312,0.687,0.578,0.805c0.27,0.119,0.521,0.209,0.758,0.267h10.791c0.237-0.058,0.535-0.178,0.894-0.356
	c0.356-0.178,0.562-0.533,0.625-1.068l0.545-4.107L373.854,176.871z M289.654,268.346l1.969-15.678
	c0.057-0.355,0.189-0.579,0.4-0.668c0.209-0.089,0.369-0.134,0.492-0.134h10.787c0.236,0,0.534-0.089,0.891-0.269
	c0.357-0.179,0.565-0.562,0.625-1.158l1.339-10.699c0.058-0.477-0.032-0.834-0.269-1.072c-0.119-0.118-0.224-0.191-0.312-0.223
	c-0.09-0.029-0.192-0.074-0.312-0.135c-0.119-0.059-0.236-0.088-0.354-0.088h-36.65c-0.301,0-0.612,0.088-0.937,0.268
	c-0.328,0.178-0.553,0.564-0.67,1.158l-1.338,10.701c-0.058,0.477,0.027,0.832,0.27,1.069c0.176,0.238,0.384,0.371,0.625,0.401
	c0.234,0.031,0.384,0.045,0.443,0.045h10.701c0.236,0,0.414,0.06,0.533,0.178c0.061,0.061,0.09,0.238,0.09,0.535l-1.334,10.623
	L289.654,268.346z M292.314,278.688c-0.653-0.653-0.893-1.873-0.711-3.655l0.365-2.94l-13.006-5.144l-1.005,7.993
	c-0.12,1.132-0.371,1.992-0.761,2.586c-0.385,0.597-0.771,1.041-1.156,1.339c-0.389,0.299-0.907,0.505-1.561,0.625v0.714
	c0.117,0,0.299,0.029,0.533,0.087c0.358,0.12,0.713,0.356,1.069,0.715c0.655,0.833,0.894,2.05,0.713,3.656l-2.495,19.885
	c-0.062,0.476,0.028,0.832,0.27,1.069c0.179,0.238,0.369,0.373,0.578,0.4c0.207,0.03,0.344,0.047,0.4,0.047h10.79
	c0.3,0,0.61-0.092,0.937-0.269c0.326-0.18,0.55-0.565,0.668-1.161l2.498-19.885c0.119-1.127,0.356-1.99,0.711-2.585
	c0.358-0.595,0.746-1.04,1.162-1.337c0.414-0.299,0.772-0.477,1.068-0.537c0.299-0.057,0.479-0.087,0.534-0.087v-0.714
	c-0.058,0-0.267-0.029-0.624-0.092C292.939,279.342,292.611,279.104,292.314,278.688z M312.436,224.223
	c0.058,0.121,0.179,0.373,0.356,0.76c0.179,0.387,0.504,0.578,0.979,0.578h10.789c0.235,0,0.533-0.09,0.893-0.268
	c0.354-0.18,0.562-0.564,0.625-1.159l1.791-14.276l-18.672,3.175L312.436,224.223z M331.051,203.01h0.09
	c0.118-1.128,0.356-1.99,0.713-2.586c0.356-0.594,0.744-1.039,1.16-1.338c0.416-0.297,0.771-0.475,1.07-0.535
	c0.294-0.058,0.475-0.089,0.535-0.089v-0.712c-0.18,0-0.357-0.029-0.535-0.091c-0.419-0.118-0.773-0.356-1.07-0.714
	c-0.656-0.653-0.892-1.873-0.716-3.655l0.476-3.789l-25.295,7.776l3.852,13.316l19.176-3.261L331.051,203.01z M249.543,303.318
	c0.355-0.18,0.562-0.564,0.623-1.159l1.482-11.808l-35.203-34.438l-2.215,17.442c-0.18,0.893-0.445,1.593-0.804,2.097
	c-0.356,0.506-0.715,0.862-1.069,1.069c-0.356,0.209-0.834,0.373-1.428,0.49v0.713c0.119,0,0.299,0.03,0.535,0.09
	c0.357,0.119,0.713,0.356,1.071,0.713c0.593,0.656,0.832,1.576,0.714,2.766l-2.588,20.775c-0.059,0.478,0.031,0.834,0.268,1.07
	c0.18,0.237,0.389,0.372,0.625,0.401c0.236,0.03,0.387,0.045,0.445,0.045h10.789c0.238,0,0.534-0.089,0.893-0.267
	c0.357-0.182,0.565-0.565,0.625-1.16l3.654-29.516l8.562,29.604c0.059,0.121,0.179,0.372,0.355,0.759
	c0.18,0.388,0.506,0.579,0.98,0.579h10.791C248.887,303.586,249.188,303.497,249.543,303.318z M107.946,257.244l14.215-4.607
	c0.503-3.753-0.271-6.81-2.33-9.162c-0.833-0.951-1.784-1.709-2.853-2.273c-1.071-0.564-2.066-0.967-2.988-1.205
	c-0.923-0.234-1.726-0.387-2.408-0.444c-0.684-0.059-1.056-0.09-1.114-0.09h-24.79c-0.238,0-0.535,0.104-0.892,0.312
	c-0.356,0.209-0.565,0.58-0.624,1.115l-3.135,25.086l14.206-4.607l0.967-7.459c0.059-0.357,0.192-0.58,0.402-0.67
	c0.207-0.09,0.341-0.133,0.4-0.133h9.72c0.119,0,0.267,0.031,0.446,0.088c0.356,0.121,0.624,0.269,0.802,0.447
	c0.297,0.297,0.386,0.713,0.268,1.248L107.946,257.244z M158.365,193.201c-0.177,1.13-0.445,1.992-0.8,2.586
	c-0.358,0.596-0.731,1.039-1.115,1.338c-0.387,0.298-0.908,0.505-1.561,0.625v0.712c0.176,0,0.355,0.031,0.535,0.089
	c0.237,0.12,0.563,0.356,0.979,0.715c0.653,0.713,0.892,1.933,0.714,3.656l-0.77,6.135l12.699,7.551l1.22-9.811l-0.753-0.658
	c0.387-0.57,0.772-1.123,1.159-1.66l-11.802-15.386L158.365,193.201z M150.545,174.723c0.326-0.179,0.549-0.536,0.669-1.071
	l1.338-10.79c0-0.536-0.089-0.893-0.269-1.07c-0.179-0.237-0.387-0.37-0.624-0.401c-0.24-0.029-0.388-0.045-0.446-0.045h-11.492
	l10.399,13.555C150.259,174.857,150.399,174.802,150.545,174.723z M112.086,158.87c-0.238,0-0.534,0.105-0.891,0.312
	c-0.356,0.209-0.566,0.581-0.624,1.115l-2.507,20.053l12.66,7.526l1.885-14.561c0.06-0.357,0.193-0.58,0.401-0.669
	c0.208-0.088,0.341-0.133,0.402-0.133h22.741l-10.467-13.644L112.086,158.87L112.086,158.87z M200.805,215.324
	c0.348-5.514-2.188-6.275-2.188-6.275l-2.005,15.274C196.611,224.323,200.452,220.84,200.805,215.324z M182.54,232.467
	c0.238,0.029,0.388,0.043,0.448,0.043h10.789c0.118,0,0.253-0.021,0.403-0.068l-12.264-3.572l-0.266,2.125
	c-0.061,0.477,0.029,0.835,0.266,1.072C182.095,232.302,182.303,232.438,182.54,232.467z M197.693,206.998
	c-1.311-0.859-2.937-1.305-4.77-1.305c-0.682,0-1.333,0.059-1.961,0.18l5.403,11.708L197.693,206.998z M183.242,213.032
	l-0.711,5.729l6.164,8.036h5.152c0.237,0,0.534-0.089,0.893-0.267c0.356-0.18,0.563-0.564,0.624-1.16l0.695-5.53l-5.405-11.707
	C187.992,208.646,185.738,210.251,183.242,213.032z M131.793,191.24h-5.414l6.369,3.785l0.293-2.36
	c0.06-0.414-0.029-0.742-0.266-0.979c-0.18-0.237-0.373-0.371-0.581-0.4C131.986,191.255,131.854,191.24,131.793,191.24z
	 M27.187,226.799H2.308c-0.299,0-0.521-0.045-0.669-0.134c-0.149-0.089-0.283-0.192-0.401-0.312
	c-0.12-0.237-0.178-0.459-0.178-0.668c0-0.207,0.029-0.343,0.089-0.402l2.408-19.885c0.236-1.604,0.029-2.822-0.624-3.656
	c-0.356-0.355-0.713-0.594-1.071-0.715c-0.238-0.057-0.416-0.088-0.535-0.088v-0.713c0.654-0.119,1.173-0.326,1.561-0.623
	c0.386-0.299,0.772-0.744,1.16-1.338c0.386-0.595,0.638-1.457,0.758-2.586l2.006-16.061l13.191,3.846l-1.197,9.628
	c-0.06,0.179-0.031,0.326,0.089,0.445c0.059,0.119,0.208,0.178,0.445,0.178h9.72c0.059,0,0.385-0.073,0.981-0.223
	c0.594-0.147,0.951-0.669,1.07-1.562l0.627-5.046l13.188,3.847l-0.619,5.033c-0.178,1.547-0.58,2.676-1.204,3.389
	c-0.625,0.715-1.204,1.191-1.739,1.429c0.356,0.237,0.624,0.444,0.803,0.624c0.832,0.952,1.159,2.29,0.98,4.012l-0.088,0.18v0.268
	c-0.238,1.843-0.462,3.582-0.669,5.216c-0.209,1.638-0.312,2.513-0.312,2.632c-0.357,2.854-1.146,5.129-2.364,6.82
	c-1.219,1.693-2.572,3.02-4.057,3.969c-1.486,0.952-2.943,1.592-4.369,1.918c-1.427,0.327-2.498,0.521-3.211,0.579L27.187,226.799
	L27.187,226.799z M26.652,213.156c0.058,0,0.385-0.09,0.981-0.27c0.593-0.178,0.95-0.713,1.07-1.604l0.268-2.229
	c0.058-0.477-0.031-0.892-0.268-1.25c-0.239-0.236-0.566-0.355-0.981-0.355h-9.987c-0.06,0-0.193,0.029-0.401,0.09
	c-0.209,0.061-0.343,0.268-0.402,0.625l-0.535,4.279c-0.06,0.238-0.03,0.416,0.089,0.535c0.059,0.119,0.208,0.179,0.446,0.179
	L26.652,213.156L26.652,213.156z M106.906,196.938c-0.357,0.595-0.729,1.041-1.116,1.338c-0.387,0.298-0.907,0.504-1.56,0.623v0.713
	c0.179,0,0.357,0.031,0.535,0.091c0.236,0.118,0.564,0.356,0.981,0.712c0.653,0.714,0.891,1.934,0.713,3.656l-0.25,2.004
	l13.16,3.838l0.376-3.076c0.059-0.357,0.207-0.564,0.446-0.625c0.237-0.061,0.386-0.089,0.447-0.089h10.79
	c0.236,0,0.534-0.103,0.89-0.312c0.358-0.209,0.566-0.582,0.626-1.117l0.878-7.086l-8.628-5.129h-2.951
	c-0.24,0-0.387-0.09-0.446-0.269c-0.12-0.06-0.178-0.207-0.178-0.444l0.169-1.312l-12.653-7.523l-1.428,11.422
	C107.529,195.48,107.261,196.342,106.906,196.938z M78.459,225.729c0,0.179,0.119,0.388,0.356,0.625
	c0.297,0.299,0.683,0.445,1.159,0.445h10.522h0.089c0.237,0,0.536-0.104,0.892-0.312c0.356-0.205,0.564-0.579,0.624-1.113
	l1.249-9.986c0.178-1.25,0.341-2.482,0.49-3.701c0.148-1.218,0.282-2.304,0.401-3.254c0.118-0.945,0.266-2.01,0.443-3.188
	L56.539,194.12l-0.194,1.56c-0.12,1.129-0.372,1.991-0.758,2.586c-0.388,0.594-0.774,1.039-1.159,1.338
	c-0.389,0.297-0.908,0.504-1.562,0.623v0.713c0.119,0,0.297,0.031,0.536,0.088c0.357,0.121,0.713,0.357,1.07,0.715
	c0.653,0.834,0.861,2.052,0.624,3.656l-2.408,19.885c-0.059,0.061-0.088,0.195-0.088,0.402c0,0.209,0.059,0.431,0.178,0.668
	c0.119,0.119,0.252,0.224,0.401,0.312c0.149,0.088,0.371,0.134,0.669,0.134h10.701c0.653,0,1.099-0.162,1.337-0.49
	c0.238-0.326,0.357-0.638,0.357-0.937l2.229-17.209c0.059-0.358,0.192-0.565,0.402-0.625c0.208-0.06,0.341-0.09,0.401-0.09h9.987
	c0.416,0,0.742,0.12,0.981,0.356c0.237,0.357,0.326,0.772,0.268,1.248l-2.051,16.318C78.399,225.491,78.399,225.609,78.459,225.729z
	 M30.653,183.164l13.188,3.846l1.814-14.764c0.535-3.804-0.208-6.896-2.229-9.274c-0.892-0.95-1.873-1.708-2.942-2.273
	c-1.071-0.565-2.067-0.967-2.988-1.205c-0.922-0.236-1.709-0.386-2.363-0.445c-0.655-0.059-1.012-0.089-1.07-0.089H9.184
	c-0.239,0-0.521,0.105-0.847,0.312c-0.328,0.209-0.551,0.58-0.669,1.115l-1.939,15.511l13.19,3.847l0.788-6.339
	c0.058-0.357,0.192-0.579,0.401-0.669c0.208-0.089,0.371-0.133,0.491-0.133h9.629c0.119,0,0.269,0.03,0.447,0.088
	c0.357,0.12,0.625,0.268,0.803,0.447c0.296,0.297,0.385,0.713,0.267,1.248L30.653,183.164z M142.841,226.441
	c0.357-0.178,0.565-0.535,0.624-1.069l0.706-5.702l-22.646-6.604h-1.689c-0.239,0-0.417-0.061-0.535-0.18
	c-0.06-0.058-0.09-0.207-0.09-0.445l0.006-0.047l-13.164-3.84l-2.091,16.728c-0.06,0.418,0.03,0.745,0.268,0.981
	c0.179,0.237,0.386,0.372,0.624,0.4c0.237,0.029,0.386,0.045,0.446,0.045h36.65C142.188,226.71,142.485,226.62,142.841,226.441z
	 M61.962,160.197h8.941l27.178,16.161l-2.233,18.17c-0.178,1.548-0.58,2.676-1.203,3.39c-0.625,0.714-1.205,1.188-1.74,1.429
	c0.357,0.237,0.625,0.442,0.803,0.623c0.617,0.706,0.953,1.627,1.015,2.756l-38.026-11.088l3.751-30.012
	c0.118-0.536,0.341-0.906,0.669-1.115C61.441,160.303,61.724,160.197,61.962,160.197z M70.434,192.3
	c0.059,0.119,0.208,0.179,0.446,0.179h9.72c0.058,0,0.386-0.074,0.98-0.225c0.594-0.146,0.951-0.668,1.071-1.561l1.872-15.069
	c0.118-0.534,0.029-0.951-0.267-1.249c-0.178-0.179-0.446-0.326-0.803-0.446c-0.178-0.058-0.328-0.089-0.446-0.089h-9.63
	c-0.12,0-0.283,0.044-0.491,0.133c-0.209,0.09-0.343,0.312-0.401,0.669l-2.14,17.209C70.285,192.031,70.314,192.182,70.434,192.3z
	 M95.957,169.769c0.535-3.804-0.209-6.896-2.229-9.274c-0.893-0.951-1.874-1.708-2.943-2.273c-1.069-0.565-2.066-0.966-2.987-1.205
	c-0.922-0.235-1.709-0.386-2.363-0.445c-0.655-0.059-1.011-0.09-1.07-0.09H70.849l24.919,14.817L95.957,169.769z M2.774,332.838
	h91.275v-4.587H2.774V332.838z M294.934,332.838h91.276v-4.587h-91.276V332.838z M194.076,85.434c2.794,0,4.24-1.162,4.556-3.653
	l0.022-0.183h3.498V79.22h-0.197c-0.245,0.508-0.661,0.746-1.296,0.746h-5.606l-0.511,2.06h0.104
	c0.28-0.276,0.624-0.396,1.133-0.396h0.826l-0.041,0.244c-0.129,0.786-0.791,1.581-1.977,1.581c-1.225,0-2.113-0.908-2.113-2.161
	c0-1.465,0.897-2.317,2.533-2.418v-1.545c-0.982-0.046-2.034-0.421-2.034-1.363c0-0.745,0.62-1.084,1.202-1.084
	c0.872,0.019,1.391,0.773,1.617,1.207h0.217l-0.27-2.642h-0.25l-0.276,0.388l-0.147-0.052c-0.711-0.25-1.099-0.353-1.667-0.353
	c-1.286,0-2.585,0.692-2.585,2.237c0,0.922,0.543,1.585,1.614,1.97l0.664,0.238l-0.688,0.164c-1.742,0.413-2.781,1.684-2.781,3.401
	C189.624,82.934,190.202,85.434,194.076,85.434z M193.625,109.523c0.004-0.568-0.2-0.843-0.96-0.851
	c-0.266-0.001-0.532-0.004-0.797-0.007c-0.006,0.577-0.014,1.152-0.021,1.729c0.259,0.004,0.518,0.006,0.776,0.009
	C193.318,110.408,193.624,110.157,193.625,109.523z M185.401,108.348c-0.935-0.039-1.417,0.62-1.491,2.132
	c-0.076,1.52,0.408,2.221,1.363,2.262c0.957,0.039,1.438-0.623,1.492-2.143C186.819,109.087,186.338,108.385,185.401,108.348z
	 M172.743,108.439c0.057-0.566-0.121-0.86-0.876-0.938c-0.264-0.028-0.526-0.055-0.792-0.085c-0.061,0.574-0.124,1.146-0.184,1.72
	c0.255,0.027,0.512,0.056,0.771,0.083C172.354,109.29,172.679,109.07,172.743,108.439z M143.283,104.282
	c1.795-1.666,3.56-3.351,5.288-5.058c-0.85-2.275-1.661-4.553-2.435-6.835c4.46,1.071,8.953,1.993,13.459,2.764
	c-2.598,1.623-5.256,3.198-7.975,4.72c1.058,0.218,2.119,0.425,3.179,0.625c0.272,0.052,0.544,0.102,0.816,0.151
	c0.815,0.153,1.636,0.299,2.452,0.441c3.372,0.583,6.758,1.085,10.148,1.505c-0.141-0.164-0.284-0.326-0.423-0.493l-0.023-0.03
	l-0.024-0.027c-2.274-2.827-3.956-6.619-5.14-11.589c-0.907-3.799-1.525-8.24-1.943-13.979c-0.337-4.675-0.483-9.46-0.622-14.089
	c-0.146-4.849-0.283-9.428-0.631-13.331l-0.043-0.497l-0.493-5.596l5.501,1.138c0.06,0.011,5.853,1.193,12.488,1.193
	c6.956,0,12.21-1.341,14.803-3.779l2.853-2.758l2.904,2.744c2.587,2.446,7.848,3.793,14.816,3.793
	c6.592,0,12.434-1.183,12.486-1.193l5.5-1.138l-0.49,5.596l-0.045,0.499c-0.344,3.901-0.485,8.48-0.629,13.329
	c-0.141,4.628-0.285,9.414-0.621,14.093c-0.629,8.583-2,19.247-7.082,25.564l-0.025,0.027l-0.025,0.03
	c-0.135,0.162-0.272,0.32-0.41,0.481c3.36-0.418,6.713-0.915,10.059-1.496c0.805-0.14,1.607-0.283,2.41-0.431
	c0.277-0.052,0.557-0.103,0.836-0.156c1.052-0.198,2.098-0.402,3.146-0.618c-2.699-1.512-5.341-3.077-7.922-4.689
	c-0.002-0.015-0.004-0.027-0.007-0.041c4.509-0.771,8.996-1.692,13.459-2.764c-0.771,2.282-1.584,4.56-2.435,6.835
	c1.728,1.707,3.49,3.392,5.289,5.058c-2.362,0.566-4.732,1.094-7.106,1.582c0.409,1.995,0.817,3.994,1.228,5.99
	c-11.847,2.431-23.84,3.896-35.865,4.401c-3.326,1.869-6.217,3.112-8.127,3.742l-1.309,0.432l-1.311-0.432
	c-1.908-0.63-4.796-1.872-8.118-3.737c-12.057-0.502-24.083-1.969-35.961-4.406c0.409-1.997,0.819-3.995,1.227-5.99
	C148.015,105.377,145.646,104.849,143.283,104.282z M227.256,105.501c0.036,0.24,0.075,0.479,0.111,0.72
	c0.262-0.042,0.525-0.083,0.787-0.123c0.209,1.333,0.418,2.664,0.625,3.996c-0.266,0.042-0.531,0.084-0.801,0.125
	c0.037,0.239,0.068,0.478,0.107,0.718c1.898-0.289,3.791-0.602,5.684-0.942c-0.129-0.712-0.256-1.426-0.386-2.138
	c-0.255,0.044-0.513,0.091-0.769,0.137c-0.014,1.18-0.07,1.497-0.971,1.65c-0.468,0.079-0.937,0.159-1.406,0.234
	c-0.094-0.571-0.188-1.143-0.28-1.715c0.158-0.026,0.319-0.052,0.478-0.079c0.486-0.081,0.576,0.006,0.797,0.664
	c0.229-0.039,0.461-0.078,0.69-0.118c-0.125-0.732-0.252-1.466-0.376-2.199c-0.23,0.039-0.458,0.079-0.689,0.118
	c-0.008,0.687-0.035,0.785-0.531,0.868c-0.159,0.025-0.315,0.054-0.477,0.079c-0.09-0.548-0.179-1.095-0.268-1.643
	c0.47-0.077,0.943-0.155,1.417-0.236c0.735-0.125,0.899,0.05,1.301,1.04c0.255-0.044,0.509-0.091,0.765-0.135
	c-0.115-0.643-0.229-1.285-0.344-1.926C230.9,104.92,229.082,105.223,227.256,105.501z M220.93,109.175
	c0.201,1.684,1.525,2.689,3.372,2.442c1.603-0.218,2.341-1.251,2.284-2.678c-0.285,0.042-0.568,0.083-0.854,0.123
	c-0.021,0.933-0.441,1.627-1.33,1.748c-1.014,0.137-1.711-0.423-1.902-1.915c-0.199-1.559,0.309-2.203,1.129-2.316
	c0.73-0.099,1.293,0.337,1.787,1.288c0.292-0.041,0.586-0.083,0.876-0.125c-0.104-0.722-0.213-1.445-0.317-2.166
	c-0.263,0.037-0.525,0.076-0.785,0.112c-0.034,0.219-0.064,0.438-0.098,0.656c-0.408-0.356-0.992-0.52-1.729-0.42
	C221.861,106.127,220.727,107.473,220.93,109.175z M174.912,111.572c-0.173-0.067-0.345-0.137-0.518-0.206
	c-0.157,0.362-0.278,0.469-0.403,0.458c-0.179-0.018-0.251-0.107-0.235-0.467c0.001-0.11,0.001-0.219,0.002-0.328
	c0.035-0.652-0.287-1.15-1.397-1.355c0-0.019,0.003-0.039,0.005-0.06c1.395-0.01,1.881-0.513,1.941-1.17
	c0.063-0.692-0.463-1.441-2.208-1.619c-1.057-0.11-2.113-0.228-3.168-0.354c-0.029,0.241-0.057,0.481-0.086,0.724
	c0.264,0.03,0.527,0.062,0.791,0.093c-0.151,1.339-0.306,2.678-0.461,4.018c-0.268-0.032-0.538-0.062-0.807-0.095
	c-0.028,0.241-0.057,0.481-0.085,0.722c1.038,0.124,2.074,0.238,3.113,0.347c0.025-0.242,0.05-0.481,0.076-0.724
	c-0.279-0.029-0.557-0.058-0.835-0.088c0.061-0.554,0.122-1.107,0.181-1.662c0.241,0.026,0.486,0.052,0.73,0.078
	c0.657,0.068,0.786,0.333,0.734,0.94c-0.008,0.094-0.014,0.189-0.021,0.285c-0.094,0.913,0.275,1.405,1.206,1.494
	C174.277,112.683,174.683,112.216,174.912,111.572z M181.374,107.588c-1.798-0.108-3.595-0.24-5.393-0.395
	c-0.021,0.241-0.042,0.483-0.063,0.726c0.267,0.022,0.531,0.044,0.795,0.067c-0.109,1.342-0.22,2.687-0.332,4.03
	c-0.269-0.021-0.539-0.043-0.808-0.066c-0.02,0.242-0.041,0.482-0.06,0.723c1.087,0.094,2.174,0.179,3.262,0.256
	c0.016-0.242,0.037-0.483,0.054-0.726c-0.329-0.022-0.654-0.048-0.982-0.071c0.04-0.54,0.082-1.079,0.123-1.617
	c0.125,0.01,0.25,0.018,0.376,0.027c0.49,0.036,0.571,0.15,0.611,0.849c0.233,0.016,0.466,0.032,0.7,0.048
	c0.051-0.75,0.103-1.502,0.153-2.251c-0.231-0.016-0.463-0.033-0.69-0.049c-0.155,0.667-0.225,0.756-0.725,0.72
	c-0.126-0.009-0.248-0.018-0.374-0.028c0.044-0.583,0.089-1.167,0.131-1.75c0.403,0.03,0.803,0.059,1.203,0.086
	c0.744,0.051,0.926,0.223,1.127,1.366c0.258,0.018,0.518,0.032,0.774,0.047C181.294,108.918,181.333,108.254,181.374,107.588z
	 M188.354,110.641c0.044-1.747-1.174-2.905-2.895-2.978c-1.681-0.071-3.038,1.024-3.14,2.743c-0.1,1.744,1.122,2.945,2.898,3.019
	C186.949,113.498,188.309,112.369,188.354,110.641z M196.079,112.435c-0.177-0.051-0.354-0.104-0.532-0.156
	c-0.121,0.377-0.231,0.496-0.358,0.496c-0.18,0-0.261-0.084-0.28-0.443c-0.011-0.109-0.017-0.217-0.027-0.326
	c-0.029-0.652-0.396-1.116-1.521-1.215c0-0.019,0-0.039,0-0.058c1.384-0.145,1.821-0.692,1.816-1.352
	c-0.002-0.694-0.594-1.39-2.35-1.401c-1.059-0.008-2.12-0.025-3.181-0.049c-0.005,0.243-0.012,0.485-0.017,0.728
	c0.265,0.006,0.532,0.012,0.797,0.017c-0.027,1.348-0.05,2.696-0.077,4.043c-0.271-0.003-0.54-0.01-0.812-0.016
	c-0.005,0.242-0.011,0.483-0.015,0.727c1.042,0.023,2.085,0.038,3.127,0.047c0.002-0.241,0.003-0.485,0.005-0.727
	c-0.278-0.003-0.557-0.005-0.837-0.009c0.008-0.556,0.013-1.114,0.021-1.671c0.243,0.002,0.486,0.005,0.731,0.007
	c0.662,0.006,0.814,0.257,0.819,0.868c0.003,0.094,0.004,0.189,0.008,0.284c-0.005,0.919,0.409,1.373,1.341,1.373
	C195.555,113.601,195.913,113.096,196.079,112.435z M204.979,113.239c-0.013-0.242-0.021-0.483-0.035-0.727
	c-0.264,0.014-0.528,0.024-0.791,0.037c-0.06-1.347-0.117-2.695-0.178-4.041c0.262-0.012,0.52-0.023,0.778-0.035
	c-0.011-0.243-0.022-0.485-0.032-0.728c-0.912,0.043-1.828,0.081-2.742,0.112c-0.351,1.144-0.709,2.287-1.074,3.43
	c-0.008,0-0.018,0-0.025,0c-0.456-1.117-0.906-2.237-1.35-3.36c-0.932,0.023-1.865,0.038-2.795,0.047
	c0.002,0.242,0.002,0.486,0.007,0.728c0.254-0.003,0.508-0.006,0.761-0.01c0.02,1.349,0.039,2.696,0.057,4.044
	c-0.259,0.004-0.519,0.008-0.773,0.01c0.001,0.242,0.005,0.484,0.009,0.727c0.774-0.007,1.554-0.02,2.33-0.036
	c-0.005-0.243-0.011-0.483-0.015-0.727c-0.25,0.005-0.502,0.01-0.75,0.015c-0.021-1.291-0.043-2.579-0.066-3.871
	c0.027,0,0.055,0,0.081,0c0.619,1.524,1.252,3.045,1.896,4.565c0.205-0.005,0.406-0.011,0.605-0.016
	c0.544-1.552,1.068-3.105,1.587-4.661c0.026-0.001,0.054-0.001,0.08-0.002c0.047,1.288,0.095,2.577,0.142,3.867
	c-0.246,0.008-0.496,0.017-0.746,0.027c0.008,0.241,0.016,0.483,0.024,0.725C202.967,113.326,203.975,113.286,204.979,113.239z
	 M205.697,101.296c0.734,0.289,2.205,0.778,3.783,0.778c4.463,0,5.129-2.908,5.129-4.641c0-1.254-0.662-2.363-1.284-2.985
	c-0.974-0.974-2.449-1.673-3.75-2.292c-1.021-0.483-1.903-0.903-2.359-1.369c-0.376-0.351-0.457-0.764-0.457-1.051
	c0-0.859,0.746-1.732,2.173-1.732c2.416,0,3.873,1.988,4.443,2.957h0.504l-0.527-4.763h-0.244l-0.618,0.711l-0.244-0.12
	c-0.761-0.372-1.708-0.834-3.578-0.834c-3.208,0-4.644,1.965-4.644,3.913c0,1.119,0.422,2.211,1.129,2.918
	c0.824,0.823,2.052,1.409,3.236,1.978c1.08,0.519,2.101,1.007,2.721,1.639c0.574,0.553,0.654,1.043,0.654,1.492
	c0,1.004-0.779,2.019-2.522,2.019c-1.941,0-4.142-1.255-5.275-3h-0.516l1.343,4.961h0.266l0.496-0.639L205.697,101.296z
	 M212.516,112.756c-0.02-0.242-0.039-0.483-0.06-0.726c-0.235,0.02-0.466,0.038-0.703,0.057c-0.749-1.549-1.487-3.101-2.212-4.657
	c-0.479,0.035-0.963,0.066-1.441,0.094c-0.521,1.64-1.059,3.274-1.606,4.91c-0.216,0.012-0.435,0.023-0.649,0.034
	c0.014,0.242,0.025,0.483,0.036,0.726c0.763-0.039,1.524-0.081,2.286-0.128c-0.016-0.242-0.03-0.483-0.045-0.726
	c-0.246,0.016-0.498,0.03-0.748,0.044c0.107-0.349,0.212-0.698,0.316-1.047c0.67-0.042,1.345-0.084,2.017-0.129
	c0.147,0.332,0.299,0.666,0.448,0.998c-0.268,0.019-0.532,0.039-0.801,0.055c0.016,0.243,0.031,0.485,0.049,0.726
	C210.438,112.918,211.477,112.841,212.516,112.756z M218.844,107.349c0.254-0.028,0.508-0.057,0.758-0.087
	c-0.026-0.24-0.056-0.48-0.086-0.721c-0.771,0.089-1.548,0.175-2.322,0.256c0.024,0.241,0.05,0.481,0.074,0.723
	c0.264-0.027,0.529-0.055,0.795-0.085c0.109,1.035,0.227,2.067,0.336,3.102c-0.027,0.002-0.055,0.005-0.08,0.007
	c-0.969-1.184-1.926-2.375-2.864-3.57c-0.82,0.079-1.642,0.155-2.462,0.225c0.021,0.242,0.041,0.482,0.062,0.724
	c0.252-0.021,0.506-0.043,0.758-0.067c0.121,1.344,0.237,2.687,0.359,4.029c-0.257,0.024-0.518,0.046-0.773,0.069
	c0.021,0.24,0.041,0.481,0.062,0.723c0.796-0.067,1.593-0.14,2.39-0.216c-0.021-0.242-0.045-0.482-0.068-0.725
	c-0.271,0.027-0.541,0.052-0.812,0.078c-0.104-1.149-0.21-2.298-0.317-3.446c0.027-0.003,0.054-0.005,0.08-0.007
	c1.041,1.33,2.103,2.653,3.178,3.968c0.494-0.053,0.984-0.106,1.479-0.162C219.207,110.56,219.023,108.956,218.844,107.349z
	 M169.698,53.516c0.554,0.199,0.926,0.713,0.926,1.303v12.24c0,0.656-0.318,1.087-0.902,1.232v0.168h4.917v-0.18
	c-0.804-0.358-0.951-0.897-0.951-1.86v-5.216h9.527v5.702c0,0.637-0.334,1.128-0.903,1.343v0.21h4.896V68.21
	c-0.584-0.198-0.926-0.725-0.926-1.439V54.776c0-0.515,0.281-1.094,0.904-1.306v-0.249h-4.917v0.248
	c0.597,0.198,0.946,0.733,0.946,1.461v4.135h-9.527v-4.29c0-0.569,0.366-1.066,0.907-1.26v-0.294h-4.898L169.698,53.516
	L169.698,53.516z M171,99.423c1.146,1.371,2.354,2.659,3.596,3.868c6.622,0.622,13.267,0.934,19.91,0.934V87.32
	c3.503-0.136,5.049-1.917,5.682-3.823h3.864v-3.531h19.89c0.125-1.247,0.232-2.512,0.326-3.792
	c0.688-9.486,0.568-19.698,1.26-27.485l0.045-0.497c0,0-6.197,1.281-13.336,1.281c-6.398,0-13.557-1.029-17.687-4.936V71.55h-0.039
	l-0.059,0.082c-0.322-0.062-0.662-0.099-1.053-0.099c-2.599,0-4.485,1.741-4.485,4.137c0,0.681,0.161,1.304,0.468,1.852
	c-0.75,0.684-1.264,1.573-1.502,2.597h-22.707C165.984,88.05,167.546,95.131,171,99.423z M161.261,110.988
	c1.899,0.288,3.799,0.549,5.702,0.786c0.087-0.718,0.178-1.437,0.268-2.156c-0.257-0.032-0.516-0.064-0.775-0.098
	c-0.36,1.125-0.508,1.41-1.413,1.289c-0.47-0.063-0.943-0.126-1.414-0.193c0.081-0.573,0.161-1.147,0.242-1.722
	c0.161,0.023,0.319,0.046,0.48,0.068c0.486,0.066,0.545,0.175,0.561,0.869c0.231,0.032,0.463,0.063,0.696,0.094
	c0.096-0.738,0.194-1.475,0.291-2.213c-0.23-0.03-0.46-0.062-0.688-0.092c-0.214,0.654-0.271,0.739-0.767,0.67
	c-0.16-0.021-0.318-0.043-0.478-0.065c0.077-0.549,0.153-1.098,0.23-1.649c0.476,0.068,0.951,0.132,1.424,0.196
	c0.737,0.1,0.844,0.314,0.93,1.379c0.258,0.032,0.514,0.065,0.768,0.097c0.084-0.646,0.165-1.293,0.246-1.94
	c-1.83-0.229-3.658-0.483-5.481-0.757c-0.036,0.24-0.073,0.48-0.108,0.719c0.261,0.041,0.527,0.08,0.789,0.118
	c-0.195,1.333-0.393,2.668-0.589,4.002c-0.269-0.04-0.536-0.079-0.804-0.12C161.333,110.509,161.298,110.749,161.261,110.988z
	 M154.65,109.889c1.041,0.189,2.084,0.37,3.127,0.545c0.042-0.238,0.082-0.479,0.122-0.717c-0.289-0.048-0.578-0.097-0.867-0.146
	c0.082-0.461,0.158-0.923,0.239-1.384c0.225,0.039,0.45,0.078,0.671,0.114c1.837,0.307,2.645-0.336,2.79-1.267
	c0.151-0.967-0.444-1.757-2.246-2.059c-0.952-0.159-1.904-0.325-2.852-0.5c-0.043,0.24-0.087,0.477-0.129,0.716
	c0.262,0.049,0.523,0.095,0.786,0.143c-0.237,1.327-0.474,2.654-0.71,3.982c-0.267-0.049-0.536-0.096-0.801-0.145
	C154.736,109.411,154.693,109.649,154.65,109.889z M159.204,106.781c0.101-0.627-0.082-0.994-0.93-1.137
	c-0.185-0.031-0.368-0.062-0.551-0.094c-0.111,0.651-0.224,1.303-0.335,1.952c0.188,0.032,0.375,0.064,0.564,0.097
	C158.811,107.743,159.095,107.441,159.204,106.781z M208.52,108.564c-0.205,0.7-0.416,1.399-0.627,2.1
	c0.512-0.032,1.023-0.064,1.535-0.099c-0.294-0.668-0.584-1.334-0.873-2.002C208.541,108.562,208.532,108.564,208.52,108.564z
	 M136.517,136.352h-1.684v-10.398h3.776c2.23,0,3.641,1.367,3.641,3.491c0,2.346-1.725,3.564-3.832,3.564h-1.901V136.352z
	 M136.517,131.36h1.955c1.272,0,2.066-0.758,2.066-1.871c0-1.233-0.807-1.872-2.066-1.872h-1.955V131.36z M156.358,132.415
	l2.586,3.937h-1.984l-2.353-3.625H152.5v3.625h-1.684v-10.398h4.269c2.203,0,3.558,1.263,3.558,3.297
	C158.644,130.974,157.699,132.014,156.358,132.415z M156.933,129.355c0-1.144-0.739-1.738-1.984-1.738H152.5v3.49h2.463
	C156.167,131.107,156.933,130.425,156.933,129.355z M174.656,127.587v-1.634h-7.101v10.398h7.17v-1.634h-5.486v-2.793h4.802v-1.633
	h-4.802v-2.704H174.656L174.656,127.587z M186.961,134.881c-1.191,0-2.107-0.49-3.024-1.352l-1.013,1.307
	c1.15,1.114,2.531,1.664,3.996,1.664c2.011,0,3.42-1.159,3.42-3.12c0-1.738-1.053-2.525-3.079-3.06
	c-1.833-0.475-2.27-0.831-2.27-1.648c0-0.698,0.574-1.248,1.559-1.248c0.875,0,1.738,0.372,2.6,1.069l0.902-1.381
	c-0.971-0.846-2.079-1.306-3.475-1.306c-1.902,0-3.271,1.217-3.271,3.03c0,1.931,1.149,2.584,3.188,3.12
	c1.779,0.445,2.162,0.847,2.162,1.604C188.656,134.361,188,134.881,186.961,134.881z M206.27,127.587v-1.634h-7.102v10.398h7.169
	v-1.634h-5.485v-2.793h4.801v-1.633h-4.801v-2.704H206.27L206.27,127.587z M221.871,133.143l-5.131-7.189h-1.561v10.398h1.655
	v-7.397l5.282,7.397h1.408v-10.398h-1.655L221.871,133.143L221.871,133.143z M236.885,136.352v-8.705h3.038v-1.693h-7.772v1.693
	h3.039v8.705H236.885z M251.736,134.881c-1.19,0-2.108-0.49-3.024-1.352l-1.014,1.307c1.151,1.114,2.532,1.664,3.995,1.664
	c2.013,0,3.423-1.159,3.423-3.12c0-1.738-1.054-2.525-3.078-3.06c-1.834-0.475-2.271-0.831-2.271-1.648
	c0-0.698,0.571-1.248,1.559-1.248c0.875,0,1.738,0.372,2.6,1.069l0.901-1.381c-0.972-0.846-2.077-1.306-3.474-1.306
	c-1.902,0-3.271,1.217-3.271,3.03c0,1.931,1.149,2.584,3.188,3.12c1.777,0.445,2.16,0.847,2.16,1.604
	C253.432,134.361,252.773,134.881,251.736,134.881z"/>
</svg>
