<?xml version="1.0" encoding="utf-8"?>
<!-- Generator: Adobe Illustrator 16.2.1, SVG Export Plug-In . SVG Version: 6.00 Build 0)  -->
<!DOCTYPE svg PUBLIC "-//W3C//DTD SVG 1.1//EN" "http://www.w3.org/Graphics/SVG/1.1/DTD/svg11.dtd">
<svg version="1.1" id="Layer_1" xmlns="http://www.w3.org/2000/svg" xmlns:xlink="http://www.w3.org/1999/xlink" x="0px" y="0px"
	 width="300px" height="230px" viewBox="0 0 300 230" enable-background="new 0 0 300 230" xml:space="preserve">
<g>
	<polygon fill="#FFFFFF" points="202.192,206.75 208.635,206.75 210.851,212.401 211.122,212.401 213.338,206.75 219.861,206.75 
		214.346,217.185 219.979,228.884 213.575,228.884 211.122,222.581 210.851,222.581 208.398,228.884 202.034,228.884 
		207.668,217.185 	"/>
	<path fill="#FFFFFF" d="M194.486,221.884h-3.254l1.104-7.756c0.153-0.99,0.295-1.98,0.354-2.975h0.296
		c0.045,0.499,0.088,0.995,0.146,1.491C193.567,215.723,194.036,218.806,194.486,221.884z M183.678,228.884h6.597l0.554-2.904h4.022
		l0.554,2.904h6.597l-5.235-22.134h-7.852L183.678,228.884z"/>
	<path fill="#FFFFFF" d="M160.101,206.75h7.458l2.381,7.617c0.305,0.963,0.54,1.937,0.711,2.915h0.301
		c0.103-0.98,0.361-1.968,0.668-2.946l2.421-7.586h7.46v22.134h-5.724c0.004-3.597-0.016-7.188,0.013-10.787
		c0.029-0.811,0.11-1.623,0.221-2.434h-0.415l-3.245,13.221h-3.101l-3.245-13.221h-0.415c0.145,1.085,0.235,2.165,0.235,3.25v9.971
		h-5.724V206.75z"/>
	<path fill="#FFFFFF" d="M150.401,221.884h-3.255l1.104-7.756c0.155-0.99,0.297-1.98,0.355-2.975h0.295
		c0.043,0.499,0.087,0.995,0.146,1.491C149.48,215.723,149.95,218.806,150.401,221.884z M139.592,228.884h6.596l0.555-2.904h4.023
		l0.554,2.904h6.595l-5.234-22.134h-7.851L139.592,228.884z"/>
	<path fill="#FFFFFF" d="M127.745,216.142v-5.361c0.148-0.01,0.3-0.015,0.451-0.024c0.849,0,1.718-0.072,2.542,0.4
		c0.252,0.173,0.397,0.367,0.507,0.575c0.12,0.262,0.195,0.53,0.231,0.802c0.07,0.773,0.093,1.543-0.076,2.312
		c-0.096,0.33-0.243,0.703-0.652,0.949C129.742,216.309,128.744,216.168,127.745,216.142z M121.228,228.884h6.594v-8.989
		c0.527-0.037,1.052-0.037,1.577,0.037c0.41,0.072,0.862,0.221,1.214,0.563c0.135,0.139,0.232,0.312,0.331,0.487
		c0.138,0.309,0.184,0.62,0.219,0.928c-0.024,1.306-0.006,2.611,0.071,3.915c0.094,1.024,0.153,2.083,0.971,3.059h6.316
		c-0.261-0.507-0.44-1.029-0.554-1.536c-0.371-1.882-0.407-3.752-0.487-5.627c-0.071-0.493-0.193-0.986-0.375-1.477
		c-0.143-0.296-0.285-0.591-0.477-0.851c-0.192-0.258-0.433-0.48-0.675-0.701c-0.516-0.398-1.05-0.608-1.56-0.738
		c0.74-0.239,1.461-0.536,2.19-1.215c0.182-0.206,0.366-0.412,0.512-0.64c0.146-0.229,0.254-0.482,0.36-0.734
		c0.089-0.256,0.157-0.514,0.201-0.773c0.181-1.163,0.088-2.314-0.138-3.471c-0.104-0.376-0.208-0.755-0.371-1.105
		c-0.162-0.351-0.382-0.673-0.601-0.997c-0.245-0.284-0.49-0.569-0.777-0.804c-0.285-0.233-0.612-0.417-0.938-0.601
		c-0.234-0.105-0.466-0.212-0.706-0.295c-1.57-0.475-3.102-0.534-4.642-0.579c-2.753,0.019-5.504,0.006-8.257,0.01V228.884z"/>
	<path fill="#FFFFFF" d="M100.534,206.75h6.636c0.002,5.31-0.016,10.62,0.011,15.93c0.014,0.443,0.067,0.864,0.229,1.317
		c0.033,0.075,0.077,0.146,0.121,0.219c0.196,0.267,0.429,0.393,0.681,0.467c0.507,0.104,0.989,0.115,1.522-0.068
		c0.089-0.039,0.171-0.093,0.253-0.148c0.704-0.675,0.537-1.489,0.6-2.242c0.003-5.158,0.004-10.315,0.003-15.474h6.673
		c-0.005,5.243,0.013,10.49-0.011,15.737c-0.094,1.529-0.206,3.055-1.513,4.616c-0.297,0.354-0.771,0.738-1.164,0.98
		c-1.771,1.056-3.596,1.148-5.4,1.229c-2.002-0.041-4.031-0.039-6.059-1.271c-0.263-0.177-0.52-0.377-0.771-0.604
		c-0.25-0.27-0.498-0.538-0.7-0.837c-0.499-0.771-0.804-1.611-0.937-2.43c-0.115-0.71-0.172-1.423-0.175-2.137V206.75z"/>
	<path fill="#FFFFFF" d="M87.029,224.818v-14.034c0.151-0.002,0.301-0.002,0.452,0c0.729,0.025,1.467-0.034,2.174,0.526
		c0.502,0.523,0.493,1.002,0.543,1.487c0.028,3.194,0.009,6.382,0.013,9.574c-0.009,0.534-0.008,1.074-0.283,1.593
		c-0.157,0.266-0.336,0.412-0.527,0.529C88.599,224.885,87.818,224.804,87.029,224.818z M80.355,228.884h6.724
		c1.258,0.002,2.519-0.058,3.775-0.254c1.417-0.288,2.869-0.603,4.243-1.979c0.621-0.644,0.994-1.312,1.262-2.016
		c0.808-2.296,0.773-4.559,0.684-6.835c0.078-2.062,0.086-4.128-0.451-6.182c-0.174-0.506-0.347-1.013-0.611-1.469
		c-0.264-0.454-0.616-0.858-0.969-1.261c-0.616-0.622-1.296-0.994-1.911-1.269c-1.623-0.662-3.236-0.796-4.834-0.852
		c-2.638-0.041-5.274-0.013-7.912-0.019V228.884z"/>
</g>
<g>
	<path fill="#FFFFFF" d="M135.065,109.881l1.49-11.722c0.044-0.318,0.146-0.582,0.308-0.787c0.16-0.205,0.33-0.353,0.512-0.444
		c0.182-0.091,0.434-0.159,0.753-0.205h6.632c0.091,0,0.204,0.023,0.341,0.067c0.272,0.092,0.479,0.205,0.616,0.342
		c0.226,0.228,0.295,0.547,0.204,0.957l-1.33,10.465c2.986,0.05,6.417,0.48,10.327,1.486l1.67-13.592
		c0.409-3.008-0.183-5.401-1.777-7.179c-0.64-0.729-1.369-1.299-2.188-1.709c-0.819-0.41-1.584-0.718-2.291-0.923
		c-0.707-0.206-1.322-0.319-1.845-0.342c-0.525-0.022-0.811-0.034-0.855-0.034h-9.914c-1.05,0.092-1.96,0.229-2.735,0.41
		c-0.775,0.183-1.619,0.479-2.53,0.89c-0.912,0.41-1.79,0.991-2.631,1.743c-0.844,0.752-1.584,1.709-2.222,2.872
		c-0.64,1.162-1.072,2.563-1.3,4.205l-1.43,11.642l3.971,5.175C129.743,112.427,131.77,110.963,135.065,109.881z"/>
	<path fill="#FFFFFF" d="M167.077,130.166l6.864-4.049l0.62-4.978c0.044-0.272,0.159-0.433,0.341-0.479
		c0.182-0.045,0.297-0.068,0.343-0.068h2.256c0.091,0,0.206,0.023,0.343,0.068c0.227,0.093,0.41,0.272,0.547,0.547l0.575,1.947
		l8.91-5.254l-1.623-5.445c-0.093-0.227-0.137-0.501-0.137-0.82c0-0.228,0.021-0.523,0.068-0.889
		c0.044-0.365,0.182-0.729,0.41-1.095l5.095-9.726c-2.404-2.551-5.773-4.237-8.153-5.193l-7.265,13.894
		c-0.047,0.046-0.069,0.092-0.069,0.137s-0.023,0.092-0.068,0.136v-0.136l1.093-8.685l-11.859,11.205l-0.035,0.283
		c-0.137,0.866-0.343,1.528-0.615,1.983c-0.274,0.456-0.559,0.797-0.855,1.025c-0.278,0.215-0.654,0.364-1.114,0.457
		c2.947,2.756,4.592,6.776,4.592,11.677C167.339,127.944,167.25,129.089,167.077,130.166z"/>
	<path fill="#FFFFFF" d="M164.661,130.348c0,0,1.896-7.448-3.658-14.82l-3.659,1.543
		C157.344,117.07,164.733,120.659,164.661,130.348z"/>
	<polygon fill="#FFFFFF" points="213.023,122.938 202.155,126.279 201.378,132.368 212.068,130.55 	"/>
	<path fill="#FFFFFF" d="M200.598,86.543c0.182-0.318,0.203-0.615,0.068-0.888c-0.093-0.182-0.23-0.285-0.412-0.308
		c-0.182-0.022-0.297-0.034-0.341-0.034h-8.547c-0.184,0-0.365,0.046-0.547,0.137c-0.412,0.183-0.73,0.456-0.957,0.82l-3.977,7.604
		c2.391,0.958,5.699,2.618,8.176,5.149L200.598,86.543z"/>
	<path fill="#FFFFFF" d="M177.037,86.476c0-0.411-0.066-0.685-0.204-0.821c-0.137-0.182-0.297-0.285-0.479-0.308
		c-0.184-0.022-0.297-0.034-0.341-0.034h-8.274c-0.184,0-0.409,0.081-0.684,0.239c-0.273,0.161-0.435,0.444-0.479,0.855
		l-2.924,23.396l11.861-11.207L177.037,86.476z"/>
	<polygon fill="#FFFFFF" points="140.385,157.578 146.986,157.578 146.986,153.51 	"/>
	<path fill="#FFFFFF" d="M153.681,113.326l0.171-1.38c-3.924-1.014-7.359-1.428-10.334-1.458l-0.119,0.927
		c-0.045,0.274-0.148,0.434-0.306,0.479c-0.162,0.046-0.264,0.068-0.308,0.068h-8.273c-0.154,0-0.249-0.039-0.304-0.105
		c-3.071,1.037-4.941,2.39-5.733,3.053l4.917,6.41c4.132-5.49,8.497-8.45,15.954-8.45
		C150.89,112.87,152.329,113.037,153.681,113.326z"/>
	<path fill="#FFFFFF" d="M112.018,127.449c-0.044-0.113-0.113-0.217-0.204-0.308c-0.137-0.138-0.286-0.229-0.445-0.274
		c-0.159-0.045-0.261-0.067-0.308-0.067H97.562l14.09,4.108l0.365-2.947C112.064,127.734,112.064,127.562,112.018,127.449z"/>
	<polygon fill="#FFFFFF" points="121.577,176.007 129.415,166.224 129.415,158.368 123.279,162.596 	"/>
	<path fill="#FFFFFF" d="M130.956,136.234l0.473-3.791l-9.739-5.79l-0.87,6.928l10.086,2.939
		C130.928,136.434,130.944,136.339,130.956,136.234z"/>
	<path fill="#FFFFFF" d="M134.956,152.277c-0.25-0.479-0.542-0.933-0.888-1.352c-0.685-0.727-1.436-1.298-2.257-1.708
		c-0.423-0.212-0.829-0.394-1.222-0.551l-24.79,8.038c-0.091,0.431-0.182,0.86-0.243,1.332l-1.957,15.408
		c1.688,2.483,4.596,5.394,9.535,7.469l2.678-21.099c0.091-0.685,0.366-1.095,0.82-1.231c0.457-0.136,0.707-0.204,0.753-0.204h6.564
		c0.091,0,0.204,0.022,0.341,0.068c0.274,0.091,0.479,0.204,0.616,0.342c0.182,0.182,0.272,0.502,0.272,0.957l6.135-4.228
		L134.956,152.277z"/>
	<path fill="#FFFFFF" d="M208.147,137.123c0.272-0.137,0.433-0.432,0.479-0.889l0.472-3.75l-10.694,1.817l-0.237,1.864
		c-0.047,0.365,0.021,0.639,0.204,0.82c0.137,0.184,0.296,0.285,0.479,0.308c0.182,0.024,0.296,0.035,0.343,0.035h8.271
		C207.645,137.329,207.873,137.261,208.147,137.123z"/>
	<path fill="#FFFFFF" d="M123.54,145.035l23.938-1.25l-9.234,7.98C138.243,151.766,137.784,147.013,123.54,145.035z"/>
	<polygon fill="#FFFFFF" points="153.313,168.801 160.398,170.407 164.633,163.419 148.471,163.419 	"/>
	<polygon fill="#FFFFFF" points="147.521,163.419 145.274,162.354 145.259,168.801 151.414,168.801 	"/>
	<path fill="#FFFFFF" d="M107.878,149.218c-1.345,0.638-2.623,1.642-3.83,3.008c-0.779,0.883-1.354,2.031-1.764,3.389l22.946-7.439
		c-0.492-0.12-0.944-0.205-1.321-0.222c-0.5-0.022-0.775-0.036-0.82-0.036l-9.913,0.001c-0.046,0-0.604,0.059-1.675,0.172
		C110.43,148.203,109.221,148.58,107.878,149.218z"/>
	<path fill="#FFFFFF" d="M220.453,137.294c0.182,0.024,0.295,0.035,0.342,0.035h8.273c0.182,0,0.41-0.068,0.683-0.206
		c0.274-0.137,0.434-0.432,0.479-0.889l0.93-7.5l-10.69,1.817l-0.699,5.614c-0.047,0.365,0.021,0.639,0.205,0.82
		C220.112,137.17,220.27,137.271,220.453,137.294z"/>
	<path fill="#FFFFFF" d="M216.542,86.476c0-0.411-0.068-0.685-0.206-0.821c-0.136-0.182-0.297-0.285-0.479-0.308
		c-0.182-0.022-0.297-0.034-0.341-0.034h-8.274c-0.182,0-0.409,0.081-0.683,0.239c-0.274,0.161-0.434,0.444-0.479,0.855
		l-2.843,22.435l11.343-6.689L216.542,86.476z"/>
	<polygon fill="#FFFFFF" points="223.439,128.617 234.13,126.8 235.464,116.039 224.59,119.381 	"/>
	<path fill="#FFFFFF" d="M199.497,116.51c-0.297,0.204-0.671,0.353-1.127,0.443v0.548c0.137,0,0.274,0.023,0.409,0.068
		c0.182,0.091,0.435,0.272,0.753,0.547c0.455,0.547,0.661,1.392,0.616,2.53l-0.71,5.549l10.866-3.342l0.235-1.866
		c0.091-0.864,0.284-1.526,0.581-1.982c0.296-0.454,0.591-0.798,0.89-1.025c0.295-0.229,0.694-0.386,1.196-0.479v-0.548
		c-0.137,0-0.274-0.021-0.41-0.068c-0.092-0.044-0.217-0.102-0.376-0.171c-0.161-0.068-0.286-0.192-0.377-0.376
		c-0.593-0.547-0.774-1.48-0.547-2.803l1.037-8.293l-11.346,6.69l-0.221,1.74c-0.137,0.82-0.341,1.447-0.615,1.879
		C200.08,115.985,199.794,116.305,199.497,116.51z"/>
	<path fill="#FFFFFF" d="M264.803,117.167c0.501,0.683,0.66,1.617,0.479,2.802l-0.173,1.563l10.75-1.826l2.059-16.721l-10.922,3.358
		c-0.2,1.595-0.406,3.28-0.62,5.079l-0.205,1.573c-0.138,0.731-0.342,1.3-0.616,1.71c-0.272,0.41-0.559,0.707-0.853,0.889
		c-0.297,0.182-0.674,0.319-1.13,0.41v0.547c0.091,0,0.228,0.024,0.411,0.069C264.256,116.711,264.528,116.893,264.803,117.167z"/>
	<path fill="#FFFFFF" d="M238.146,86.339c-0.045-0.091-0.136-0.284-0.272-0.582c-0.138-0.296-0.388-0.444-0.752-0.444h-8.273
		c-0.184,0-0.41,0.081-0.685,0.239c-0.272,0.161-0.434,0.444-0.479,0.855l-1.1,8.667l12.029-7.094L238.146,86.339z"/>
	<path fill="#FFFFFF" d="M199.771,148.199c0-0.41-0.068-0.685-0.205-0.819c-0.138-0.182-0.297-0.286-0.479-0.309
		c-0.183-0.021-0.297-0.035-0.342-0.035h-8.273c-0.184,0-0.41,0.082-0.685,0.239c-0.272,0.162-0.434,0.445-0.479,0.855l-1.044,8.238
		l9.991,3.95L199.771,148.199z"/>
	<path fill="#FFFFFF" d="M160.406,141.4l4.701-0.818l-4.674-1.354c-1.187,1.97-3.773,4.346-3.773,4.346l11.446,0.768L160.406,141.4z
		"/>
	<path fill="#FFFFFF" d="M276.714,97.339c0.091-0.684,0.365-1.094,0.821-1.23c0.454-0.137,0.707-0.205,0.751-0.205h6.633
		c0.091,0,0.205,0.023,0.341,0.068c0.274,0.092,0.48,0.205,0.616,0.341c0.182,0.274,0.25,0.594,0.205,0.957l-0.235,1.701
		l10.907-3.354c0.299-2.877-0.224-5.176-1.578-6.893c-0.502-0.637-1.072-1.162-1.71-1.572c-0.638-0.411-1.275-0.729-1.914-0.958
		c-0.64-0.227-1.231-0.397-1.778-0.513c-0.546-0.113-0.979-0.17-1.299-0.17c-0.091,0-0.17-0.01-0.239-0.035
		c-0.068-0.022-0.148-0.034-0.239-0.034h-0.205h-9.914h-0.204c-0.092,0-0.172,0.012-0.239,0.034
		c-0.068,0.024-0.149,0.035-0.239,0.035h-0.068c-0.502,0.046-1.265,0.183-2.29,0.41c-1.026,0.229-2.087,0.673-3.18,1.333
		c-1.094,0.661-2.119,1.573-3.076,2.735c-0.957,1.163-1.619,2.701-1.983,4.615c0,0.045-0.035,0.319-0.104,0.821
		c-0.068,0.501-0.159,1.152-0.272,1.948c-0.115,0.797-0.229,1.699-0.342,2.701c-0.114,1.003-0.24,2.029-0.376,3.077
		c-0.091,0.695-0.184,1.419-0.276,2.16l10.92-3.358L276.714,97.339z"/>
	<polygon fill="#FFFFFF" points="177.343,125.993 179.238,132.406 188.85,129.45 186.255,120.739 	"/>
	<path fill="#FFFFFF" d="M157.108,146.087h-1.921l2.756,2.695l0.19-1.532c0-0.412-0.068-0.685-0.205-0.822
		c-0.136-0.182-0.297-0.283-0.479-0.308C157.268,146.098,157.153,146.087,157.108,146.087z"/>
	<path fill="#FFFFFF" d="M190.131,137.294c0.251-0.022,0.468-0.146,0.649-0.377c0.045-0.091,0.091-0.192,0.138-0.306
		c0.044-0.115,0.021-0.264-0.069-0.445l-0.163-0.551l-9.554,1.625c0.142,0.054,0.247,0.089,0.282,0.089h8.272
		C189.73,137.329,189.881,137.318,190.131,137.294z"/>
	<path fill="#FFFFFF" d="M183.276,135.446l9.985-1.696l-1.293-4.339l-9.612,2.957l0.881,2.985
		C183.25,135.387,183.264,135.413,183.276,135.446z"/>
	<path fill="#FFFFFF" d="M171.896,129.207l-6.958,4.103c-0.33,1.41-0.824,2.706-1.477,3.947l7.729-2.376L171.896,129.207z"/>
	<path fill="#FFFFFF" d="M173.391,136.174c0.274-0.138,0.435-0.433,0.479-0.889l0.041-0.321l-4.602,1.416h3.399
		C172.89,136.38,173.118,136.311,173.391,136.174z"/>
	<path fill="#FFFFFF" d="M179.943,148.062c-0.046-0.091-0.137-0.284-0.274-0.581c-0.136-0.297-0.388-0.445-0.751-0.445h-8.273
		c-0.183,0-0.41,0.082-0.683,0.239c-0.274,0.162-0.435,0.445-0.479,0.855l-0.099,0.775l12.178,4.812L179.943,148.062z"/>
	<path fill="#FFFFFF" d="M221.205,118.116c0.291,0.321,0.458,0.736,0.526,1.225l11.011-3.385l0.292-2.352l0.601,2.077l19.787-6.084
		l2.652-21.222c0-0.411-0.068-0.684-0.205-0.821c-0.136-0.182-0.297-0.285-0.479-0.308c-0.183-0.022-0.297-0.034-0.342-0.034h-8.271
		c-0.184,0-0.412,0.081-0.685,0.239c-0.274,0.16-0.435,0.444-0.479,0.855l-2.871,22.63l-5.757-20.115l-12.452,7.343l-2.029,15.985
		c-0.138,0.683-0.343,1.221-0.616,1.606c-0.272,0.387-0.547,0.662-0.819,0.82c-0.274,0.161-0.64,0.285-1.095,0.376v0.548
		c0.091,0,0.229,0.023,0.41,0.068C220.657,117.66,220.932,117.842,221.205,118.116z"/>
	<polygon fill="#FFFFFF" points="165.907,154.723 165.907,159.127 168.106,153.51 161.159,150.021 162.747,154.628 	"/>
	<path fill="#FFFFFF" d="M156.116,177.488c-0.159-0.068-0.285-0.192-0.376-0.376c-0.592-0.548-0.775-1.48-0.548-2.803l0.488-3.902
		h-10.505l-0.512,4.04c-0.135,0.819-0.341,1.446-0.614,1.878c-0.274,0.435-0.56,0.754-0.855,0.959
		c-0.297,0.204-0.673,0.353-1.129,0.443v0.548c0.137,0,0.274,0.023,0.412,0.068c0.182,0.091,0.432,0.272,0.751,0.547
		c0.457,0.547,0.66,1.391,0.616,2.53l-1.982,15.52c-0.046,0.365,0.022,0.638,0.204,0.82c0.137,0.184,0.296,0.285,0.479,0.308
		c0.182,0.023,0.296,0.035,0.343,0.035h8.271c0.182,0,0.412-0.068,0.686-0.206c0.272-0.137,0.432-0.432,0.478-0.889l1.914-15.247
		c0.091-0.864,0.284-1.526,0.583-1.982c0.295-0.455,0.592-0.798,0.888-1.025c0.295-0.229,0.694-0.387,1.196-0.479v-0.548
		c-0.137,0-0.274-0.022-0.409-0.068C156.4,177.614,156.275,177.558,156.116,177.488z"/>
	<path fill="#FFFFFF" d="M86.345,171.37c-0.046,0.365-0.148,0.638-0.307,0.819c-0.161,0.184-0.332,0.309-0.513,0.377
		c-0.183,0.068-0.434,0.126-0.752,0.171H77.32c-0.183,0-0.297-0.045-0.341-0.138c-0.092-0.091-0.137-0.204-0.137-0.341l0.833-6.435
		l-10.889,3.531l-0.61,4.886c-0.137,0.866-0.342,1.528-0.615,1.982c-0.274,0.456-0.559,0.798-0.855,1.025
		c-0.297,0.229-0.696,0.388-1.196,0.479v0.548c0.137,0,0.273,0.023,0.41,0.068c0.181,0.091,0.433,0.272,0.752,0.547
		c0.501,0.547,0.684,1.482,0.547,2.803l-1.915,15.247c-0.046,0.365,0.023,0.638,0.206,0.82c0.137,0.184,0.296,0.285,0.479,0.308
		c0.182,0.023,0.296,0.035,0.342,0.035h8.272c0.182,0,0.411-0.068,0.684-0.206c0.273-0.137,0.433-0.432,0.479-0.889l1.641-13.195
		c0.045-0.273,0.159-0.433,0.341-0.479c0.182-0.045,0.296-0.069,0.342-0.069h9.093c1.048-0.091,1.959-0.228,2.735-0.409
		c0.774-0.183,1.629-0.479,2.564-0.889c0.934-0.41,1.823-1.004,2.667-1.778c0.843-0.773,1.573-1.73,2.188-2.871
		c0.616-1.14,1.035-2.553,1.265-4.24l1.729-13.951l-10.903,3.535L86.345,171.37z"/>
	<path fill="#FFFFFF" d="M131.928,130.917l7.676,5.463h2.971l-10.21-9.591C132.365,126.789,131.896,130.782,131.928,130.917z"/>
	<path fill="#FFFFFF" d="M199.072,178.062c-0.502-0.501-0.684-1.436-0.547-2.803l1.508-12.068l-9.993-3.95l-1.702,13.421
		l-4.548-15.892l-12.631-4.992l-1.211,9.54l26.989,26.405l0.631-5.012h0.068c0.091-0.864,0.273-1.526,0.548-1.982
		c0.272-0.454,0.569-0.797,0.888-1.025c0.319-0.229,0.592-0.363,0.82-0.41c0.228-0.044,0.365-0.068,0.41-0.068v-0.547
		c-0.136,0-0.273-0.022-0.41-0.069C199.573,178.518,199.301,178.336,199.072,178.062z"/>
	<path fill="#FFFFFF" d="M110.345,186.206l0.547-4.314c-4.893-2.001-7.862-4.775-9.605-7.054c-0.105,0.546-0.265,0.987-0.48,1.317
		c-0.296,0.456-0.591,0.799-0.888,1.025c-0.297,0.23-0.695,0.388-1.196,0.479v0.547c0.091,0,0.228,0.024,0.41,0.069
		c0.274,0.093,0.547,0.274,0.819,0.547c0.503,0.638,0.661,1.572,0.479,2.803l-0.751,6.153c-0.365,3.101,0.228,5.516,1.777,7.248
		c0.439,0.497,0.905,0.905,1.391,1.243l7.562-9.44C110.348,186.638,110.317,186.434,110.345,186.206z"/>
	<polygon fill="#FFFFFF" points="138.243,165.952 141.016,168.056 145.274,164.506 	"/>
	<path fill="#FFFFFF" d="M135.29,177.995c-0.501-0.503-0.683-1.438-0.547-2.805l1.255-9.87h-3.314l-8.487,10.594l-1.419,11.173
		c-0.091,0.73-0.365,1.151-0.82,1.265c-0.456,0.115-0.708,0.173-0.753,0.173h-6.632c-0.091,0-0.204-0.024-0.341-0.069
		c-0.024-0.007-0.039-0.017-0.061-0.023l-7.436,9.28c0.004,0.002,0.007,0.006,0.011,0.008c0.795,0.388,1.56,0.683,2.289,0.888
		c0.729,0.206,1.345,0.319,1.847,0.342c0.501,0.024,0.773,0.035,0.82,0.035h9.913c0.046,0,0.605-0.058,1.677-0.171
		c1.07-0.113,2.278-0.489,3.622-1.129c1.345-0.639,2.621-1.64,3.83-3.009c1.208-1.367,1.97-3.303,2.291-5.811l0.82-6.223
		c0.091-0.864,0.274-1.526,0.547-1.982c0.272-0.454,0.569-0.796,0.888-1.025c0.319-0.227,0.592-0.364,0.822-0.41
		c0.226-0.045,0.363-0.068,0.41-0.068v-0.548c-0.046,0-0.195-0.021-0.445-0.068C135.826,178.496,135.564,178.313,135.29,177.995z"/>
	<path fill="#FFFFFF" d="M155.966,148.782c-0.141,0.118-0.272,0.233-0.415,0.352l-5.796,4.859l-0.193,1.524h10.479l0.357-2.855
		l-3.965-3.88H155.966z"/>
	<path fill="#FFFFFF" d="M278.218,121.262c0,0.229,0.068,0.468,0.206,0.718c0.137,0.251,0.409,0.421,0.819,0.512h3.83l-0.343,3.009
		c-0.136,0.64-0.433,1.05-0.889,1.231c-0.182,0.136-0.41,0.182-0.683,0.136h-6.633c-0.093,0-0.205-0.022-0.343-0.067
		c-0.319-0.091-0.523-0.206-0.614-0.343c-0.229-0.227-0.296-0.547-0.205-0.957l0.475-3.861l-10.737,1.826l-0.404,3.677
		c-0.365,2.917,0.16,5.219,1.573,6.904c0.501,0.641,1.07,1.163,1.71,1.573c0.638,0.41,1.265,0.729,1.881,0.957
		c0.613,0.229,1.196,0.4,1.743,0.514s1.002,0.192,1.367,0.239h0.684h18.938c0.229,0,0.468-0.068,0.718-0.206
		c0.251-0.137,0.421-0.41,0.512-0.819c0.412-3.601,0.822-6.951,1.231-10.051c0.183-1.322,0.353-2.656,0.513-4.001
		c0.159-1.343,0.308-2.607,0.444-3.794c0.01-0.09,0.019-0.165,0.03-0.255l-15.778,2.685L278.218,121.262z"/>
	<path fill="#FFFFFF" d="M296.253,111.184c-0.229-0.113-0.433-0.171-0.614-0.171l-13.265,0.069
		c-0.456-0.091-0.765-0.011-0.924,0.239s-0.262,0.49-0.308,0.718l-0.857,6.915l15.771-2.683c0.08-0.69,0.16-1.35,0.232-1.941
		c0.113-0.933,0.215-1.652,0.308-2.153c0.045-0.137,0.045-0.228,0-0.274C296.596,111.538,296.48,111.298,296.253,111.184z"/>
	<path fill="#FFFFFF" d="M287.64,99.997v0.077c0.089,0.32,0.239,0.525,0.443,0.616c0.205,0.092,0.398,0.16,0.58,0.205h8.273
		c0.183-0.044,0.41-0.137,0.685-0.273c0.272-0.136,0.433-0.41,0.479-0.821l0.419-3.148L287.64,99.997z"/>
	<path fill="#FFFFFF" d="M235.289,147.207c-0.068-0.022-0.148-0.056-0.239-0.102c-0.091-0.045-0.182-0.069-0.272-0.069h-28.101
		c-0.229,0-0.469,0.069-0.718,0.206c-0.252,0.138-0.423,0.435-0.514,0.889l-1.025,8.205c-0.045,0.365,0.022,0.638,0.206,0.819
		c0.135,0.184,0.295,0.286,0.479,0.309c0.182,0.023,0.295,0.035,0.341,0.035h8.205c0.182,0,0.317,0.044,0.41,0.135
		c0.044,0.047,0.068,0.184,0.068,0.41l-1.023,8.146l9.975,3.943l1.51-12.021c0.044-0.272,0.146-0.443,0.308-0.512
		c0.159-0.068,0.283-0.102,0.376-0.102h8.272c0.182,0,0.409-0.069,0.685-0.206c0.272-0.138,0.432-0.433,0.479-0.889l1.025-8.205
		c0.044-0.363-0.024-0.638-0.206-0.819C235.438,147.289,235.357,147.231,235.289,147.207z"/>
	<path fill="#FFFFFF" d="M225.122,178.062c-0.503-0.501-0.685-1.436-0.548-2.803l0.282-2.255l-9.973-3.943l-0.77,6.13
		c-0.093,0.866-0.286,1.528-0.582,1.982c-0.297,0.457-0.592,0.798-0.889,1.026c-0.297,0.228-0.695,0.388-1.196,0.479v0.547
		c0.091,0,0.228,0.024,0.41,0.068c0.274,0.091,0.547,0.272,0.819,0.547c0.503,0.639,0.685,1.573,0.547,2.803l-1.914,15.247
		c-0.046,0.366,0.022,0.639,0.206,0.82c0.138,0.184,0.284,0.285,0.443,0.308c0.159,0.024,0.264,0.035,0.308,0.035h8.274
		c0.228,0,0.467-0.068,0.718-0.206c0.25-0.137,0.421-0.432,0.512-0.888l1.916-15.248c0.091-0.864,0.272-1.526,0.545-1.982
		c0.274-0.454,0.571-0.797,0.891-1.025c0.316-0.229,0.591-0.363,0.819-0.41c0.229-0.044,0.365-0.068,0.41-0.068v-0.547
		c-0.045,0-0.204-0.022-0.479-0.069C225.601,178.564,225.348,178.383,225.122,178.062z"/>
	<path fill="#FFFFFF" d="M240.547,136.304c0.045,0.091,0.138,0.283,0.272,0.58c0.138,0.297,0.388,0.445,0.753,0.445h8.272
		c0.182,0,0.41-0.068,0.685-0.206c0.272-0.137,0.432-0.432,0.479-0.889l1.374-10.948l-14.316,2.436L240.547,136.304z"/>
	<path fill="#FFFFFF" d="M256.325,115.388c-0.503-0.501-0.683-1.436-0.548-2.802l0.364-2.905l-19.395,5.963l2.952,10.21
		l14.704-2.502l0.417-3.314h0.069c0.091-0.864,0.274-1.526,0.547-1.983c0.272-0.454,0.569-0.797,0.889-1.025
		c0.318-0.228,0.592-0.363,0.821-0.409c0.227-0.045,0.363-0.069,0.41-0.069v-0.547c-0.138,0-0.274-0.022-0.41-0.069
		C256.826,115.844,256.553,115.663,256.325,115.388z"/>
	<path fill="#FFFFFF" d="M165.251,173.976c-0.138,0.683-0.342,1.221-0.616,1.606c-0.272,0.388-0.547,0.662-0.819,0.819
		c-0.274,0.162-0.641,0.286-1.095,0.377v0.547c0.091,0,0.229,0.024,0.41,0.068c0.274,0.091,0.547,0.273,0.821,0.548
		c0.455,0.502,0.639,1.207,0.547,2.119l-1.984,15.931c-0.044,0.365,0.024,0.638,0.206,0.819c0.138,0.184,0.297,0.286,0.479,0.308
		c0.182,0.024,0.297,0.035,0.342,0.035h8.273c0.182,0,0.41-0.068,0.685-0.205c0.272-0.138,0.432-0.433,0.479-0.889l2.802-22.631
		l6.564,22.699c0.044,0.091,0.137,0.284,0.274,0.581c0.135,0.297,0.386,0.444,0.751,0.444h8.273c0.18,0,0.41-0.068,0.683-0.205
		c0.274-0.138,0.433-0.433,0.479-0.889l1.137-9.053l-26.991-26.405L165.251,173.976z"/>
	<path fill="#FFFFFF" d="M74.752,159.062c0.045-0.272,0.147-0.443,0.308-0.512c0.159-0.069,0.262-0.103,0.308-0.103h7.453
		c0.091,0,0.205,0.022,0.341,0.067c0.274,0.092,0.479,0.205,0.616,0.343c0.228,0.228,0.296,0.547,0.205,0.957l-0.224,1.807
		l10.899-3.533c0.386-2.877-0.208-5.222-1.787-7.025c-0.639-0.729-1.368-1.31-2.188-1.744c-0.821-0.432-1.584-0.739-2.291-0.923
		c-0.708-0.181-1.323-0.295-1.846-0.342c-0.524-0.045-0.81-0.068-0.855-0.068H66.685c-0.183,0-0.41,0.081-0.684,0.239
		c-0.273,0.161-0.434,0.445-0.479,0.854l-2.404,19.235l10.893-3.533L74.752,159.062z"/>
	<path fill="#FFFFFF" d="M120.913,117.167c0.5,0.547,0.684,1.481,0.547,2.802l-0.589,4.706l9.737,5.79l0.935-7.522l-0.577-0.505
		c0.297-0.439,0.592-0.862,0.889-1.273l-9.049-11.797l-0.388,3.15c-0.135,0.866-0.341,1.528-0.614,1.983
		c-0.274,0.456-0.56,0.797-0.855,1.025c-0.297,0.228-0.695,0.388-1.196,0.479v0.547c0.135,0,0.272,0.024,0.41,0.069
		C120.343,116.711,120.594,116.893,120.913,117.167z"/>
	<path fill="#FFFFFF" d="M116.42,98.35c0.25-0.137,0.421-0.411,0.514-0.821l1.026-8.273c0-0.411-0.069-0.684-0.206-0.82
		c-0.137-0.182-0.297-0.284-0.479-0.308c-0.184-0.022-0.297-0.034-0.341-0.034h-8.812l7.973,10.392
		C116.202,98.452,116.309,98.41,116.42,98.35z"/>
	<path fill="#FFFFFF" d="M95.001,97.27c0.046-0.273,0.148-0.444,0.308-0.513c0.16-0.068,0.262-0.102,0.308-0.102h17.436
		l-8.025-10.461H86.933c-0.183,0-0.41,0.081-0.683,0.239c-0.274,0.161-0.434,0.445-0.479,0.855l-1.922,15.375l9.707,5.771
		L95.001,97.27z"/>
	<path fill="#FFFFFF" d="M154.955,129.48c0.268-4.229-1.677-4.812-1.677-4.812l-1.537,11.711
		C151.741,136.38,154.687,133.707,154.955,129.48z"/>
	<path fill="#FFFFFF" d="M149.877,142.605l-9.403-2.741l-0.204,1.631c-0.046,0.365,0.022,0.638,0.204,0.819
		c0.137,0.184,0.296,0.285,0.479,0.308c0.182,0.024,0.296,0.035,0.343,0.035h8.272C149.658,142.657,149.762,142.639,149.877,142.605
		z"/>
	<path fill="#FFFFFF" d="M152.572,123.097c-1.006-0.659-2.252-1.002-3.658-1.002c-0.523,0-1.022,0.046-1.504,0.139l4.143,8.978
		L152.572,123.097z"/>
	<path fill="#FFFFFF" d="M150.784,137.185l0.532-4.24l-4.144-8.977c-2.04,0.392-3.769,1.623-5.683,3.754l-0.545,4.394l4.726,6.163
		h3.95c0.182,0,0.41-0.068,0.685-0.205C150.578,137.936,150.738,137.641,150.784,137.185z"/>
	<path fill="#FFFFFF" d="M102.043,111.013h-4.151l4.883,2.904l0.225-1.81c0.046-0.319-0.022-0.57-0.204-0.753
		c-0.137-0.182-0.286-0.284-0.445-0.306C102.191,111.024,102.089,111.013,102.043,111.013z"/>
	<path fill="#FFFFFF" d="M24.846,111.545c-0.092,0.682-0.365,1.083-0.82,1.196c-0.457,0.115-0.708,0.17-0.752,0.17H15.82
		c-0.183,0-0.296-0.044-0.341-0.137c-0.092-0.091-0.114-0.204-0.068-0.341l0.918-7.381l-10.113-2.949l-1.539,12.313
		c-0.092,0.866-0.285,1.528-0.581,1.983c-0.297,0.456-0.593,0.797-0.889,1.025c-0.297,0.228-0.696,0.388-1.197,0.479v0.547
		c0.091,0,0.228,0.024,0.41,0.068c0.273,0.091,0.547,0.272,0.821,0.548c0.5,0.638,0.66,1.572,0.479,2.802l-1.846,15.248
		c-0.046,0.046-0.068,0.148-0.068,0.308s0.045,0.33,0.137,0.512c0.091,0.093,0.193,0.171,0.308,0.239
		c0.113,0.068,0.284,0.104,0.513,0.104h19.076h0.684c0.547-0.046,1.367-0.194,2.462-0.444c1.094-0.251,2.21-0.74,3.35-1.471
		c1.139-0.728,2.176-1.744,3.111-3.042c0.934-1.299,1.539-3.042,1.812-5.23c0-0.091,0.079-0.763,0.239-2.018
		c0.159-1.252,0.33-2.586,0.513-3.999v-0.206l0.068-0.135c0.137-1.323-0.114-2.349-0.752-3.077
		c-0.137-0.138-0.342-0.297-0.615-0.479c0.41-0.182,0.854-0.547,1.333-1.095c0.479-0.547,0.786-1.413,0.922-2.598l0.475-3.86
		l-10.112-2.949L24.846,111.545z M23,126.381c-0.092,0.685-0.365,1.095-0.82,1.231c-0.456,0.138-0.707,0.204-0.752,0.204h-7.453
		c-0.183,0-0.297-0.045-0.342-0.136c-0.092-0.091-0.114-0.228-0.068-0.409l0.41-3.283c0.045-0.272,0.147-0.432,0.308-0.479
		c0.159-0.045,0.261-0.068,0.307-0.068h7.658c0.318,0,0.569,0.093,0.752,0.274c0.182,0.272,0.25,0.592,0.206,0.957L23,126.381z"/>
	<path fill="#FFFFFF" d="M82.072,118.048c0.5,0.547,0.684,1.481,0.546,2.803l-0.192,1.535l10.091,2.941l0.289-2.357
		c0.045-0.272,0.159-0.432,0.342-0.479c0.182-0.044,0.296-0.068,0.343-0.068h8.272c0.182,0,0.41-0.078,0.683-0.239
		c0.274-0.159,0.434-0.443,0.48-0.854l0.673-5.433l-6.616-3.934h-2.263c-0.184,0-0.297-0.068-0.342-0.206
		c-0.092-0.045-0.136-0.158-0.136-0.341l0.13-1.005l-9.702-5.768l-1.095,8.756c-0.137,0.866-0.342,1.528-0.615,1.983
		c-0.273,0.456-0.559,0.799-0.855,1.025c-0.297,0.23-0.695,0.388-1.196,0.479v0.547c0.137,0,0.274,0.024,0.411,0.069
		C81.501,117.594,81.752,117.775,82.072,118.048z"/>
	<path fill="#FFFFFF" d="M70.448,138.278c0.182,0,0.411-0.079,0.684-0.239c0.273-0.159,0.433-0.444,0.479-0.854l0.957-7.658
		c0.137-0.957,0.262-1.903,0.376-2.838c0.114-0.933,0.216-1.766,0.308-2.494c0.09-0.726,0.204-1.541,0.339-2.446l-29.248-8.527
		l-0.149,1.195c-0.092,0.866-0.285,1.528-0.581,1.983c-0.297,0.456-0.593,0.797-0.889,1.025c-0.297,0.228-0.695,0.388-1.197,0.479
		v0.547c0.091,0,0.228,0.024,0.41,0.068c0.274,0.091,0.547,0.272,0.821,0.548c0.501,0.638,0.66,1.572,0.479,2.802l-1.846,15.248
		c-0.046,0.046-0.068,0.148-0.068,0.308s0.045,0.33,0.137,0.512c0.091,0.093,0.193,0.171,0.307,0.239
		c0.114,0.068,0.284,0.104,0.513,0.104h8.205c0.501,0,0.843-0.126,1.025-0.376c0.182-0.251,0.273-0.49,0.273-0.718l1.709-13.196
		c0.045-0.272,0.147-0.432,0.308-0.479c0.159-0.045,0.262-0.068,0.308-0.068h7.657c0.319,0,0.569,0.093,0.752,0.274
		c0.182,0.272,0.25,0.592,0.206,0.957l-1.573,12.512c-0.046,0.091-0.046,0.182,0,0.272c0,0.138,0.091,0.297,0.273,0.479
		c0.228,0.23,0.523,0.343,0.889,0.343h8.068H70.448z"/>
	<path fill="#FFFFFF" d="M32.032,87.596c-0.821-0.433-1.584-0.741-2.291-0.924c-0.707-0.181-1.311-0.295-1.812-0.341
		c-0.502-0.045-0.776-0.068-0.821-0.068H8.034c-0.183,0-0.4,0.081-0.65,0.239c-0.25,0.16-0.422,0.444-0.513,0.855L5.385,99.25
		l10.113,2.949l0.604-4.86c0.044-0.273,0.147-0.444,0.307-0.513c0.16-0.069,0.285-0.102,0.376-0.102h7.384
		c0.091,0,0.206,0.023,0.342,0.067c0.273,0.092,0.479,0.205,0.615,0.342c0.228,0.228,0.296,0.547,0.205,0.957l-0.836,6.731
		l10.111,2.949l1.391-11.32c0.411-2.916-0.16-5.288-1.709-7.111C33.604,88.611,32.853,88.03,32.032,87.596z"/>
	<path fill="#FFFFFF" d="M81.388,138.175c0.182,0.024,0.296,0.035,0.342,0.035h28.101c0.182,0,0.41-0.068,0.683-0.206
		c0.274-0.137,0.434-0.409,0.479-0.819l0.542-4.373L94.17,127.75h-1.295c-0.183,0-0.32-0.047-0.411-0.138
		c-0.046-0.045-0.068-0.159-0.068-0.341l0.004-0.039l-10.093-2.941l-1.603,12.825c-0.046,0.318,0.022,0.571,0.205,0.751
		C81.046,138.051,81.205,138.152,81.388,138.175z"/>
	<path fill="#FFFFFF" d="M72.841,117.706c-0.137-0.137-0.342-0.296-0.615-0.479c0.411-0.182,0.854-0.547,1.333-1.094
		c0.479-0.547,0.786-1.413,0.923-2.599l1.712-13.933l-20.838-12.39h-6.855c-0.183,0-0.4,0.081-0.649,0.239
		c-0.251,0.16-0.422,0.444-0.513,0.855l-2.876,23.01l29.157,8.502C73.572,118.953,73.314,118.246,72.841,117.706z M65.799,99.041
		l-1.436,11.555c-0.092,0.683-0.366,1.083-0.821,1.196c-0.456,0.115-0.707,0.17-0.752,0.17h-7.453c-0.183,0-0.297-0.044-0.342-0.137
		c-0.092-0.091-0.114-0.204-0.068-0.341l1.641-13.195c0.044-0.274,0.147-0.444,0.308-0.513c0.159-0.068,0.284-0.102,0.376-0.102
		h7.384c0.091,0,0.206,0.023,0.342,0.067c0.273,0.092,0.479,0.205,0.615,0.342C65.822,98.312,65.89,98.63,65.799,99.041z"/>
	<path fill="#FFFFFF" d="M74.566,94.551c0.41-2.917-0.16-5.288-1.709-7.111c-0.684-0.729-1.436-1.31-2.256-1.744
		c-0.821-0.433-1.584-0.741-2.291-0.923c-0.707-0.181-1.311-0.296-1.812-0.341c-0.502-0.045-0.776-0.069-0.821-0.069H55.315
		l19.106,11.36L74.566,94.551z"/>
</g>
<g>
	<rect x="3.12" y="216.064" fill="#FFFFFF" width="69.984" height="3.518"/>
	<rect x="227.128" y="216.064" fill="#FFFFFF" width="69.984" height="3.518"/>
</g>
<path fill="#FFFFFF" d="M150.127,24.102"/>
<g>
	<path fill="#FFFFFF" d="M149.797,36.466c2.142,0,3.251-0.89,3.494-2.801l0.018-0.14h2.682v-1.823h-0.151
		c-0.188,0.389-0.507,0.572-0.994,0.572h-4.298l-0.392,1.58h0.08c0.214-0.211,0.478-0.303,0.87-0.303h0.633l-0.032,0.187
		c-0.099,0.603-0.606,1.212-1.515,1.212c-0.939,0-1.62-0.697-1.62-1.657c0-1.123,0.688-1.777,1.942-1.855v-1.184
		c-0.753-0.035-1.56-0.323-1.56-1.045c0-0.571,0.476-0.832,0.922-0.832c0.668,0.015,1.066,0.594,1.24,0.926h0.166l-0.208-2.025
		h-0.192l-0.211,0.297l-0.113-0.04c-0.545-0.191-0.843-0.27-1.278-0.27c-0.986,0-1.982,0.53-1.982,1.715
		c0,0.708,0.417,1.215,1.238,1.51l0.509,0.183l-0.528,0.126c-1.335,0.316-2.132,1.291-2.132,2.607
		C146.384,34.549,146.827,36.466,149.797,36.466z"/>
	<path fill="#FFFFFF" d="M149.452,54.936c0.002-0.436-0.153-0.646-0.736-0.652c-0.204-0.001-0.408-0.004-0.611-0.005
		c-0.004,0.442-0.01,0.884-0.016,1.325c0.198,0.002,0.397,0.004,0.595,0.006C149.216,55.614,149.451,55.422,149.452,54.936z"/>
	<path fill="#FFFFFF" d="M143.146,54.035c-0.717-0.03-1.087,0.476-1.144,1.635c-0.058,1.165,0.312,1.703,1.045,1.734
		c0.733,0.03,1.103-0.478,1.143-1.644C144.233,54.602,143.865,54.064,143.146,54.035z"/>
	<path fill="#FFFFFF" d="M133.441,54.104c0.043-0.434-0.093-0.659-0.672-0.719c-0.202-0.021-0.403-0.042-0.607-0.065
		c-0.046,0.439-0.095,0.879-0.141,1.318c0.196,0.021,0.394,0.043,0.592,0.063C133.143,54.758,133.392,54.589,133.441,54.104z"/>
	<path fill="#FFFFFF" d="M189.402,50.917c-1.378-1.277-2.731-2.569-4.055-3.877c0.652-1.744,1.274-3.491,1.867-5.241
		c-3.423,0.822-6.863,1.528-10.319,2.119c0.002,0.01,0.003,0.021,0.005,0.031c1.979,1.236,4.003,2.437,6.071,3.596
		c-0.802,0.165-1.604,0.322-2.41,0.474c-0.215,0.041-0.428,0.08-0.642,0.12c-0.615,0.113-1.23,0.224-1.848,0.33
		c-2.564,0.446-5.135,0.826-7.713,1.147c0.105-0.123,0.212-0.245,0.315-0.369l0.021-0.023l0.019-0.021
		c3.896-4.843,4.949-13.02,5.431-19.601c0.259-3.587,0.369-7.256,0.476-10.805c0.111-3.718,0.219-7.229,0.482-10.22l0.035-0.383
		l0.377-4.291l-4.218,0.873c-0.04,0.008-4.521,0.915-9.574,0.915c-5.344,0-9.377-1.033-11.36-2.908l-2.227-2.104l-2.188,2.114
		c-1.988,1.87-6.017,2.898-11.35,2.898c-5.087,0-9.529-0.907-9.575-0.915l-4.219-0.873l0.378,4.291l0.033,0.381
		c0.267,2.992,0.372,6.503,0.484,10.221c0.106,3.549,0.218,7.218,0.477,10.802c0.321,4.4,0.795,7.806,1.49,10.718
		c0.908,3.812,2.198,6.719,3.941,8.886l0.019,0.021l0.018,0.023c0.106,0.128,0.216,0.252,0.324,0.378
		c-2.599-0.322-5.196-0.707-7.781-1.154c-0.626-0.108-1.254-0.221-1.88-0.337c-0.208-0.038-0.417-0.076-0.625-0.116
		c-0.813-0.154-1.627-0.312-2.438-0.479c2.084-1.167,4.123-2.375,6.115-3.619c-3.456-0.591-6.899-1.297-10.319-2.119
		c0.593,1.75,1.215,3.497,1.867,5.241c-1.325,1.309-2.678,2.601-4.055,3.877c1.812,0.435,3.628,0.839,5.448,1.213
		c-0.313,1.53-0.628,3.062-0.941,4.593c9.107,1.869,18.328,2.993,27.573,3.378c2.546,1.431,4.761,2.382,6.225,2.865l1.004,0.331
		l1.003-0.331c1.466-0.483,3.681-1.437,6.232-2.869c9.219-0.388,18.416-1.511,27.499-3.375c-0.314-1.531-0.628-3.063-0.942-4.593
		C185.774,51.757,187.591,51.353,189.402,50.917z M124.231,53.028c-0.111,0.714-0.73,1.206-2.139,0.971
		c-0.17-0.028-0.342-0.058-0.515-0.087c-0.062,0.354-0.121,0.708-0.183,1.061c0.222,0.038,0.443,0.075,0.664,0.112
		c-0.03,0.183-0.061,0.367-0.093,0.55c-0.8-0.134-1.6-0.273-2.398-0.418c0.033-0.184,0.067-0.367,0.1-0.549
		c0.203,0.037,0.409,0.073,0.614,0.11c0.181-1.018,0.363-2.035,0.544-3.053c-0.201-0.036-0.401-0.072-0.603-0.109
		c0.032-0.184,0.066-0.365,0.099-0.549c0.727,0.133,1.457,0.26,2.187,0.383C123.891,51.682,124.348,52.286,124.231,53.028z
		 M129.281,53.958c-0.195-0.024-0.39-0.049-0.589-0.074c-0.066-0.816-0.148-0.981-0.713-1.057c-0.363-0.049-0.727-0.098-1.092-0.15
		c-0.059,0.422-0.118,0.843-0.177,1.264c0.122,0.017,0.244,0.034,0.366,0.05c0.38,0.053,0.424-0.012,0.588-0.514
		c0.175,0.023,0.352,0.047,0.528,0.07c-0.074,0.566-0.149,1.13-0.224,1.696c-0.178-0.023-0.355-0.047-0.533-0.072
		c-0.012-0.532-0.057-0.616-0.43-0.667c-0.123-0.017-0.245-0.034-0.368-0.052c-0.062,0.441-0.124,0.881-0.186,1.32
		c0.36,0.051,0.723,0.1,1.084,0.148c0.693,0.093,0.807-0.126,1.083-0.989c0.199,0.026,0.397,0.05,0.594,0.075
		c-0.069,0.552-0.139,1.103-0.206,1.653c-1.459-0.182-2.916-0.382-4.372-0.603c0.029-0.184,0.056-0.367,0.083-0.551
		c0.206,0.031,0.411,0.061,0.617,0.092c0.15-1.023,0.301-2.046,0.452-3.069c-0.2-0.029-0.404-0.059-0.604-0.09
		c0.027-0.184,0.055-0.368,0.083-0.552c1.398,0.21,2.799,0.405,4.203,0.581C129.407,52.967,129.346,53.463,129.281,53.958z
		 M131.106,11.768h3.756v0.226c-0.416,0.148-0.696,0.529-0.696,0.966v3.288h7.305v-3.17c0-0.558-0.267-0.968-0.725-1.12v-0.19h3.771
		v0.191c-0.479,0.162-0.693,0.606-0.693,1.001v9.197c0,0.548,0.262,0.952,0.71,1.104v0.19h-3.754V23.29
		c0.436-0.165,0.692-0.542,0.692-1.03v-4.372h-7.305v3.999c0,0.738,0.112,1.151,0.729,1.426v0.138h-3.771v-0.129
		c0.448-0.111,0.692-0.442,0.692-0.945v-9.385c0-0.452-0.286-0.847-0.71-0.999V11.768z M127.637,32.39h17.41
		c0.183-0.785,0.576-1.466,1.152-1.991c-0.235-0.42-0.359-0.897-0.359-1.419c0-1.837,1.446-3.172,3.439-3.172
		c0.3,0,0.561,0.029,0.808,0.076l0.045-0.063h0.03V5.109l0,0l0,0c3.167,2.996,8.654,3.785,13.562,3.785
		c5.472,0,10.224-0.982,10.224-0.982l-0.033,0.381c-0.53,5.97-0.438,13.801-0.966,21.074c-0.072,0.981-0.154,1.951-0.25,2.907
		h-15.25v2.707h-2.964c-0.485,1.461-1.669,2.828-4.356,2.932v12.961c-5.094,0-10.188-0.239-15.266-0.716
		c-0.953-0.926-1.879-1.914-2.757-2.965C129.456,43.901,128.258,38.472,127.637,32.39z M133.995,57.299
		c-0.713-0.067-0.997-0.445-0.925-1.145c0.006-0.073,0.01-0.146,0.016-0.218c0.04-0.466-0.059-0.668-0.563-0.721
		c-0.187-0.02-0.375-0.039-0.559-0.06c-0.046,0.425-0.093,0.85-0.139,1.274c0.213,0.023,0.426,0.045,0.641,0.067
		c-0.02,0.186-0.039,0.369-0.059,0.555c-0.796-0.083-1.591-0.171-2.387-0.266c0.022-0.185,0.043-0.369,0.066-0.554
		c0.206,0.025,0.413,0.048,0.618,0.072c0.119-1.027,0.238-2.054,0.354-3.081c-0.202-0.023-0.404-0.048-0.606-0.071
		c0.022-0.186,0.043-0.37,0.066-0.555c0.81,0.097,1.619,0.187,2.43,0.271c1.338,0.136,1.741,0.711,1.693,1.242
		c-0.046,0.503-0.419,0.89-1.489,0.897c-0.001,0.016-0.004,0.031-0.004,0.045c0.852,0.157,1.098,0.539,1.072,1.039
		c0,0.083,0,0.167-0.001,0.251c-0.012,0.275,0.043,0.344,0.181,0.358c0.096,0.008,0.188-0.074,0.309-0.352
		c0.133,0.053,0.265,0.106,0.397,0.158C134.928,57.001,134.617,57.359,133.995,57.299z M139.967,54.981
		c-0.197-0.012-0.395-0.023-0.594-0.036c-0.154-0.876-0.294-1.008-0.864-1.047c-0.306-0.021-0.613-0.043-0.922-0.067
		c-0.032,0.447-0.066,0.895-0.1,1.342c0.097,0.008,0.19,0.014,0.287,0.021c0.383,0.028,0.437-0.04,0.556-0.552
		c0.174,0.012,0.352,0.025,0.529,0.037c-0.038,0.575-0.078,1.151-0.117,1.727c-0.179-0.013-0.358-0.025-0.537-0.037
		c-0.03-0.536-0.093-0.623-0.468-0.651c-0.096-0.007-0.193-0.014-0.289-0.021c-0.03,0.413-0.063,0.827-0.093,1.24
		c0.251,0.018,0.5,0.037,0.753,0.055c-0.013,0.186-0.029,0.371-0.042,0.556c-0.833-0.059-1.667-0.124-2.501-0.196
		c0.015-0.185,0.031-0.369,0.046-0.555c0.206,0.018,0.414,0.034,0.62,0.051c0.085-1.03,0.17-2.061,0.254-3.09
		c-0.202-0.018-0.405-0.034-0.609-0.052c0.016-0.186,0.032-0.371,0.048-0.557c1.378,0.119,2.756,0.22,4.135,0.303
		C140.027,53.963,139.997,54.472,139.967,54.981z M143.005,57.928c-1.362-0.057-2.299-0.978-2.222-2.315
		c0.078-1.317,1.118-2.157,2.407-2.103c1.32,0.056,2.253,0.944,2.219,2.283C145.376,57.119,144.333,57.984,143.005,57.928z
		 M150.307,58.063c-0.715,0-1.032-0.348-1.028-1.052c-0.003-0.073-0.004-0.146-0.006-0.218c-0.003-0.468-0.121-0.66-0.628-0.665
		c-0.188-0.002-0.375-0.004-0.561-0.006c-0.006,0.428-0.01,0.855-0.017,1.282c0.215,0.003,0.429,0.004,0.642,0.006
		c0,0.186-0.001,0.372-0.003,0.558c-0.799-0.007-1.598-0.019-2.397-0.037c0.003-0.186,0.008-0.372,0.011-0.557
		c0.208,0.005,0.415,0.009,0.623,0.012c0.02-1.033,0.038-2.067,0.058-3.1c-0.203-0.004-0.408-0.008-0.611-0.013
		c0.003-0.187,0.009-0.372,0.013-0.558c0.813,0.019,1.626,0.031,2.439,0.038c1.347,0.008,1.8,0.542,1.802,1.074
		c0.004,0.505-0.332,0.925-1.393,1.037c0,0.015,0,0.03,0,0.044c0.862,0.075,1.144,0.432,1.167,0.931
		c0.007,0.083,0.012,0.167,0.021,0.25c0.014,0.275,0.077,0.339,0.214,0.339c0.098,0,0.182-0.091,0.274-0.38
		c0.137,0.041,0.272,0.081,0.408,0.12C151.206,57.676,150.931,58.062,150.307,58.063z M155.844,57.878
		c-0.008-0.186-0.013-0.371-0.02-0.556c0.192-0.007,0.383-0.014,0.573-0.021c-0.036-0.989-0.072-1.977-0.108-2.965
		c-0.021,0.001-0.041,0.001-0.062,0.002c-0.396,1.192-0.8,2.383-1.217,3.573c-0.153,0.003-0.309,0.008-0.465,0.012
		c-0.494-1.165-0.979-2.331-1.454-3.5c-0.02,0-0.04,0-0.062,0c0.019,0.99,0.034,1.978,0.052,2.967
		c0.19-0.003,0.382-0.007,0.574-0.011c0.003,0.187,0.007,0.371,0.011,0.558c-0.595,0.012-1.192,0.022-1.786,0.028
		c-0.004-0.187-0.006-0.372-0.008-0.558c0.197-0.001,0.396-0.004,0.594-0.007c-0.013-1.034-0.028-2.067-0.042-3.101
		c-0.195,0.003-0.389,0.005-0.583,0.007c-0.004-0.185-0.004-0.373-0.006-0.558c0.713-0.007,1.429-0.019,2.143-0.036
		c0.341,0.861,0.686,1.719,1.035,2.576c0.007,0,0.014,0,0.02,0c0.28-0.876,0.556-1.752,0.824-2.63
		c0.7-0.024,1.402-0.053,2.103-0.085c0.007,0.186,0.017,0.371,0.025,0.558c-0.2,0.009-0.397,0.018-0.598,0.027
		c0.046,1.032,0.091,2.065,0.136,3.098c0.202-0.009,0.405-0.018,0.606-0.028c0.01,0.187,0.018,0.372,0.027,0.557
		C157.386,57.821,156.614,57.852,155.844,57.878z M158.598,48.583l-0.381,0.489h-0.203l-1.029-3.804h0.395
		c0.871,1.337,2.557,2.3,4.046,2.3c1.336,0,1.935-0.778,1.935-1.548c0-0.344-0.062-0.721-0.501-1.144
		c-0.477-0.484-1.26-0.859-2.088-1.257c-0.908-0.436-1.848-0.886-2.48-1.516c-0.542-0.542-0.866-1.38-0.866-2.238
		c0-1.494,1.101-3,3.561-3c1.435,0,2.16,0.354,2.743,0.639l0.188,0.092l0.474-0.545h0.188l0.403,3.652h-0.386
		c-0.438-0.743-1.556-2.266-3.407-2.266c-1.094,0-1.666,0.668-1.666,1.328c0,0.22,0.062,0.537,0.351,0.806
		c0.35,0.357,1.026,0.679,1.81,1.049c0.997,0.474,2.128,1.011,2.874,1.757c0.477,0.477,0.985,1.327,0.985,2.289
		c0,1.328-0.511,3.558-3.932,3.558c-1.211,0-2.337-0.375-2.901-0.596L158.598,48.583z M161.549,57.591
		c-0.014-0.184-0.026-0.37-0.037-0.556c0.205-0.013,0.409-0.028,0.613-0.042c-0.115-0.254-0.23-0.51-0.345-0.765
		c-0.515,0.035-1.031,0.067-1.546,0.099c-0.079,0.268-0.16,0.536-0.242,0.803c0.191-0.01,0.385-0.021,0.573-0.034
		c0.012,0.186,0.022,0.371,0.034,0.557c-0.584,0.036-1.168,0.068-1.752,0.098c-0.009-0.186-0.018-0.371-0.028-0.556
		c0.166-0.008,0.332-0.017,0.498-0.026c0.421-1.253,0.833-2.507,1.231-3.764c0.368-0.022,0.738-0.046,1.106-0.073
		c0.555,1.193,1.121,2.382,1.696,3.57c0.181-0.015,0.357-0.029,0.539-0.043c0.015,0.186,0.03,0.371,0.044,0.557
		C163.139,57.48,162.343,57.539,161.549,57.591z M169.205,56.963c-0.379,0.042-0.756,0.083-1.135,0.124
		c-0.824-1.009-1.638-2.023-2.436-3.042c-0.021,0.002-0.041,0.003-0.062,0.005c0.083,0.88,0.163,1.761,0.244,2.642
		c0.206-0.02,0.414-0.039,0.62-0.059c0.019,0.186,0.036,0.37,0.053,0.555c-0.61,0.059-1.221,0.114-1.831,0.166
		c-0.015-0.186-0.031-0.37-0.048-0.554c0.197-0.018,0.397-0.035,0.594-0.053c-0.093-1.029-0.183-2.059-0.275-3.089
		c-0.192,0.018-0.388,0.034-0.581,0.051c-0.016-0.186-0.032-0.37-0.049-0.556c0.63-0.054,1.259-0.112,1.889-0.172
		c0.721,0.917,1.454,1.83,2.195,2.737c0.021-0.002,0.041-0.004,0.062-0.005c-0.084-0.793-0.173-1.585-0.257-2.378
		c-0.204,0.023-0.407,0.044-0.609,0.066c-0.02-0.186-0.038-0.369-0.058-0.555c0.595-0.062,1.189-0.128,1.782-0.196
		c0.022,0.185,0.044,0.368,0.066,0.553c-0.193,0.023-0.388,0.045-0.583,0.066C168.927,54.5,169.065,55.731,169.205,56.963z
		 M172.973,56.542c-1.415,0.19-2.432-0.582-2.586-1.873c-0.155-1.305,0.716-2.337,1.867-2.493c0.563-0.076,1.011,0.049,1.325,0.322
		c0.024-0.167,0.047-0.335,0.073-0.502c0.199-0.028,0.401-0.058,0.603-0.086c0.08,0.553,0.162,1.107,0.243,1.661
		c-0.223,0.032-0.447,0.064-0.671,0.096c-0.379-0.729-0.81-1.063-1.369-0.988c-0.631,0.086-1.02,0.581-0.867,1.776
		c0.146,1.144,0.683,1.573,1.46,1.468c0.681-0.093,1.003-0.625,1.019-1.34c0.219-0.03,0.436-0.062,0.654-0.094
		C174.767,55.583,174.2,56.375,172.973,56.542z M175.875,56.021c-0.029-0.185-0.056-0.367-0.083-0.551
		c0.206-0.031,0.409-0.063,0.614-0.096c-0.159-1.021-0.318-2.042-0.479-3.063c-0.202,0.03-0.403,0.062-0.604,0.093
		c-0.028-0.185-0.058-0.368-0.085-0.552c1.4-0.213,2.795-0.445,4.19-0.693c0.087,0.491,0.175,0.984,0.264,1.476
		c-0.197,0.035-0.392,0.07-0.587,0.104c-0.308-0.759-0.433-0.894-0.997-0.797c-0.362,0.062-0.726,0.122-1.087,0.181
		c0.067,0.42,0.137,0.839,0.205,1.259c0.122-0.02,0.243-0.041,0.365-0.06c0.38-0.064,0.401-0.139,0.408-0.666
		c0.178-0.03,0.352-0.06,0.527-0.09c0.096,0.562,0.193,1.125,0.289,1.686c-0.177,0.031-0.354,0.061-0.531,0.091
		c-0.167-0.504-0.235-0.571-0.61-0.509c-0.12,0.021-0.243,0.04-0.365,0.06c0.072,0.439,0.143,0.877,0.216,1.315
		c0.36-0.058,0.72-0.119,1.079-0.179c0.689-0.118,0.733-0.361,0.742-1.266c0.197-0.036,0.395-0.071,0.591-0.105
		c0.099,0.546,0.196,1.093,0.294,1.64C178.782,55.559,177.329,55.799,175.875,56.021z"/>
	<path fill="#FFFFFF" d="M122.347,51.962c-0.142-0.024-0.283-0.047-0.423-0.072c-0.085,0.499-0.171,0.999-0.257,1.497
		c0.145,0.025,0.288,0.049,0.433,0.074c0.657,0.11,0.876-0.121,0.959-0.626C123.137,52.353,122.997,52.072,122.347,51.962z"/>
	<path fill="#FFFFFF" d="M160.871,54.2c-0.157,0.537-0.318,1.073-0.48,1.61c0.392-0.024,0.785-0.049,1.178-0.076
		c-0.226-0.512-0.448-1.022-0.67-1.535C160.889,54.199,160.881,54.2,160.871,54.2z"/>
</g>
<g>
	<path fill="#FFFFFF" d="M107.122,72.944h-1.458v2.562h-1.291v-7.972h2.895c1.71,0,2.792,1.048,2.792,2.676
		C110.06,72.01,108.737,72.944,107.122,72.944z M107.164,68.81h-1.5v2.87h1.5c0.976,0,1.584-0.581,1.584-1.435
		C108.748,69.299,108.129,68.81,107.164,68.81z"/>
	<path fill="#FFFFFF" d="M121.339,75.506l-1.803-2.779h-1.616v2.779h-1.291v-7.972h3.274c1.688,0,2.727,0.968,2.727,2.528
		c0,1.321-0.724,2.119-1.751,2.426l1.982,3.018H121.339z M119.797,68.81h-1.877v2.676h1.888c0.923,0,1.511-0.523,1.511-1.344
		C121.319,69.266,120.752,68.81,119.797,68.81z"/>
	<path fill="#FFFFFF" d="M134.907,68.787h-4.154v2.072h3.682v1.253h-3.682v2.141h4.207v1.253h-5.498v-7.972h5.445V68.787z"/>
	<path fill="#FFFFFF" d="M144.572,70.883c1.553,0.41,2.361,1.014,2.361,2.346c0,1.503-1.08,2.392-2.622,2.392
		c-1.123,0-2.182-0.421-3.064-1.276l0.777-1.002c0.703,0.661,1.405,1.037,2.318,1.037c0.797,0,1.3-0.398,1.3-1.014
		c0-0.581-0.293-0.889-1.657-1.229c-1.563-0.411-2.444-0.912-2.444-2.392c0-1.389,1.049-2.323,2.507-2.323
		c1.07,0,1.919,0.353,2.664,1.002l-0.691,1.059c-0.661-0.535-1.323-0.82-1.994-0.82c-0.755,0-1.195,0.421-1.195,0.957
		C142.831,70.245,143.167,70.518,144.572,70.883z"/>
	<path fill="#FFFFFF" d="M159.146,68.787h-4.153v2.072h3.682v1.253h-3.682v2.141h4.207v1.253h-5.498v-7.972h5.444V68.787z"/>
	<path fill="#FFFFFF" d="M171.109,67.534h1.27v7.972h-1.08l-4.05-5.671v5.671h-1.27v-7.972h1.196l3.934,5.512V67.534z"/>
	<path fill="#FFFFFF" d="M182.621,75.506h-1.302v-6.674h-2.328v-1.298h5.958v1.298h-2.328V75.506z"/>
	<path fill="#FFFFFF" d="M194.238,70.883c1.553,0.41,2.36,1.014,2.36,2.346c0,1.503-1.08,2.392-2.623,2.392
		c-1.123,0-2.182-0.421-3.063-1.276l0.777-1.002c0.702,0.661,1.404,1.037,2.318,1.037c0.796,0,1.3-0.398,1.3-1.014
		c0-0.581-0.293-0.889-1.657-1.229c-1.563-0.411-2.444-0.912-2.444-2.392c0-1.389,1.049-2.323,2.508-2.323
		c1.07,0,1.919,0.353,2.664,1.002l-0.692,1.059c-0.661-0.535-1.322-0.82-1.993-0.82c-0.755,0-1.195,0.421-1.195,0.957
		C192.497,70.245,192.833,70.518,194.238,70.883z"/>
</g>
</svg>
