<?xml version="1.0" encoding="utf-8"?>
<!-- Generator: Adobe Illustrator 16.0.0, SVG Export Plug-In . SVG Version: 6.00 Build 0)  -->
<!DOCTYPE svg PUBLIC "-//W3C//DTD SVG 1.1//EN" "http://www.w3.org/Graphics/SVG/1.1/DTD/svg11.dtd">
<svg version="1.1" id="Layer_1" xmlns="http://www.w3.org/2000/svg" xmlns:xlink="http://www.w3.org/1999/xlink" x="0px" y="0px"
	 width="390px" height="350px" viewBox="0 0 390 350" enable-background="new 0 0 390 350" xml:space="preserve">
<path fill="#FFFFFF" d="M278.262,329.71l7.347,15.259h-8.352l-3.2-8.219h-0.353l-3.199,8.219h-8.3l7.347-15.259l-7.14-13.608h8.4
	l2.892,7.37h0.353l2.892-7.37h8.507L278.262,329.71z M255.334,316.102l6.828,28.867h-8.604l-0.722-3.786h-5.246l-0.722,3.786h-8.604
	l6.831-28.867H255.334z M252.359,335.84c-0.586-4.016-1.197-8.036-1.765-12.049c-0.074-0.647-0.131-1.296-0.188-1.946h-0.387
	c-0.078,1.297-0.262,2.589-0.463,3.879l-1.441,10.116H252.359z M222.537,325.995c-0.399,1.276-0.739,2.564-0.871,3.843h-0.394
	c-0.222-1.277-0.528-2.545-0.928-3.802l-3.104-9.935h-9.727v28.867h7.464v-13.003c0-1.416-0.117-2.824-0.306-4.238h0.541
	l4.232,17.241h4.043l4.233-17.241h0.541c-0.145,1.057-0.249,2.117-0.287,3.175c-0.037,4.69-0.012,9.377-0.018,14.066h7.465v-28.867
	h-9.73L222.537,325.995z M197.835,316.102l6.827,28.867h-8.602l-0.722-3.786h-5.246l-0.724,3.786h-8.603l6.831-28.867H197.835z
	 M194.863,335.84c-0.588-4.016-1.2-8.036-1.766-12.049c-0.076-0.647-0.134-1.296-0.189-1.946h-0.386
	c-0.077,1.297-0.262,2.589-0.463,3.879l-1.44,10.116H194.863z M178.648,342.968c0.148,0.659,0.382,1.342,0.722,2.001h-8.238
	c-1.066-1.271-1.144-2.652-1.266-3.989c-0.101-1.698-0.125-3.401-0.093-5.104c-0.046-0.403-0.105-0.808-0.286-1.21
	c-0.129-0.229-0.256-0.455-0.432-0.637c-0.459-0.447-1.048-0.641-1.583-0.734c-0.685-0.099-1.371-0.098-2.057-0.049v11.724h-8.601
	v-28.867c3.591-0.005,7.178,0.014,10.769-0.012c2.009,0.058,4.007,0.136,6.055,0.755c0.313,0.107,0.616,0.248,0.92,0.385
	c0.426,0.237,0.853,0.48,1.224,0.784c0.375,0.305,0.694,0.677,1.014,1.047c0.285,0.422,0.572,0.845,0.784,1.301
	c0.213,0.458,0.348,0.952,0.484,1.443c0.294,1.506,0.416,3.009,0.18,4.525c-0.057,0.337-0.145,0.674-0.261,1.007
	c-0.139,0.331-0.281,0.663-0.471,0.96c-0.19,0.298-0.431,0.564-0.667,0.833c-0.951,0.885-1.892,1.271-2.857,1.584
	c0.665,0.171,1.362,0.442,2.035,0.963c0.315,0.289,0.63,0.577,0.88,0.915c0.251,0.338,0.436,0.725,0.622,1.111
	c0.237,0.639,0.396,1.281,0.488,1.925C178.117,338.073,178.164,340.511,178.648,342.968z M170.181,323.645
	c-0.047-0.354-0.145-0.704-0.301-1.045c-0.144-0.271-0.333-0.525-0.662-0.751c-1.074-0.616-2.208-0.521-3.315-0.521
	c-0.198,0.011-0.395,0.02-0.588,0.031v6.992c1.303,0.034,2.604,0.218,3.917-0.451c0.534-0.323,0.726-0.81,0.851-1.238
	C170.303,325.656,170.272,324.652,170.181,323.645z M142.939,316.102c0.001,6.728,0,13.454-0.003,20.182
	c-0.083,0.982,0.135,2.045-0.782,2.925c-0.108,0.072-0.214,0.143-0.33,0.193c-0.696,0.239-1.325,0.226-1.987,0.089
	c-0.327-0.096-0.631-0.26-0.888-0.608c-0.056-0.096-0.113-0.188-0.156-0.286c-0.211-0.59-0.28-1.141-0.298-1.718
	c-0.035-6.926-0.011-13.851-0.015-20.776h-8.655v19.936c0.004,0.931,0.078,1.861,0.229,2.785c0.173,1.068,0.571,2.163,1.222,3.169
	c0.263,0.391,0.587,0.74,0.913,1.092c0.326,0.297,0.662,0.558,1.005,0.788c2.643,1.607,5.29,1.603,7.901,1.658
	c2.353-0.104,4.733-0.227,7.042-1.603c0.512-0.316,1.129-0.818,1.518-1.279c1.704-2.036,1.85-4.023,1.973-6.021
	c0.032-6.844,0.009-13.686,0.015-20.524H142.939z M125.273,330.515c0.116,2.968,0.161,5.918-0.893,8.913
	c-0.349,0.917-0.837,1.789-1.646,2.63c-1.792,1.795-3.685,2.206-5.534,2.581c-1.639,0.255-3.283,0.335-4.924,0.33h-8.768v-28.867
	c3.439,0.008,6.878-0.029,10.319,0.024c2.083,0.071,4.188,0.247,6.305,1.11c0.802,0.358,1.689,0.844,2.493,1.655
	c0.461,0.525,0.92,1.052,1.264,1.646c0.345,0.593,0.569,1.254,0.797,1.916C125.385,325.129,125.374,327.823,125.273,330.515z
	 M116.345,323.99c-0.065-0.635-0.054-1.259-0.709-1.941c-0.921-0.729-1.885-0.651-2.834-0.687c-0.197-0.002-0.393-0.002-0.59,0
	v18.306c1.03-0.021,2.047,0.087,3.095-0.424c0.249-0.152,0.482-0.344,0.688-0.689c0.358-0.677,0.357-1.381,0.369-2.077
	C116.357,332.313,116.382,328.156,116.345,323.99z M164.903,138.765h1.957c0.917-4.038,1.338-4.707,3.343-4.707h0.619v12.289h-2.551
	v2.155h9.168v-2.155h-2.552v-12.289h0.619c2.007,0,2.428,0.669,3.346,4.707h1.957V132.2h-15.905V138.765z M193.118,134.355V132.2
	h-8.474v2.155h2.23v11.992h-2.23v2.155h8.474v-2.155h-2.206v-5.253h6.366v5.253h-2.228v2.155h8.498v-2.155h-2.23v-11.992h2.23V132.2
	h-8.498v2.155h2.228v4.658h-6.366v-4.658H193.118z M207.334,146.347v2.155h15.733v-6.441h-2.155
	c-0.595,3.444-0.894,4.336-3.396,4.336h-3.914v-5.154h1.338c1.361,0,1.561,0.298,1.857,2.329h1.934v-6.615h-1.934
	c-0.346,2.007-0.469,2.279-1.857,2.279h-1.338v-4.93h4.013c2.082,0,2.454,0.595,3.072,3.691h2.155V132.2h-15.508v2.155h2.23v11.992
	H207.334z M161.563,187.339l5.179,6.751c1.178-1.006,3.822-2.917,8.12-4.327l1.943-15.288c0.058-0.415,0.191-0.758,0.401-1.025
	c0.208-0.268,0.431-0.459,0.668-0.579c0.237-0.119,0.566-0.208,0.982-0.267h8.65c0.118,0,0.266,0.03,0.445,0.087
	c0.356,0.121,0.624,0.268,0.803,0.447c0.295,0.297,0.385,0.713,0.267,1.248l-1.735,13.649c3.895,0.066,8.37,0.627,13.469,1.939
	l2.177-17.728c0.534-3.923-0.237-7.045-2.317-9.363c-0.834-0.951-1.785-1.695-2.854-2.229c-1.069-0.535-2.065-0.937-2.987-1.204
	c-0.921-0.268-1.724-0.416-2.407-0.446c-0.685-0.029-1.057-0.045-1.115-0.045h-12.929c-1.369,0.12-2.557,0.299-3.567,0.535
	c-1.012,0.238-2.112,0.625-3.3,1.16c-1.19,0.534-2.334,1.292-3.432,2.274c-1.101,0.98-2.066,2.229-2.898,3.745
	c-0.834,1.516-1.398,3.343-1.696,5.484L161.563,187.339z M229.85,176.979l-15.467,14.615l-0.047,0.369
	c-0.178,1.13-0.446,1.991-0.802,2.586c-0.358,0.596-0.729,1.039-1.115,1.338c-0.362,0.279-0.854,0.473-1.454,0.594
	c3.844,3.596,5.99,8.841,5.99,15.232c0,1.61-0.116,3.1-0.343,4.506l8.953-5.28l0.808-6.492c0.059-0.356,0.208-0.564,0.445-0.623
	c0.238-0.06,0.388-0.09,0.448-0.09h2.941c0.118,0,0.268,0.03,0.447,0.09c0.296,0.119,0.534,0.355,0.714,0.712l0.749,2.541
	l11.622-6.854l-2.117-7.102c-0.122-0.296-0.181-0.653-0.181-1.07c0-0.296,0.03-0.682,0.091-1.158
	c0.057-0.477,0.238-0.95,0.534-1.428l6.645-12.685c-3.135-3.328-7.528-5.527-10.634-6.773l-9.474,18.121
	c-0.061,0.06-0.091,0.119-0.091,0.179s-0.03,0.12-0.088,0.178v-0.178L229.85,176.979z M213.461,216.457c0,0,2.472-9.715-4.77-19.329
	l-4.772,2.011C203.919,199.139,213.556,203.822,213.461,216.457z M261.349,219.093l13.941-2.372l1.249-9.929l-14.177,4.359
	L261.349,219.093z M259.882,157.765c-0.235-0.028-0.386-0.044-0.443-0.044h-11.146c-0.239,0-0.478,0.06-0.713,0.179
	c-0.538,0.238-0.953,0.594-1.25,1.069l-5.185,9.917c3.117,1.25,7.433,3.415,10.661,6.716l8.525-16.276
	c0.236-0.415,0.267-0.802,0.089-1.159C260.299,157.93,260.121,157.795,259.882,157.765z M228.714,157.765
	c-0.241-0.028-0.389-0.044-0.447-0.044h-10.79c-0.239,0-0.535,0.105-0.893,0.312c-0.354,0.209-0.565,0.58-0.624,1.115l-3.812,30.514
	l15.469-14.616l1.986-15.808c0-0.536-0.086-0.892-0.266-1.07C229.158,157.93,228.95,157.795,228.714,157.765z M190.409,246.663
	l-8.609,5.308h8.609V246.663z M185.73,191.765c-0.058,0.356-0.194,0.566-0.399,0.623c-0.21,0.061-0.344,0.09-0.402,0.09h-10.791
	c-0.2,0-0.324-0.052-0.396-0.138c-4.005,1.353-6.444,3.118-7.477,3.98l6.413,8.361c5.389-7.161,11.081-11.022,20.808-11.022
	c2.015,0,3.891,0.219,5.656,0.597l0.222-1.801c-5.118-1.321-9.598-1.862-13.478-1.9L185.73,191.765z M143.956,211.916
	c-0.208-0.057-0.341-0.087-0.402-0.087h-17.604l18.376,5.357l0.477-3.843c0.06-0.297,0.06-0.52,0-0.669
	c-0.058-0.146-0.147-0.281-0.266-0.402C144.357,212.096,144.164,211.977,143.956,211.916z M157.27,276.007l10.223-12.761v-10.244
	l-8.002,5.511L157.27,276.007z M156.283,220.672l13.154,3.836c0.029-0.115,0.051-0.237,0.065-0.374l0.617-4.944l-12.701-7.552
	L156.283,220.672z M146.258,282.405l3.493-27.517c0.118-0.893,0.477-1.428,1.069-1.605c0.595-0.178,0.921-0.269,0.982-0.269h8.561
	c0.119,0,0.266,0.031,0.445,0.091c0.357,0.119,0.624,0.267,0.803,0.444c0.237,0.238,0.355,0.656,0.355,1.248l8.002-5.511
	l4.751-4.229c-0.326-0.626-0.707-1.217-1.159-1.764c-0.893-0.948-1.872-1.692-2.944-2.229c-0.551-0.276-1.081-0.514-1.594-0.719
	l-32.331,10.483c-0.118,0.562-0.237,1.125-0.317,1.739l-2.552,20.095C136.024,275.903,139.816,279.699,146.258,282.405z
	 M270.179,225.293c0.354-0.179,0.563-0.564,0.623-1.159l0.614-4.89l-13.946,2.371l-0.31,2.429c-0.062,0.476,0.028,0.834,0.267,1.07
	c0.179,0.238,0.386,0.373,0.622,0.402c0.238,0.029,0.389,0.044,0.449,0.044h10.788C269.521,225.561,269.82,225.471,270.179,225.293z
	 M179.006,244.391l12.044-10.41l-31.22,1.631C178.408,238.193,179.006,244.391,179.006,244.391z M213.425,259.59h-21.079
	l6.316,7.018l9.24,2.096L213.425,259.59z M160.312,239.417c-0.653-0.029-1.011-0.046-1.069-0.046h-12.929
	c-0.061,0-0.789,0.077-2.185,0.225c-1.398,0.148-2.975,0.638-4.726,1.471c-1.754,0.833-3.42,2.141-4.995,3.923
	c-1.017,1.151-1.766,2.648-2.301,4.422l29.927-9.705C161.394,239.552,160.804,239.44,160.312,239.417z M285.334,224.044
	c-0.061,0.476,0.03,0.834,0.271,1.07c0.179,0.238,0.385,0.373,0.622,0.402c0.239,0.029,0.385,0.044,0.447,0.044h10.79
	c0.237,0,0.535-0.09,0.89-0.268c0.357-0.179,0.566-0.564,0.625-1.159l1.213-9.782l-13.945,2.369L285.334,224.044z M281.126,159.237
	c0-0.536-0.091-0.892-0.269-1.07c-0.175-0.237-0.387-0.372-0.624-0.402c-0.236-0.028-0.387-0.044-0.445-0.044h-10.79
	c-0.238,0-0.534,0.105-0.891,0.312c-0.358,0.209-0.566,0.58-0.625,1.115l-3.708,29.26l14.795-8.725L281.126,159.237z
	 M305.805,197.793l-14.182,4.361l-1.501,12.045l13.944-2.369L305.805,197.793z M260.814,194.707
	c-0.179,1.07-0.444,1.888-0.803,2.451c-0.357,0.566-0.729,0.981-1.114,1.25c-0.389,0.268-0.877,0.46-1.471,0.579v0.714
	c0.179,0,0.356,0.029,0.534,0.087c0.236,0.121,0.565,0.358,0.98,0.715c0.594,0.714,0.862,1.813,0.804,3.3l-0.925,7.236l14.172-4.355
	l0.307-2.435c0.117-1.129,0.368-1.991,0.758-2.587c0.386-0.593,0.771-1.039,1.159-1.336c0.386-0.299,0.906-0.506,1.561-0.625v-0.714
	c-0.179,0-0.358-0.029-0.535-0.09c-0.119-0.058-0.283-0.135-0.491-0.222c-0.21-0.091-0.371-0.253-0.488-0.492
	c-0.775-0.713-1.012-1.93-0.716-3.655l1.354-10.815l-14.797,8.726L260.814,194.707z M344.469,204.959l14.02-2.383l2.686-21.807
	l-14.245,4.381c-0.262,2.079-0.529,4.276-0.809,6.624l-0.269,2.052c-0.179,0.951-0.444,1.693-0.803,2.229
	c-0.354,0.534-0.729,0.923-1.113,1.158c-0.385,0.239-0.877,0.417-1.472,0.537v0.712c0.118,0,0.296,0.031,0.536,0.089
	c0.356,0.12,0.711,0.356,1.069,0.714c0.653,0.891,0.86,2.11,0.625,3.657L344.469,204.959z M309.302,159.058
	c-0.057-0.118-0.176-0.369-0.355-0.758c-0.179-0.385-0.505-0.579-0.979-0.579h-10.791c-0.24,0-0.534,0.105-0.894,0.312
	c-0.356,0.209-0.566,0.58-0.624,1.115l-1.435,11.303l15.689-9.252L309.302,159.058z M259.253,239.74
	c0-0.538-0.087-0.894-0.269-1.072c-0.178-0.235-0.386-0.37-0.622-0.401c-0.238-0.029-0.389-0.044-0.446-0.044h-10.791
	c-0.237,0-0.534,0.105-0.893,0.312c-0.354,0.209-0.564,0.58-0.623,1.115l-1.363,10.745l13.032,5.15L259.253,239.74z
	 M207.912,230.872l6.132-1.068l-6.096-1.766c-1.548,2.57-4.922,5.669-4.922,5.669l14.929,1.001L207.912,230.872z M385.741,171.159
	c0.389-3.753-0.294-6.751-2.059-8.99c-0.657-0.831-1.397-1.516-2.23-2.05c-0.834-0.536-1.664-0.951-2.498-1.249
	c-0.832-0.297-1.605-0.519-2.317-0.669c-0.713-0.147-1.277-0.222-1.694-0.222c-0.118,0-0.223-0.014-0.312-0.045
	c-0.09-0.028-0.193-0.044-0.313-0.044h-0.268h-12.93h-0.266c-0.121,0-0.227,0.016-0.312,0.044c-0.09,0.032-0.198,0.045-0.313,0.045
	h-0.088c-0.657,0.06-1.651,0.238-2.989,0.535c-1.338,0.298-2.72,0.878-4.146,1.739c-1.427,0.863-2.765,2.051-4.012,3.567
	c-1.247,1.517-2.113,3.523-2.587,6.02c0,0.06-0.046,0.417-0.136,1.071c-0.089,0.654-0.208,1.502-0.354,2.541
	c-0.15,1.04-0.299,2.216-0.446,3.521c-0.148,1.309-0.313,2.647-0.49,4.014c-0.119,0.906-0.24,1.851-0.36,2.817l14.243-4.38
	l0.741-6.017c0.117-0.892,0.476-1.427,1.07-1.605c0.593-0.178,0.921-0.267,0.979-0.267h8.65c0.118,0,0.269,0.03,0.444,0.089
	c0.359,0.12,0.627,0.267,0.805,0.445c0.237,0.356,0.327,0.774,0.27,1.249l-0.31,2.218L385.741,171.159z M230.002,210.777
	l2.473,8.363l12.534-3.854l-3.384-11.363L230.002,210.777z M204.057,237.029c-0.237-0.029-0.387-0.047-0.445-0.047h-2.506
	l3.594,3.516l0.25-1.998c0-0.535-0.09-0.894-0.269-1.069C204.504,237.193,204.294,237.058,204.057,237.029z M246.099,225.561
	c0.059,0,0.257-0.015,0.583-0.044s0.609-0.193,0.846-0.491c0.058-0.119,0.118-0.252,0.178-0.401c0.06-0.148,0.03-0.342-0.088-0.58
	l-0.213-0.719l-12.461,2.119c0.186,0.069,0.322,0.116,0.367,0.116H246.099z M237.738,223.105l13.026-2.213l-1.688-5.659
	l-12.536,3.856l1.149,3.895C237.707,223.03,237.725,223.063,237.738,223.105z M222.897,214.969l-9.075,5.35
	c-0.432,1.84-1.075,3.529-1.926,5.147l10.08-3.098L222.897,214.969z M224.848,224.056c0.358-0.18,0.566-0.566,0.624-1.161
	l0.054-0.418l-6.003,1.847h4.436C224.194,224.323,224.493,224.232,224.848,224.056z M233.394,239.561
	c-0.06-0.119-0.18-0.371-0.358-0.759c-0.176-0.386-0.504-0.579-0.979-0.579h-10.792c-0.235,0-0.535,0.105-0.889,0.312
	c-0.358,0.209-0.567,0.58-0.624,1.115l-0.13,1.011l15.883,6.277L233.394,239.561z M332.688,161.714c0-0.537-0.091-0.893-0.27-1.071
	c-0.178-0.237-0.388-0.371-0.625-0.402c-0.238-0.029-0.386-0.044-0.443-0.044h-10.791c-0.238,0-0.537,0.105-0.891,0.312
	c-0.359,0.209-0.567,0.58-0.625,1.115l-3.744,29.516l-7.508-26.235l-16.241,9.577l-2.647,20.848
	c-0.178,0.893-0.447,1.593-0.803,2.098c-0.354,0.505-0.713,0.861-1.069,1.068c-0.356,0.21-0.833,0.372-1.426,0.491v0.714
	c0.118,0,0.296,0.029,0.535,0.087c0.354,0.121,0.712,0.358,1.068,0.715c0.378,0.42,0.597,0.96,0.688,1.598l14.36-4.416l0.38-3.067
	l0.784,2.71l25.806-7.934L332.688,161.714z M217.955,246.663l-9.062-4.551l2.071,6.011l4.122,0.122v5.745L217.955,246.663z
	 M183.992,304.378c0.179,0.239,0.387,0.372,0.624,0.401c0.237,0.03,0.387,0.045,0.448,0.045h10.788c0.238,0,0.538-0.09,0.892-0.267
	c0.356-0.18,0.565-0.565,0.625-1.161l2.497-19.885c0.117-1.128,0.369-1.989,0.759-2.586c0.385-0.594,0.771-1.039,1.159-1.337
	c0.384-0.298,0.904-0.505,1.56-0.624v-0.714c-0.179,0-0.357-0.028-0.535-0.089c-0.12-0.059-0.282-0.135-0.49-0.223
	c-0.207-0.09-0.373-0.254-0.491-0.491c-0.771-0.715-1.011-1.931-0.713-3.656l0.636-5.089h-13.701l-0.667,5.268
	c-0.177,1.071-0.446,1.888-0.801,2.451c-0.358,0.567-0.731,0.98-1.116,1.25c-0.387,0.268-0.878,0.461-1.473,0.579v0.714
	c0.179,0,0.358,0.029,0.537,0.088c0.237,0.12,0.563,0.356,0.98,0.714c0.595,0.714,0.861,1.814,0.803,3.299l-2.586,20.243
	C183.665,303.784,183.754,304.141,183.992,304.378z M111.319,269.958c-0.06,0.476-0.193,0.834-0.4,1.069
	c-0.209,0.238-0.433,0.402-0.669,0.491c-0.239,0.089-0.566,0.164-0.98,0.223h-9.721c-0.238,0-0.387-0.059-0.445-0.179
	c-0.12-0.118-0.178-0.268-0.178-0.444l1.086-8.393l-14.2,4.605l-0.796,6.373c-0.179,1.129-0.446,1.991-0.803,2.586
	c-0.357,0.595-0.729,1.04-1.115,1.338c-0.387,0.297-0.907,0.505-1.56,0.623v0.714c0.179,0,0.356,0.029,0.535,0.088
	c0.237,0.12,0.565,0.356,0.981,0.714c0.653,0.714,0.892,1.933,0.713,3.657l-2.497,19.885c-0.06,0.476,0.029,0.832,0.268,1.069
	c0.179,0.239,0.386,0.372,0.624,0.401c0.237,0.03,0.386,0.045,0.445,0.045h10.79c0.237,0,0.535-0.09,0.892-0.267
	c0.357-0.18,0.564-0.565,0.624-1.161l2.14-17.209c0.059-0.356,0.208-0.564,0.446-0.624c0.237-0.06,0.387-0.089,0.446-0.089h11.86
	c1.367-0.119,2.556-0.298,3.567-0.536c1.01-0.235,2.125-0.624,3.344-1.159c1.218-0.534,2.378-1.307,3.478-2.318
	c1.1-1.009,2.051-2.258,2.854-3.746c0.804-1.485,1.35-3.328,1.65-5.527l2.254-18.197l-14.22,4.611L111.319,269.958z
	 M180.781,224.323h3.875l-13.316-12.507c0,0-0.612,5.206-0.571,5.382L180.781,224.323z M256.381,284.75h0.09
	c0.119-1.127,0.354-1.99,0.713-2.585c0.356-0.594,0.743-1.04,1.159-1.337c0.415-0.298,0.771-0.477,1.069-0.537
	c0.297-0.057,0.477-0.087,0.534-0.087v-0.714c-0.178,0-0.356-0.029-0.534-0.091c-0.416-0.117-0.773-0.356-1.069-0.713
	c-0.657-0.653-0.893-1.872-0.715-3.655l1.967-15.739l-13.031-5.151l-2.223,17.502l-5.93-20.725l-16.473-6.514l-1.58,12.444
	l35.2,34.438L256.381,284.75z M128.709,291.359c-0.477,4.043,0.297,7.193,2.316,9.451c0.574,0.648,1.181,1.183,1.815,1.622
	l9.862-12.312c-0.077-0.249-0.119-0.515-0.082-0.812l0.713-5.626c-6.381-2.611-10.253-6.229-12.527-9.2
	c-0.138,0.712-0.346,1.287-0.626,1.718c-0.387,0.596-0.772,1.042-1.159,1.338c-0.387,0.3-0.907,0.506-1.561,0.625v0.713
	c0.119,0,0.298,0.031,0.535,0.09c0.358,0.119,0.714,0.356,1.069,0.712c0.656,0.834,0.862,2.052,0.625,3.656L128.709,291.359z
	 M188.17,261.013l-0.013,5.595h8.029l-5.077-7.018l-2.932-1.392l-0.006,2.81l-9.164,1.885l3.617,2.742L188.17,261.013z
	 M137.927,304.323c1.039,0.506,2.035,0.893,2.986,1.16c0.95,0.268,1.753,0.416,2.409,0.444c0.652,0.032,1.008,0.045,1.069,0.045
	h12.929c0.061,0,0.789-0.073,2.188-0.222c1.396-0.148,2.97-0.639,4.724-1.472c1.754-0.833,3.418-2.14,4.995-3.924
	c1.575-1.783,2.569-4.31,2.987-7.58l1.069-8.113c0.119-1.13,0.358-1.991,0.713-2.586c0.356-0.595,0.743-1.039,1.159-1.338
	c0.417-0.296,0.772-0.476,1.072-0.534c0.295-0.061,0.474-0.091,0.535-0.091v-0.714c-0.061,0-0.254-0.029-0.581-0.089
	c-0.326-0.058-0.667-0.297-1.026-0.712c-0.653-0.654-0.89-1.874-0.713-3.657l1.637-12.874h-4.323l-11.069,13.816l-1.851,14.574
	c-0.119,0.951-0.477,1.501-1.069,1.649c-0.595,0.149-0.924,0.224-0.982,0.224h-8.65c-0.119,0-0.267-0.03-0.445-0.09
	c-0.032-0.01-0.051-0.022-0.08-0.032l-9.698,12.105C137.917,304.318,137.922,304.32,137.927,304.323z M207.902,245.559l-5.171-5.06
	h-0.61c-0.184,0.156-0.354,0.303-0.542,0.46l-7.559,6.338l-0.251,1.988h13.668L207.902,245.559z M341.324,212.272
	c-0.478,3.806,0.208,6.81,2.052,9.008c0.652,0.833,1.396,1.517,2.229,2.052c0.833,0.534,1.651,0.95,2.454,1.248
	c0.801,0.298,1.561,0.521,2.274,0.669c0.712,0.147,1.304,0.252,1.781,0.312h0.893h24.7c0.297,0,0.609-0.09,0.937-0.268
	c0.326-0.179,0.55-0.536,0.667-1.07c0.538-4.695,1.072-9.064,1.606-13.107c0.236-1.725,0.46-3.463,0.668-5.218
	c0.208-1.751,0.401-3.401,0.579-4.948c0.013-0.116,0.026-0.217,0.039-0.33l-20.576,3.498l-0.062,0.488
	c0,0.297,0.089,0.609,0.268,0.936c0.181,0.327,0.535,0.552,1.069,0.669h4.996l-0.447,3.924c-0.178,0.832-0.564,1.367-1.158,1.604
	c-0.236,0.178-0.536,0.238-0.892,0.178h-8.649c-0.121,0-0.27-0.028-0.447-0.087c-0.417-0.12-0.683-0.269-0.801-0.447
	c-0.301-0.296-0.386-0.714-0.269-1.248l0.618-5.034l-14.002,2.379L341.324,212.272z M385.134,195.563
	c0.148-1.218,0.281-2.154,0.401-2.809c0.059-0.178,0.059-0.297,0-0.357c0-0.475-0.15-0.787-0.449-0.936
	c-0.296-0.147-0.562-0.222-0.8-0.222l-17.3,0.088c-0.596-0.119-0.996-0.014-1.205,0.312c-0.208,0.327-0.342,0.64-0.401,0.937
	l-1.116,9.018l20.567-3.497C384.935,197.196,385.039,196.335,385.134,195.563z M373.854,176.871v0.1
	c0.116,0.418,0.312,0.686,0.577,0.804c0.27,0.12,0.522,0.209,0.759,0.267h10.79c0.238-0.058,0.535-0.178,0.894-0.356
	c0.356-0.178,0.562-0.534,0.625-1.069l0.545-4.107L373.854,176.871z M289.654,268.345l1.969-15.677
	c0.057-0.355,0.19-0.579,0.4-0.668c0.209-0.089,0.37-0.134,0.492-0.134h10.788c0.236,0,0.534-0.089,0.891-0.268
	s0.565-0.563,0.625-1.159l1.338-10.699c0.058-0.477-0.032-0.834-0.269-1.072c-0.118-0.118-0.223-0.191-0.312-0.223
	c-0.09-0.029-0.192-0.074-0.313-0.134c-0.118-0.059-0.235-0.089-0.354-0.089h-36.65c-0.301,0-0.612,0.089-0.937,0.268
	c-0.328,0.178-0.552,0.565-0.67,1.159l-1.337,10.7c-0.058,0.477,0.027,0.833,0.269,1.07c0.176,0.238,0.384,0.371,0.625,0.401
	c0.235,0.031,0.384,0.045,0.443,0.045h10.701c0.237,0,0.414,0.06,0.534,0.178c0.06,0.061,0.09,0.239,0.09,0.535l-1.335,10.623
	L289.654,268.345z M292.315,278.687c-0.654-0.653-0.893-1.872-0.712-3.655l0.366-2.94l-13.006-5.144l-1.005,7.994
	c-0.12,1.131-0.371,1.992-0.76,2.586c-0.386,0.596-0.771,1.041-1.157,1.338c-0.389,0.299-0.907,0.505-1.561,0.625v0.714
	c0.118,0,0.299,0.03,0.534,0.087c0.358,0.12,0.713,0.356,1.069,0.715c0.655,0.833,0.894,2.05,0.713,3.656l-2.495,19.885
	c-0.062,0.476,0.028,0.832,0.27,1.069c0.178,0.239,0.369,0.373,0.577,0.401c0.208,0.03,0.344,0.046,0.401,0.046h10.79
	c0.299,0,0.61-0.091,0.937-0.268c0.326-0.18,0.549-0.565,0.668-1.161l2.498-19.885c0.119-1.127,0.356-1.99,0.711-2.585
	c0.358-0.594,0.745-1.04,1.161-1.337c0.415-0.298,0.773-0.477,1.069-0.537c0.299-0.057,0.478-0.087,0.534-0.087v-0.714
	c-0.057,0-0.266-0.029-0.624-0.091C292.94,279.342,292.612,279.104,292.315,278.687z M312.436,224.223
	c0.057,0.121,0.178,0.372,0.356,0.76c0.178,0.386,0.504,0.578,0.979,0.578h10.789c0.236,0,0.534-0.09,0.893-0.268
	c0.354-0.179,0.562-0.564,0.625-1.159l1.791-14.277l-18.672,3.175L312.436,224.223z M331.051,203.01h0.09
	c0.118-1.128,0.356-1.991,0.713-2.586c0.356-0.594,0.743-1.039,1.16-1.338c0.416-0.297,0.77-0.475,1.07-0.535
	c0.294-0.058,0.475-0.089,0.535-0.089v-0.712c-0.179,0-0.358-0.029-0.535-0.091c-0.419-0.118-0.774-0.356-1.07-0.713
	c-0.657-0.654-0.892-1.873-0.716-3.656l0.475-3.789l-25.295,7.776l3.852,13.317l19.176-3.261L331.051,203.01z M249.543,303.319
	c0.356-0.181,0.562-0.565,0.623-1.16l1.483-11.807l-35.203-34.439l-2.216,17.443c-0.179,0.892-0.445,1.592-0.803,2.096
	c-0.356,0.506-0.715,0.862-1.069,1.069c-0.357,0.209-0.835,0.373-1.428,0.491v0.713c0.119,0,0.298,0.03,0.535,0.089
	c0.357,0.12,0.713,0.357,1.071,0.714c0.593,0.656,0.832,1.575,0.714,2.765l-2.588,20.775c-0.059,0.478,0.031,0.835,0.268,1.07
	c0.179,0.238,0.388,0.373,0.625,0.402c0.236,0.031,0.387,0.045,0.445,0.045h10.789c0.238,0,0.534-0.089,0.893-0.267
	c0.357-0.181,0.565-0.565,0.625-1.16l3.654-29.516l8.562,29.604c0.059,0.121,0.179,0.372,0.356,0.759
	c0.179,0.387,0.506,0.579,0.981,0.579h10.79C248.887,303.586,249.187,303.497,249.543,303.319z M107.946,257.244l14.215-4.607
	c0.503-3.753-0.271-6.81-2.33-9.163c-0.833-0.95-1.784-1.708-2.853-2.273c-1.071-0.565-2.066-0.967-2.988-1.205
	c-0.923-0.234-1.726-0.386-2.408-0.444c-0.684-0.059-1.056-0.09-1.114-0.09h-24.79c-0.238,0-0.535,0.104-0.892,0.312
	c-0.356,0.209-0.565,0.579-0.624,1.114l-3.135,25.086l14.206-4.607l0.967-7.459c0.059-0.357,0.192-0.58,0.402-0.669
	c0.207-0.09,0.341-0.133,0.4-0.133h9.72c0.119,0,0.267,0.03,0.446,0.088c0.356,0.12,0.624,0.268,0.802,0.446
	c0.297,0.298,0.386,0.714,0.268,1.249L107.946,257.244z M158.365,193.201c-0.177,1.13-0.445,1.992-0.8,2.586
	c-0.358,0.596-0.731,1.039-1.115,1.338c-0.387,0.298-0.908,0.505-1.561,0.625v0.712c0.176,0,0.355,0.031,0.535,0.089
	c0.237,0.12,0.563,0.356,0.979,0.714c0.653,0.713,0.892,1.933,0.714,3.657l-0.77,6.135l12.699,7.551l1.22-9.811l-0.753-0.658
	c0.387-0.57,0.772-1.124,1.159-1.661l-11.802-15.385L158.365,193.201z M150.545,174.723c0.326-0.179,0.549-0.536,0.669-1.071
	l1.338-10.79c0-0.536-0.089-0.893-0.269-1.07c-0.179-0.237-0.387-0.37-0.624-0.401c-0.24-0.029-0.388-0.045-0.446-0.045h-11.492
	l10.399,13.555C150.259,174.857,150.399,174.802,150.545,174.723z M112.086,158.87c-0.238,0-0.534,0.105-0.891,0.312
	c-0.356,0.209-0.566,0.581-0.624,1.115l-2.507,20.053l12.66,7.526l1.885-14.561c0.06-0.357,0.193-0.58,0.401-0.669
	c0.208-0.088,0.341-0.133,0.402-0.133h22.741l-10.467-13.644H112.086z M200.804,215.324c0.349-5.514-2.188-6.275-2.188-6.275
	l-2.005,15.274C196.611,224.323,200.452,220.84,200.804,215.324z M182.54,232.467c0.238,0.029,0.388,0.043,0.448,0.043h10.789
	c0.118,0,0.253-0.021,0.403-0.068l-12.264-3.573l-0.266,2.125c-0.061,0.477,0.029,0.835,0.266,1.072
	C182.095,232.302,182.303,232.438,182.54,232.467z M197.694,206.998c-1.311-0.859-2.937-1.305-4.77-1.305
	c-0.682,0-1.333,0.059-1.961,0.18l5.403,11.708L197.694,206.998z M183.242,213.032l-0.711,5.73l6.164,8.036h5.152
	c0.237,0,0.534-0.089,0.893-0.267c0.356-0.18,0.563-0.564,0.624-1.16l0.695-5.53l-5.405-11.707
	C187.992,208.647,185.738,210.251,183.242,213.032z M131.793,191.24h-5.414l6.369,3.786l0.293-2.361
	c0.06-0.414-0.029-0.742-0.266-0.979c-0.18-0.238-0.373-0.371-0.581-0.401S131.854,191.24,131.793,191.24z M27.187,226.799H2.308
	c-0.299,0-0.521-0.045-0.669-0.134c-0.149-0.089-0.283-0.192-0.401-0.312c-0.12-0.237-0.178-0.459-0.178-0.668
	c0-0.207,0.029-0.342,0.089-0.402l2.408-19.885c0.236-1.604,0.029-2.822-0.624-3.656c-0.356-0.356-0.713-0.594-1.071-0.714
	c-0.238-0.058-0.416-0.088-0.535-0.088v-0.714c0.654-0.118,1.173-0.326,1.561-0.623c0.386-0.298,0.772-0.743,1.16-1.338
	c0.386-0.594,0.638-1.456,0.758-2.586l2.006-16.06l13.191,3.846l-1.197,9.628c-0.06,0.179-0.031,0.326,0.089,0.445
	c0.059,0.119,0.208,0.178,0.445,0.178h9.72c0.059,0,0.385-0.073,0.981-0.223c0.594-0.148,0.951-0.669,1.07-1.561l0.627-5.046
	l13.188,3.846l-0.619,5.034c-0.178,1.547-0.58,2.675-1.204,3.389c-0.625,0.714-1.204,1.191-1.739,1.428
	c0.356,0.238,0.624,0.444,0.803,0.624c0.832,0.952,1.159,2.29,0.98,4.012l-0.088,0.179v0.268c-0.238,1.843-0.462,3.582-0.669,5.216
	c-0.209,1.638-0.312,2.513-0.312,2.631c-0.357,2.854-1.146,5.129-2.364,6.821c-1.219,1.694-2.572,3.02-4.057,3.969
	c-1.486,0.952-2.943,1.592-4.369,1.918c-1.427,0.327-2.498,0.521-3.211,0.579H27.187z M26.652,213.156
	c0.058,0,0.385-0.09,0.981-0.269c0.593-0.178,0.95-0.713,1.07-1.604l0.268-2.229c0.058-0.476-0.031-0.891-0.268-1.249
	c-0.239-0.236-0.566-0.356-0.981-0.356h-9.987c-0.06,0-0.193,0.03-0.401,0.09c-0.209,0.06-0.343,0.267-0.402,0.625l-0.535,4.279
	c-0.06,0.238-0.03,0.417,0.089,0.535c0.059,0.12,0.208,0.179,0.446,0.179H26.652z M106.906,196.937
	c-0.357,0.595-0.729,1.041-1.116,1.338c-0.387,0.298-0.907,0.505-1.56,0.623v0.714c0.179,0,0.357,0.03,0.535,0.09
	c0.236,0.119,0.564,0.356,0.981,0.712c0.653,0.714,0.891,1.933,0.713,3.656l-0.25,2.004l13.16,3.838l0.376-3.076
	c0.059-0.357,0.207-0.565,0.446-0.625c0.237-0.06,0.386-0.089,0.447-0.089h10.79c0.236,0,0.534-0.103,0.89-0.312
	c0.358-0.209,0.566-0.581,0.626-1.116l0.878-7.086l-8.628-5.13h-2.951c-0.24,0-0.387-0.09-0.446-0.268
	c-0.12-0.059-0.178-0.207-0.178-0.445l0.169-1.312l-12.653-7.523l-1.428,11.421C107.529,195.48,107.261,196.342,106.906,196.937z
	 M78.459,225.729c0,0.178,0.119,0.387,0.356,0.624c0.297,0.3,0.683,0.446,1.159,0.446h10.522h0.089c0.237,0,0.536-0.104,0.892-0.312
	c0.356-0.206,0.564-0.58,0.624-1.114l1.249-9.986c0.178-1.25,0.341-2.483,0.49-3.701c0.148-1.218,0.282-2.304,0.401-3.255
	c0.118-0.944,0.266-2.009,0.443-3.188L56.539,194.12l-0.194,1.559c-0.12,1.13-0.372,1.992-0.758,2.586
	c-0.388,0.595-0.774,1.04-1.159,1.338c-0.389,0.297-0.908,0.505-1.562,0.623v0.714c0.119,0,0.297,0.03,0.536,0.088
	c0.357,0.12,0.713,0.357,1.07,0.714c0.653,0.834,0.861,2.052,0.624,3.656l-2.408,19.885c-0.059,0.061-0.088,0.195-0.088,0.402
	c0,0.209,0.059,0.431,0.178,0.668c0.119,0.12,0.252,0.224,0.401,0.312s0.371,0.134,0.669,0.134h10.701
	c0.653,0,1.099-0.162,1.337-0.49c0.238-0.326,0.357-0.638,0.357-0.937l2.229-17.209c0.059-0.358,0.192-0.565,0.402-0.625
	c0.208-0.06,0.341-0.09,0.401-0.09h9.987c0.416,0,0.742,0.12,0.981,0.356c0.237,0.358,0.326,0.773,0.268,1.249l-2.051,16.318
	C78.399,225.491,78.399,225.61,78.459,225.729z M30.653,183.164l13.188,3.846l1.814-14.764c0.535-3.804-0.208-6.896-2.229-9.274
	c-0.892-0.95-1.873-1.708-2.942-2.273c-1.071-0.565-2.067-0.967-2.988-1.205c-0.922-0.236-1.709-0.386-2.363-0.445
	c-0.655-0.059-1.012-0.089-1.07-0.089H9.184c-0.239,0-0.521,0.105-0.847,0.312c-0.328,0.209-0.551,0.58-0.669,1.115l-1.939,15.511
	l13.19,3.847l0.788-6.339c0.058-0.357,0.192-0.579,0.401-0.669c0.208-0.089,0.371-0.133,0.491-0.133h9.629
	c0.119,0,0.269,0.03,0.447,0.088c0.357,0.12,0.625,0.268,0.803,0.447c0.296,0.297,0.385,0.713,0.267,1.248L30.653,183.164z
	 M142.841,226.442c0.357-0.179,0.565-0.536,0.624-1.07l0.706-5.702l-22.646-6.604h-1.689c-0.239,0-0.417-0.06-0.535-0.179
	c-0.06-0.058-0.09-0.207-0.09-0.445l0.006-0.048l-13.164-3.839l-2.091,16.727c-0.06,0.418,0.03,0.745,0.268,0.981
	c0.179,0.238,0.386,0.373,0.624,0.401c0.237,0.03,0.386,0.045,0.446,0.045h36.65C142.188,226.71,142.485,226.62,142.841,226.442z
	 M61.962,160.197h8.941l27.178,16.16l-2.233,18.171c-0.178,1.547-0.58,2.675-1.203,3.389c-0.625,0.714-1.205,1.189-1.74,1.428
	c0.357,0.238,0.625,0.443,0.803,0.624c0.617,0.706,0.953,1.626,1.015,2.755l-38.026-11.088l3.751-30.011
	c0.118-0.536,0.341-0.906,0.669-1.115C61.441,160.303,61.724,160.197,61.962,160.197z M70.434,192.3
	c0.059,0.119,0.208,0.178,0.446,0.178h9.72c0.058,0,0.386-0.073,0.98-0.224c0.594-0.147,0.951-0.668,1.071-1.56l1.872-15.07
	c0.118-0.534,0.029-0.951-0.267-1.249c-0.178-0.179-0.446-0.326-0.803-0.446c-0.178-0.058-0.328-0.089-0.446-0.089h-9.63
	c-0.12,0-0.283,0.044-0.491,0.133c-0.209,0.09-0.343,0.312-0.401,0.669l-2.14,17.21C70.285,192.031,70.314,192.181,70.434,192.3z
	 M95.957,169.769c0.535-3.804-0.209-6.896-2.229-9.274c-0.893-0.951-1.874-1.708-2.943-2.273s-2.066-0.966-2.987-1.205
	c-0.922-0.235-1.709-0.386-2.363-0.445c-0.655-0.059-1.011-0.09-1.07-0.09H70.849l24.919,14.817L95.957,169.769z M158.98,138.177
	H2.774v4.586H158.98V138.177z M386.21,138.177H230.002v4.586H386.21V138.177z M2.774,332.838h91.275v-4.587H2.774V332.838z
	 M294.933,332.838h91.277v-4.587h-91.277V332.838z M194.076,47.285c2.794,0,4.241-1.162,4.556-3.653l0.023-0.183h3.497v-2.378
	h-0.197c-0.245,0.508-0.661,0.746-1.296,0.746h-5.606l-0.511,2.06h0.104c0.28-0.276,0.624-0.396,1.134-0.396h0.826l-0.042,0.244
	c-0.129,0.786-0.79,1.581-1.976,1.581c-1.225,0-2.113-0.908-2.113-2.161c0-1.465,0.897-2.317,2.533-2.418v-1.545
	c-0.982-0.046-2.034-0.421-2.034-1.363c0-0.745,0.62-1.084,1.202-1.084c0.872,0.019,1.391,0.773,1.617,1.207h0.217L195.74,35.3
	h-0.25l-0.276,0.388l-0.147-0.052c-0.711-0.25-1.099-0.353-1.667-0.353c-1.286,0-2.585,0.692-2.585,2.237
	c0,0.922,0.543,1.585,1.614,1.97l0.664,0.238l-0.688,0.164c-1.742,0.413-2.781,1.684-2.781,3.401
	C189.624,44.785,190.202,47.285,194.076,47.285z M193.625,71.374c0.004-0.568-0.2-0.843-0.96-0.851
	c-0.266-0.001-0.532-0.004-0.797-0.007c-0.006,0.577-0.014,1.152-0.021,1.729c0.259,0.004,0.518,0.006,0.776,0.009
	C193.318,72.259,193.624,72.008,193.625,71.374z M185.401,70.199c-0.935-0.039-1.417,0.62-1.491,2.132
	c-0.076,1.52,0.408,2.221,1.363,2.262c0.957,0.039,1.438-0.623,1.492-2.143C186.819,70.938,186.338,70.236,185.401,70.199z
	 M172.743,70.29c0.057-0.566-0.121-0.86-0.876-0.938c-0.264-0.028-0.526-0.055-0.792-0.085c-0.061,0.574-0.124,1.146-0.184,1.72
	c0.255,0.027,0.512,0.056,0.771,0.083C172.354,71.141,172.679,70.921,172.743,70.29z M143.283,66.133
	c1.795-1.666,3.56-3.351,5.288-5.058c-0.85-2.275-1.661-4.553-2.435-6.835c4.46,1.071,8.953,1.993,13.459,2.764
	c-2.598,1.623-5.256,3.198-7.975,4.72c1.058,0.218,2.119,0.425,3.179,0.625c0.272,0.052,0.544,0.102,0.816,0.151
	c0.815,0.153,1.636,0.299,2.452,0.441c3.372,0.583,6.758,1.085,10.148,1.505c-0.141-0.164-0.284-0.326-0.423-0.493l-0.023-0.03
	l-0.024-0.027c-2.274-2.827-3.956-6.619-5.14-11.589c-0.907-3.799-1.525-8.24-1.943-13.979c-0.337-4.675-0.483-9.46-0.622-14.089
	c-0.146-4.849-0.283-9.428-0.631-13.331l-0.043-0.497l-0.493-5.596l5.501,1.138c0.06,0.011,5.853,1.193,12.488,1.193
	c6.956,0,12.21-1.341,14.803-3.779l2.853-2.758l2.904,2.744c2.587,2.446,7.848,3.793,14.816,3.793
	c6.592,0,12.434-1.183,12.487-1.193l5.5-1.138l-0.491,5.596l-0.045,0.499c-0.344,3.901-0.485,8.48-0.629,13.329
	c-0.14,4.628-0.284,9.414-0.621,14.093c-0.629,8.583-2,19.247-7.082,25.564l-0.025,0.027l-0.026,0.03
	c-0.134,0.162-0.272,0.32-0.41,0.481c3.361-0.418,6.713-0.915,10.059-1.496c0.805-0.14,1.608-0.283,2.41-0.431
	c0.277-0.052,0.557-0.103,0.836-0.156c1.052-0.198,2.098-0.402,3.146-0.618c-2.699-1.512-5.34-3.077-7.921-4.689
	c-0.002-0.015-0.004-0.027-0.007-0.041c4.509-0.771,8.996-1.692,13.459-2.764c-0.771,2.282-1.584,4.56-2.434,6.835
	c1.727,1.707,3.49,3.392,5.288,5.058c-2.362,0.566-4.732,1.094-7.106,1.582c0.409,1.995,0.817,3.994,1.228,5.99
	c-11.847,2.431-23.841,3.896-35.865,4.401c-3.327,1.869-6.217,3.112-8.127,3.742l-1.309,0.432l-1.311-0.432
	c-1.908-0.63-4.796-1.872-8.118-3.737c-12.057-0.502-24.083-1.969-35.961-4.406c0.409-1.997,0.819-3.995,1.227-5.99
	C148.015,67.228,145.646,66.7,143.283,66.133z M227.256,67.352c0.036,0.24,0.075,0.479,0.111,0.72
	c0.262-0.042,0.526-0.083,0.788-0.123c0.209,1.333,0.417,2.664,0.624,3.996c-0.266,0.042-0.531,0.084-0.8,0.125
	c0.036,0.239,0.068,0.478,0.107,0.718c1.898-0.289,3.791-0.602,5.683-0.942c-0.129-0.712-0.255-1.426-0.385-2.138
	c-0.255,0.044-0.513,0.091-0.769,0.137c-0.013,1.18-0.07,1.497-0.971,1.65c-0.467,0.079-0.936,0.159-1.405,0.234
	c-0.095-0.571-0.188-1.143-0.281-1.715c0.158-0.026,0.32-0.052,0.477-0.079c0.487-0.081,0.577,0.006,0.797,0.664
	c0.229-0.039,0.461-0.078,0.691-0.118c-0.125-0.732-0.252-1.466-0.376-2.199c-0.23,0.039-0.458,0.079-0.689,0.118
	c-0.009,0.687-0.036,0.785-0.532,0.868c-0.159,0.025-0.315,0.054-0.477,0.079c-0.089-0.548-0.178-1.095-0.267-1.643
	c0.47-0.077,0.944-0.155,1.417-0.236c0.736-0.125,0.899,0.05,1.301,1.04c0.254-0.044,0.509-0.091,0.765-0.135
	c-0.116-0.643-0.229-1.285-0.344-1.926C230.901,66.771,229.082,67.074,227.256,67.352z M220.929,71.026
	c0.202,1.684,1.526,2.689,3.373,2.442c1.602-0.218,2.34-1.251,2.284-2.678c-0.285,0.042-0.569,0.083-0.853,0.123
	c-0.021,0.933-0.442,1.627-1.331,1.748c-1.014,0.137-1.711-0.423-1.902-1.915c-0.199-1.559,0.308-2.203,1.129-2.316
	c0.73-0.099,1.293,0.337,1.787,1.288c0.292-0.041,0.586-0.083,0.876-0.125c-0.105-0.722-0.213-1.445-0.318-2.166
	c-0.262,0.037-0.525,0.076-0.785,0.112c-0.034,0.219-0.064,0.438-0.097,0.656c-0.408-0.356-0.992-0.52-1.729-0.42
	C221.862,67.978,220.727,69.324,220.929,71.026z M174.912,73.423c-0.173-0.067-0.345-0.137-0.518-0.206
	c-0.157,0.362-0.278,0.469-0.403,0.458c-0.179-0.018-0.251-0.107-0.235-0.467c0.001-0.11,0.001-0.219,0.002-0.328
	c0.035-0.652-0.287-1.15-1.397-1.355c0-0.019,0.003-0.039,0.005-0.06c1.395-0.01,1.881-0.513,1.941-1.17
	c0.063-0.692-0.463-1.441-2.208-1.619c-1.057-0.11-2.113-0.228-3.168-0.354c-0.029,0.241-0.057,0.481-0.086,0.724
	c0.264,0.03,0.527,0.062,0.791,0.093c-0.151,1.339-0.306,2.678-0.461,4.018c-0.268-0.032-0.538-0.062-0.807-0.095
	c-0.028,0.241-0.057,0.481-0.085,0.722c1.038,0.124,2.074,0.238,3.113,0.347c0.025-0.242,0.05-0.481,0.076-0.724
	c-0.279-0.029-0.557-0.058-0.835-0.088c0.061-0.554,0.122-1.107,0.181-1.662c0.241,0.026,0.486,0.052,0.73,0.078
	c0.657,0.068,0.786,0.333,0.734,0.94c-0.008,0.094-0.014,0.189-0.021,0.285c-0.094,0.913,0.275,1.405,1.206,1.494
	C174.277,74.534,174.683,74.067,174.912,73.423z M181.374,69.439c-1.798-0.108-3.595-0.24-5.393-0.395
	c-0.021,0.241-0.042,0.483-0.063,0.726c0.267,0.022,0.531,0.044,0.795,0.067c-0.109,1.342-0.22,2.687-0.332,4.03
	c-0.269-0.021-0.539-0.043-0.808-0.066c-0.02,0.242-0.041,0.482-0.06,0.723c1.087,0.094,2.174,0.179,3.262,0.256
	c0.016-0.242,0.037-0.483,0.054-0.726c-0.329-0.022-0.654-0.048-0.982-0.071c0.04-0.54,0.082-1.079,0.123-1.617
	c0.125,0.01,0.25,0.018,0.376,0.027c0.49,0.036,0.571,0.15,0.611,0.849c0.233,0.016,0.466,0.032,0.7,0.048
	c0.051-0.75,0.103-1.502,0.153-2.251c-0.231-0.016-0.463-0.033-0.69-0.049c-0.155,0.667-0.225,0.756-0.725,0.72
	c-0.126-0.009-0.248-0.018-0.374-0.028c0.044-0.583,0.089-1.167,0.131-1.75c0.403,0.03,0.803,0.059,1.203,0.086
	c0.744,0.051,0.926,0.223,1.127,1.366c0.258,0.018,0.518,0.032,0.774,0.047C181.294,70.769,181.333,70.105,181.374,69.439z
	 M188.354,72.492c0.044-1.747-1.174-2.905-2.895-2.978c-1.681-0.071-3.038,1.024-3.14,2.743c-0.1,1.744,1.122,2.945,2.898,3.019
	C186.949,75.349,188.309,74.22,188.354,72.492z M196.079,74.286c-0.177-0.051-0.354-0.104-0.532-0.156
	c-0.121,0.377-0.231,0.496-0.358,0.496c-0.18,0-0.261-0.084-0.28-0.443c-0.011-0.109-0.017-0.217-0.027-0.326
	c-0.029-0.652-0.396-1.116-1.521-1.215c0-0.019,0-0.039,0-0.058c1.384-0.145,1.821-0.692,1.816-1.352
	c-0.002-0.694-0.594-1.39-2.35-1.401c-1.059-0.008-2.12-0.025-3.181-0.049c-0.005,0.243-0.012,0.485-0.017,0.728
	c0.265,0.006,0.532,0.012,0.797,0.017c-0.027,1.348-0.05,2.696-0.077,4.043c-0.271-0.003-0.54-0.01-0.812-0.016
	c-0.005,0.242-0.011,0.483-0.015,0.727c1.042,0.023,2.085,0.038,3.127,0.047c0.002-0.241,0.003-0.485,0.005-0.727
	c-0.278-0.003-0.557-0.005-0.837-0.009c0.008-0.556,0.013-1.114,0.021-1.671c0.243,0.002,0.486,0.005,0.731,0.007
	c0.662,0.006,0.814,0.257,0.819,0.868c0.003,0.094,0.004,0.189,0.008,0.284c-0.005,0.919,0.409,1.373,1.341,1.373
	C195.554,75.452,195.913,74.947,196.079,74.286z M204.979,75.09c-0.013-0.242-0.022-0.483-0.036-0.727
	c-0.263,0.014-0.528,0.024-0.791,0.037c-0.059-1.347-0.117-2.695-0.177-4.041c0.261-0.012,0.519-0.023,0.778-0.035
	c-0.011-0.243-0.022-0.485-0.032-0.728c-0.913,0.043-1.829,0.081-2.742,0.112c-0.351,1.144-0.71,2.287-1.075,3.43
	c-0.007,0-0.017,0-0.025,0c-0.456-1.117-0.906-2.237-1.349-3.36c-0.933,0.023-1.866,0.038-2.795,0.047
	c0.001,0.242,0.002,0.486,0.006,0.728c0.254-0.003,0.508-0.006,0.761-0.01c0.019,1.349,0.039,2.696,0.057,4.044
	c-0.259,0.004-0.519,0.008-0.774,0.01c0.001,0.242,0.005,0.484,0.009,0.727c0.775-0.007,1.554-0.02,2.33-0.036
	c-0.005-0.243-0.011-0.483-0.015-0.727c-0.25,0.005-0.501,0.01-0.749,0.015c-0.022-1.291-0.043-2.579-0.067-3.871
	c0.028,0,0.055,0,0.081,0c0.619,1.524,1.252,3.045,1.896,4.565c0.204-0.005,0.406-0.011,0.605-0.016
	c0.544-1.552,1.069-3.105,1.587-4.661c0.026-0.001,0.054-0.001,0.08-0.002c0.047,1.288,0.095,2.577,0.142,3.867
	c-0.247,0.008-0.497,0.017-0.747,0.027c0.008,0.241,0.016,0.483,0.025,0.725C202.967,75.177,203.974,75.137,204.979,75.09z
	 M205.697,63.147c0.735,0.289,2.205,0.778,3.784,0.778c4.462,0,5.128-2.908,5.128-4.641c0-1.254-0.662-2.363-1.284-2.985
	c-0.974-0.974-2.449-1.673-3.75-2.292c-1.021-0.483-1.903-0.903-2.359-1.369c-0.376-0.351-0.457-0.764-0.457-1.051
	c0-0.859,0.746-1.732,2.172-1.732c2.416,0,3.873,1.988,4.444,2.957h0.504l-0.527-4.763h-0.245l-0.618,0.711l-0.244-0.12
	c-0.761-0.372-1.708-0.834-3.578-0.834c-3.208,0-4.644,1.965-4.644,3.913c0,1.119,0.423,2.211,1.13,2.918
	c0.824,0.823,2.051,1.409,3.235,1.978c1.08,0.519,2.101,1.007,2.722,1.639c0.574,0.553,0.654,1.043,0.654,1.492
	c0,1.004-0.78,2.019-2.523,2.019c-1.941,0-4.141-1.255-5.275-3h-0.516l1.343,4.961h0.265l0.497-0.639L205.697,63.147z
	 M212.515,74.607c-0.019-0.242-0.039-0.483-0.059-0.726c-0.235,0.02-0.466,0.038-0.703,0.057c-0.749-1.549-1.488-3.101-2.212-4.657
	c-0.479,0.035-0.963,0.066-1.442,0.094c-0.521,1.64-1.058,3.274-1.606,4.91c-0.216,0.012-0.434,0.023-0.649,0.034
	c0.014,0.242,0.025,0.483,0.036,0.726c0.762-0.039,1.524-0.081,2.286-0.128c-0.016-0.242-0.03-0.483-0.045-0.726
	c-0.246,0.016-0.498,0.03-0.748,0.044c0.107-0.349,0.212-0.698,0.316-1.047c0.671-0.042,1.345-0.084,2.017-0.129
	c0.148,0.332,0.299,0.666,0.448,0.998c-0.267,0.019-0.532,0.039-0.8,0.055c0.015,0.243,0.031,0.485,0.049,0.726
	C210.438,74.769,211.477,74.692,212.515,74.607z M218.844,69.2c0.254-0.028,0.507-0.057,0.758-0.087
	c-0.027-0.24-0.056-0.48-0.086-0.721c-0.772,0.089-1.548,0.175-2.322,0.256c0.024,0.241,0.049,0.481,0.073,0.723
	c0.264-0.027,0.53-0.055,0.796-0.085c0.109,1.035,0.226,2.067,0.335,3.102c-0.027,0.002-0.054,0.005-0.079,0.007
	c-0.969-1.184-1.926-2.375-2.865-3.57c-0.82,0.079-1.641,0.155-2.462,0.225c0.021,0.242,0.041,0.482,0.062,0.724
	c0.253-0.021,0.507-0.043,0.759-0.067c0.121,1.344,0.237,2.687,0.359,4.029c-0.257,0.024-0.518,0.046-0.774,0.069
	c0.021,0.24,0.042,0.481,0.062,0.723c0.796-0.067,1.593-0.14,2.389-0.216c-0.021-0.242-0.045-0.482-0.068-0.725
	c-0.27,0.027-0.541,0.052-0.811,0.078c-0.104-1.149-0.21-2.298-0.318-3.446c0.027-0.003,0.054-0.005,0.081-0.007
	c1.041,1.33,2.102,2.653,3.177,3.968c0.494-0.053,0.985-0.106,1.479-0.162C219.207,72.411,219.024,70.807,218.844,69.2z
	 M169.698,15.367c0.554,0.199,0.926,0.713,0.926,1.303v12.24c0,0.656-0.318,1.087-0.902,1.232v0.168h4.917v-0.18
	c-0.804-0.358-0.951-0.897-0.951-1.86v-5.216h9.527v5.702c0,0.637-0.334,1.128-0.903,1.343v0.21h4.896v-0.248
	c-0.584-0.198-0.926-0.725-0.926-1.439V16.627c0-0.515,0.281-1.094,0.904-1.306v-0.249h-4.917v0.248
	c0.597,0.198,0.946,0.733,0.946,1.461v4.135h-9.527v-4.29c0-0.569,0.366-1.066,0.907-1.26v-0.294h-4.898V15.367z M171,61.274
	c1.146,1.371,2.354,2.659,3.596,3.868c6.622,0.622,13.267,0.934,19.91,0.934V49.171c3.503-0.136,5.048-1.917,5.681-3.823h3.865
	v-3.531h19.89c0.125-1.247,0.232-2.512,0.326-3.792c0.688-9.486,0.568-19.698,1.26-27.485l0.044-0.497c0,0-6.197,1.281-13.335,1.281
	c-6.399,0-13.558-1.029-17.687-4.936v27.013h-0.039l-0.059,0.082c-0.322-0.062-0.662-0.099-1.053-0.099
	c-2.599,0-4.485,1.741-4.485,4.137c0,0.681,0.161,1.304,0.468,1.852c-0.75,0.684-1.264,1.573-1.502,2.597h-22.707
	C165.984,49.901,167.546,56.982,171,61.274z M161.261,72.839c1.899,0.288,3.799,0.549,5.702,0.786
	c0.087-0.718,0.178-1.437,0.268-2.156c-0.257-0.032-0.516-0.064-0.775-0.098c-0.36,1.125-0.508,1.41-1.413,1.289
	c-0.47-0.063-0.943-0.126-1.414-0.193c0.081-0.573,0.161-1.147,0.242-1.722c0.161,0.023,0.319,0.046,0.48,0.068
	c0.486,0.066,0.545,0.175,0.561,0.869c0.231,0.032,0.463,0.063,0.696,0.094c0.096-0.738,0.194-1.475,0.291-2.213
	c-0.23-0.03-0.46-0.062-0.688-0.092c-0.214,0.654-0.271,0.739-0.767,0.67c-0.16-0.021-0.318-0.043-0.478-0.065
	c0.077-0.549,0.153-1.098,0.23-1.649c0.476,0.068,0.951,0.132,1.424,0.196c0.737,0.1,0.844,0.314,0.93,1.379
	c0.258,0.032,0.514,0.065,0.768,0.097c0.084-0.646,0.165-1.293,0.246-1.94c-1.83-0.229-3.658-0.483-5.481-0.757
	c-0.036,0.24-0.073,0.48-0.108,0.719c0.261,0.041,0.527,0.08,0.789,0.118c-0.195,1.333-0.393,2.668-0.589,4.002
	c-0.269-0.04-0.536-0.079-0.804-0.12C161.333,72.36,161.298,72.6,161.261,72.839z M154.65,71.74c1.041,0.189,2.084,0.37,3.127,0.545
	c0.042-0.238,0.082-0.479,0.122-0.717c-0.289-0.048-0.578-0.097-0.867-0.146c0.082-0.461,0.158-0.923,0.239-1.384
	c0.225,0.039,0.45,0.078,0.671,0.114c1.837,0.307,2.645-0.336,2.79-1.267c0.151-0.967-0.444-1.757-2.246-2.059
	c-0.952-0.159-1.904-0.325-2.852-0.5c-0.043,0.24-0.087,0.477-0.129,0.716c0.262,0.049,0.523,0.095,0.786,0.143
	c-0.237,1.327-0.474,2.654-0.71,3.982c-0.267-0.049-0.536-0.096-0.801-0.145C154.736,71.262,154.693,71.5,154.65,71.74z
	 M159.204,68.632c0.101-0.627-0.082-0.994-0.93-1.137c-0.185-0.031-0.368-0.062-0.551-0.094c-0.111,0.651-0.224,1.303-0.335,1.952
	c0.188,0.032,0.375,0.064,0.564,0.097C158.811,69.594,159.095,69.292,159.204,68.632z M208.519,70.415
	c-0.205,0.7-0.415,1.399-0.626,2.1c0.511-0.032,1.023-0.064,1.535-0.099c-0.294-0.668-0.584-1.334-0.874-2.002
	C208.541,70.413,208.532,70.415,208.519,70.415z M136.517,98.203h-1.684V87.805h3.776c2.23,0,3.641,1.367,3.641,3.491
	c0,2.346-1.725,3.564-3.832,3.564h-1.901V98.203z M136.517,93.211h1.955c1.272,0,2.066-0.758,2.066-1.871
	c0-1.233-0.807-1.872-2.066-1.872h-1.955V93.211z M156.358,94.266l2.586,3.937h-1.984l-2.353-3.625H152.5v3.625h-1.684V87.805h4.269
	c2.203,0,3.558,1.263,3.558,3.297C158.644,92.825,157.699,93.865,156.358,94.266z M156.933,91.206c0-1.144-0.739-1.738-1.984-1.738
	H152.5v3.49h2.463C156.167,92.958,156.933,92.276,156.933,91.206z M174.656,89.438v-1.634h-7.101v10.398h7.17v-1.634h-5.486v-2.793
	h4.802v-1.633h-4.802v-2.704H174.656z M186.961,96.732c-1.191,0-2.107-0.49-3.024-1.352l-1.013,1.307
	c1.15,1.114,2.531,1.664,3.996,1.664c2.011,0,3.42-1.159,3.42-3.12c0-1.738-1.053-2.525-3.079-3.06
	c-1.833-0.475-2.27-0.831-2.27-1.648c0-0.698,0.574-1.248,1.559-1.248c0.875,0,1.738,0.372,2.6,1.069l0.902-1.381
	c-0.971-0.846-2.079-1.306-3.475-1.306c-1.902,0-3.271,1.217-3.271,3.03c0,1.931,1.149,2.584,3.188,3.12
	c1.779,0.445,2.162,0.847,2.162,1.604C188.656,96.212,188,96.732,186.961,96.732z M206.269,89.438v-1.634h-7.101v10.398h7.169
	v-1.634h-5.486v-2.793h4.802v-1.633h-4.802v-2.704H206.269z M221.871,94.994l-5.131-7.189h-1.561v10.398h1.656v-7.397l5.282,7.397
	h1.408V87.805h-1.655V94.994z M236.885,98.203v-8.705h3.038v-1.693h-7.772v1.693h3.038v8.705H236.885z M251.737,96.732
	c-1.191,0-2.109-0.49-3.025-1.352l-1.014,1.307c1.151,1.114,2.532,1.664,3.996,1.664c2.012,0,3.422-1.159,3.422-3.12
	c0-1.738-1.054-2.525-3.078-3.06c-1.834-0.475-2.271-0.831-2.271-1.648c0-0.698,0.572-1.248,1.559-1.248
	c0.875,0,1.739,0.372,2.6,1.069l0.901-1.381c-0.971-0.846-2.077-1.306-3.474-1.306c-1.902,0-3.27,1.217-3.27,3.03
	c0,1.931,1.149,2.584,3.188,3.12c1.778,0.445,2.161,0.847,2.161,1.604C253.432,96.212,252.774,96.732,251.737,96.732z"/>
</svg>
