<?xml version="1.0" encoding="utf-8"?>
<!-- Generator: Adobe Illustrator 16.2.1, SVG Export Plug-In . SVG Version: 6.00 Build 0)  -->
<!DOCTYPE svg PUBLIC "-//W3C//DTD SVG 1.1//EN" "http://www.w3.org/Graphics/SVG/1.1/DTD/svg11.dtd">
<svg version="1.1" id="Layer_1" xmlns="http://www.w3.org/2000/svg" xmlns:xlink="http://www.w3.org/1999/xlink" x="0px" y="0px"
	 width="31px" height="35px" viewBox="0 0 31 35" enable-background="new 0 0 31 35" xml:space="preserve">
<g>
	<polygon fill="#FBF49C" points="8.361,28.14 5.064,28.14 5.064,22.79 3.961,22.79 3.961,29.157 8.361,29.157 	"/>
	<rect x="10.466" y="22.79" fill="#FBF49C" width="1.102" height="6.367"/>
	<polygon fill="#FBF49C" points="17.177,29.203 19.783,22.79 18.592,22.79 16.71,27.684 14.819,22.79 13.601,22.79 16.208,29.203 	
		"/>
	<polygon fill="#FBF49C" points="26.449,28.156 22.855,28.156 22.855,26.446 26,26.446 26,25.445 22.855,25.445 22.855,23.79 
		26.403,23.79 26.403,22.79 21.754,22.79 21.754,29.157 26.449,29.157 	"/>
	<path fill="#FBF49C" d="M24.185,8.599V8.567c0-1.963-1.326-3.34-3.29-3.34h-1.856v6.68h1.856
		C22.858,11.907,24.185,10.561,24.185,8.599z"/>
	<path fill="#FBF49C" d="M0,0v35h31V0H0z M30.104,34.09H0.896V18.409h29.207V34.09z M16.639,3.027h4.256c3.429,0,5.8,2.39,5.8,5.508
		v0.032c0,3.118-2.371,5.54-5.8,5.54h-4.256V3.027z M4.791,3.027h2.4v4.384h4.428V3.027h2.401v11.08h-2.401V9.659H7.191v4.448h-2.4
		V3.027z"/>
</g>
</svg>
