<?xml version="1.0" encoding="utf-8"?>
<!-- Generator: Adobe Illustrator 16.2.1, SVG Export Plug-In . SVG Version: 6.00 Build 0)  -->
<!DOCTYPE svg PUBLIC "-//W3C//DTD SVG 1.1//EN" "http://www.w3.org/Graphics/SVG/1.1/DTD/svg11.dtd">
<svg version="1.1" id="Layer_1" xmlns="http://www.w3.org/2000/svg" xmlns:xlink="http://www.w3.org/1999/xlink" x="0px" y="0px"
	 width="70px" height="78px" viewBox="0 0 70 78" enable-background="new 0 0 70 78" xml:space="preserve">
<g>
	<polygon points="18.879,62.752 11.435,62.752 11.435,50.822 8.945,50.822 8.945,65.024 18.879,65.024 	"/>
	<rect x="23.633" y="50.822" width="2.487" height="14.202"/>
	<polygon points="38.784,65.125 44.672,50.822 41.981,50.822 37.731,61.738 33.463,50.822 30.712,50.822 36.598,65.125 	"/>
	<polygon points="59.722,62.792 51.608,62.792 51.608,58.979 58.71,58.979 58.71,56.747 51.608,56.747 51.608,53.055 59.621,53.055 
		59.621,50.822 49.121,50.822 49.121,65.024 59.722,65.024 	"/>
	<path d="M54.608,19.176v-0.071c0-4.379-2.992-7.449-7.429-7.449h-4.188v14.897h4.188C51.616,26.554,54.608,23.553,54.608,19.176z"
		/>
	<path d="M0,0v78.054h70V0H0z M67.977,76.025H2.023V41.054h65.953V76.025z M37.571,6.75h9.608c7.746,0,13.096,5.331,13.096,12.284
		v0.071c0,6.953-5.35,12.354-13.096,12.354h-9.608V6.75z M10.817,6.75h5.421v9.778h9.998V6.75h5.423v24.709h-5.423V21.54h-9.998
		v9.919h-5.421V6.75z"/>
</g>
</svg>
