<?xml version="1.0" encoding="utf-8"?>
<!-- Generator: Adobe Illustrator 16.2.1, SVG Export Plug-In . SVG Version: 6.00 Build 0)  -->
<!DOCTYPE svg PUBLIC "-//W3C//DTD SVG 1.1//EN" "http://www.w3.org/Graphics/SVG/1.1/DTD/svg11.dtd">
<svg version="1.1" id="Layer_1" xmlns="http://www.w3.org/2000/svg" xmlns:xlink="http://www.w3.org/1999/xlink" x="0px" y="0px"
	 width="31px" height="35px" viewBox="0 0 31 35" enable-background="new 0 0 31 35" xml:space="preserve">
<path fill="#FBF49C" d="M29.622,0H1.378C0.617,0,0,0.611,0,1.363v32.271C0,34.389,0.617,35,1.378,35h28.244
	C30.384,35,31,34.389,31,33.634V1.363C31,0.611,30.384,0,29.622,0z M2.758,11.496v-1.389l25.471-5.722v1.389L2.758,11.496z
	 M28.229,11.471v0.032c0,2.61-1.89,4.386-4.242,4.915l-1.754,0.394v3.383l-2.307,0.519V9.439l4.285-0.963
	C26.714,7.914,28.229,9.169,28.229,11.471z M17.306,10.027v11.275l-2.309,0.516V10.546L17.306,10.027z M12.708,3.002
	c0-0.151,0.193-0.274,0.433-0.274h4.718c0.239,0,0.433,0.123,0.433,0.274v1.11c0,0.151-0.193,0.272-0.433,0.272h-4.718
	c-0.24,0-0.433-0.122-0.433-0.272V3.002z M5.305,12.724l2.742,7.325l2.743-8.558l2.487-0.558L9.036,23.239l-2.038,0.457
	L2.757,13.295L5.305,12.724z M2.758,26.45l25.471-5.722v1.391L2.758,27.84V26.45z M16.404,30.979h-0.749v1.302h-0.661v-4.05h1.486
	c0.878,0,1.433,0.53,1.433,1.358C17.913,30.503,17.234,30.979,16.404,30.979z M21.12,32.28l-0.382-0.978h-1.78l-0.389,0.978h-0.678
	l1.657-4.08h0.613l1.657,4.08H21.12z M23.728,32.339c-0.577,0-1.121-0.215-1.573-0.649l0.398-0.508
	c0.361,0.335,0.722,0.526,1.188,0.526c0.409,0,0.668-0.202,0.668-0.516c0-0.295-0.15-0.45-0.851-0.625
	c-0.802-0.208-1.254-0.463-1.254-1.215c0-0.707,0.539-1.182,1.287-1.182c0.55,0,0.984,0.179,1.367,0.509l-0.355,0.54
	c-0.34-0.272-0.679-0.417-1.022-0.417c-0.388,0-0.614,0.214-0.614,0.485c0,0.319,0.173,0.458,0.895,0.643
	c0.797,0.208,1.211,0.516,1.211,1.192C25.072,31.887,24.517,32.339,23.728,32.339z M27.117,32.339c-0.576,0-1.118-0.215-1.572-0.649
	l0.398-0.508c0.361,0.335,0.723,0.526,1.19,0.526c0.409,0,0.667-0.202,0.667-0.516c0-0.295-0.15-0.45-0.85-0.625
	c-0.804-0.208-1.256-0.463-1.256-1.215c0-0.707,0.538-1.182,1.287-1.182c0.55,0,0.985,0.179,1.368,0.509l-0.354,0.54
	c-0.34-0.272-0.679-0.417-1.023-0.417c-0.388,0-0.613,0.214-0.613,0.485c0,0.319,0.171,0.458,0.893,0.643
	c0.797,0.208,1.212,0.516,1.212,1.192C28.464,31.887,27.909,32.339,27.117,32.339z M25.891,12.045v0.032
	c0,0.965-0.676,1.858-1.829,2.118l-1.829,0.411v-3.447l1.784-0.4C25.17,10.5,25.891,10.934,25.891,12.045z M17.238,29.607
	c0,0.434-0.312,0.728-0.812,0.728h-0.771v-1.458h0.771C16.922,28.877,17.238,29.127,17.238,29.607z M19.845,29.051l0.65,1.62h-1.297
	L19.845,29.051z"/>
</svg>
